<svg width="238" height="242" viewBox="0 0 238 242" fill="none" xmlns="http://www.w3.org/2000/svg">
<mask id="mask0_158_301" style="mask-type:luminance" maskUnits="userSpaceOnUse" x="43" y="32" width="152" height="186">
<path d="M43.9512 32.9381L44.0851 167.332C44.0084 171.646 44.5304 175.95 45.6362 180.12C48.0442 189.353 54.6361 197.805 62.4451 201.658C70.2241 206.058 79.6791 206.935 88.8221 207.787C91.2281 208.011 93.7161 208.244 96.1221 208.536C97.6651 208.765 99.2701 208.905 100.822 209.036C104 209.169 107.147 209.715 110.183 210.661C113.821 212.108 116.976 214.555 119.283 217.718C119.4 215.784 120.742 214.459 122.041 213.176C122.273 212.947 122.502 212.722 122.735 212.481C128.407 207.781 136.144 206.613 142.966 206.091C157.916 205.229 173.376 204.336 184.743 193.991C193.459 187.178 194.069 176.531 194.66 166.235L194.75 164.695C194.75 163.417 194.906 38.2951 194.906 32.9321L43.9512 32.9381Z" fill="white"/>
</mask>
<g mask="url(#mask0_158_301)">
<path d="M194.907 32.938H43.9512V217.72H194.907V32.938Z" fill="url(#paint0_radial_158_301)"/>
</g>
<mask id="mask1_158_301" style="mask-type:luminance" maskUnits="userSpaceOnUse" x="0" y="0" width="238" height="242">
<path d="M238 0H0V242H238V0Z" fill="white"/>
</mask>
<g mask="url(#mask1_158_301)">
<path d="M195.122 32.938C195.122 40.005 194.968 163.432 194.966 164.684C194.935 165.199 194.905 165.715 194.876 166.233C194.287 176.499 193.676 187.114 184.997 193.901C173.675 204.201 158.24 205.092 143.309 205.954C136.467 206.48 128.704 207.654 123.002 212.377L122.99 212.388L122.979 212.398C122.759 212.625 122.53 212.851 122.3 213.079C121.062 214.301 119.788 215.558 119.535 217.348C117.233 214.298 114.137 211.94 110.585 210.532C107.536 209.581 104.376 209.031 101.185 208.898C99.6351 208.765 98.032 208.626 96.485 208.398C94.085 208.106 91.5921 207.874 89.1851 207.649C80.0561 206.799 70.6151 205.918 62.8491 201.53C55.0851 197.699 48.5191 189.281 46.1201 180.082C45.0174 175.924 44.4971 171.632 44.574 167.331L44.446 32.938H195.122ZM195.402 32.938H44.166L44.3 167.329C44.2197 171.656 44.7434 175.972 45.856 180.154C48.109 188.794 54.307 197.62 62.731 201.778C72.604 207.357 85.0011 207.278 96.4561 208.673C101.156 209.373 106.168 209.21 110.489 210.793C114.231 212.29 117.457 214.845 119.772 218.144C119.691 215.676 121.649 214.173 123.179 212.591C128.653 208.055 135.979 206.791 143.329 206.232C158.219 205.374 173.835 204.432 185.184 194.105C194.384 186.914 194.601 175.539 195.245 164.7C195.245 164.7 195.404 35.469 195.4 32.938" fill="#1A6DA8"/>
<path fill-rule="evenodd" clip-rule="evenodd" d="M136.706 147.556L134.586 146.912C135.176 147.583 135.874 147.448 136.706 147.556Z" fill="white"/>
<path fill-rule="evenodd" clip-rule="evenodd" d="M131.504 144.335C132.067 144.282 132.228 143.718 132.712 143.45C133.329 143.316 133.731 144.12 134.268 143.825L133.544 143.125C132.632 142.589 132.096 143.825 131.505 144.333" fill="white"/>
<path fill-rule="evenodd" clip-rule="evenodd" d="M137.104 145.223C137.08 145.032 137.1 144.839 137.162 144.658C137.462 144.174 138.021 143.504 138.692 143.504C138.463 143.466 138.228 143.485 138.009 143.56C137.789 143.636 137.592 143.764 137.434 143.935C137.277 144.105 137.164 144.312 137.106 144.537C137.049 144.762 137.048 144.998 137.104 145.223Z" fill="white"/>
<path fill-rule="evenodd" clip-rule="evenodd" d="M140.703 145.892C140.569 145.517 140.73 144.872 140.303 144.792C140.651 145.92 139.847 146.831 139.15 147.502C139.793 147.208 140.062 146.215 140.95 146.402C141.541 146.108 140.737 146.189 140.71 145.894" fill="white"/>
<path fill-rule="evenodd" clip-rule="evenodd" d="M141.481 141.705C141.723 141.759 142.182 141.331 142.447 141.759L142.689 148.198C142.877 145.838 142.662 143.583 142.636 141.384C138.423 141.222 134.077 141.169 129.569 141.062L129.489 145.489C129.677 146.509 129.088 147.389 129.757 148.145C129.695 145.862 129.775 143.577 129.999 141.304C133.835 141.251 137.698 141.682 141.481 141.705Z" fill="white"/>
<path fill-rule="evenodd" clip-rule="evenodd" d="M123.961 159.282C122.726 159.336 123.801 160.543 122.915 160.945C122.539 161.134 122.163 160.917 121.385 161.266C121.729 161.451 122.111 161.555 122.502 161.569C122.893 161.584 123.282 161.508 123.639 161.348C124.176 160.973 124.9 160.596 124.792 159.793C124.632 159.523 124.392 159.122 123.961 159.282Z" fill="white"/>
<path fill-rule="evenodd" clip-rule="evenodd" d="M114.435 188.07L114.489 182.27C112.689 182.028 110.438 182.859 109.07 181.545L107.403 185.681V186.381C108.02 186.943 108.986 186.648 109.71 186.916C110.139 187.882 109.71 188.849 109.71 190.056C105.981 187.856 102.573 184.825 98.8978 182.41C98.1978 183.725 97.2348 184.904 96.5908 186.274C97.3418 187.534 97.2348 189.197 97.4228 190.701C97.4736 192.909 97.1652 195.111 96.5098 197.22L103.727 197.007C103.888 195.825 104.802 194.912 104.827 193.68C103.887 193.221 102.76 193.734 101.742 193.465C100.291 193.035 101.285 191.13 101.342 189.735C104.963 192.284 108.613 194.699 112.742 197.461C113.76 196.415 114.083 194.994 114.862 193.412C113.723 192.708 112.645 191.91 111.641 191.024C112.634 190.165 113.976 189.36 114.432 188.073M110.998 183.752C111.784 183.907 112.586 183.97 113.387 183.94C113.681 184.773 113.118 185.55 113.253 186.462C113.296 186.98 113.177 187.499 112.912 187.947C112.648 188.394 112.251 188.749 111.777 188.962C111.751 187.995 111.831 187.03 111.724 186.01C111.241 185.742 110.489 185.982 110.033 185.823C110.134 185.051 110.471 184.329 110.999 183.756M113.066 194.056C112.98 194.683 112.79 195.292 112.502 195.856C108.209 192.904 104.426 189.98 100.321 187.564C100.242 189.791 100.054 192.259 100.187 194.245C101.475 194.567 102.522 194.271 103.54 194.645C103.621 196.955 100.884 195.315 99.7318 195.799C99.4098 195.907 98.9248 195.88 98.7658 195.531C99.2731 192.471 99.1451 189.339 98.3898 186.331C98.8988 185.902 99.1398 184.531 100.054 185.097L101.931 186.788C104.84 189.127 107.914 191.251 111.131 193.145C111.825 193.328 112.48 193.638 113.063 194.058" fill="white"/>
<path fill-rule="evenodd" clip-rule="evenodd" d="M123.047 126.491L122.537 126.383L122.724 127.083C123.047 127.029 122.94 126.707 123.047 126.494" fill="white"/>
<path fill-rule="evenodd" clip-rule="evenodd" d="M147.839 186.834C148.187 187.316 148.912 186.941 149.261 187.425C149.3 188.473 149.145 189.518 148.805 190.51C147.839 192.039 145.88 191.904 144.163 192.12C144.149 191.693 144.241 191.269 144.431 190.887C145.022 188.015 146.658 185.305 146.953 182.274C145.101 182.299 143.572 181.974 141.909 182.462L140.514 186.594C140.674 187.505 142.069 186.594 142.123 187.612L140.433 191.021C139.87 191.585 139.521 192.898 138.502 192.631C137.834 189.434 138.39 186.102 140.059 183.294C140.171 183.12 140.214 182.911 140.18 182.707C140.145 182.504 140.035 182.321 139.871 182.194C137.992 182.194 136.195 182.114 134.771 181.039L132.705 185.547L132.57 186.459C132.903 186.728 133.273 186.945 133.67 187.104C134.233 187.237 134.796 186.804 135.225 187.237C135.092 188.016 134.286 188.527 133.804 189.169C133.857 191.905 133.723 194.83 133.67 197.54C134.58 197.545 135.488 197.455 136.379 197.272C136.82 197.164 137.28 197.164 137.72 197.272C141.369 196.708 145.071 196.335 148.666 195.716L149.632 194.965C150.893 192.791 153.013 190.887 152.797 188.07C152.824 186.138 153.255 184.153 153.173 182.194L149.203 182.408C148.803 183.908 148.157 185.308 147.835 186.834M152.154 184.446L151.564 190.456C150.934 191.89 149.99 193.164 148.802 194.184C144.588 195.259 140.002 195.446 135.681 196.252C136.327 193.085 134.957 189.383 136.701 186.967C136.352 185.735 134.581 186.647 135.037 185.412L136.11 183.748C136.916 183.876 137.701 184.112 138.444 184.448C138.363 185.683 137.612 186.62 137.29 187.748C137.063 189.932 137.036 192.132 137.209 194.321C138.659 194.293 140.617 194.615 141.019 192.95C142.139 191.223 142.982 189.331 143.519 187.344C143.632 187.251 143.726 187.137 143.794 187.009C143.863 186.88 143.905 186.738 143.919 186.593C143.463 186.163 142.577 186.617 142.229 186.056C142.282 185.411 142.873 184.956 143.141 184.392C143.893 184.419 145.02 183.992 145.449 184.768C144.51 187.879 143.812 191.068 142.31 193.915C144.564 193.782 147.086 193.834 148.99 192.628C150.653 191.151 150.574 188.628 150.414 186.698C150.091 186.241 149.448 186.564 149.071 186.187C149.444 185.421 149.943 184.724 150.546 184.123C151.056 184.336 151.781 183.961 152.156 184.444" fill="white"/>
<path fill-rule="evenodd" clip-rule="evenodd" d="M131.607 163.975L150.607 163.331C144.865 163.357 139.007 163.49 133.033 163.731C132.862 163.692 132.702 163.614 132.567 163.502C132.431 163.39 132.324 163.248 132.254 163.087C132.007 160.491 131.989 157.877 132.2 155.278C135.259 154.931 138.855 154.985 141.86 154.903C144.596 154.958 147.896 154.527 150.874 154.77L150.928 154.312C144.435 154.287 138.344 154.606 131.691 154.77C131.665 157.855 131.771 161.021 131.61 163.97" fill="white"/>
<path fill-rule="evenodd" clip-rule="evenodd" d="M130.212 187.935L129.943 183.482C129.621 182.997 129.594 182.382 128.924 182.274C126.724 182.059 124.068 182.408 121.624 182.195C120.449 182.366 119.253 182.067 118.296 181.362C117.586 182.963 117.02 184.624 116.605 186.326C116.766 186.916 117.405 186.916 117.84 187.157L125.379 187.613C125.674 190.913 125.593 194.213 125.7 197.54C127.266 197.084 128.791 196.501 130.261 195.796C130.234 193.247 130.02 191.096 130.208 187.935M127.693 195.205C127.693 191.905 127.693 189.247 127.505 186.324C124.366 186.189 122.059 185.84 119.188 185.868C119.197 185.1 119.493 184.363 120.019 183.803C122.542 184.686 125.735 184.285 128.391 184.392C128.848 184.445 128.82 184.929 128.927 185.223C128.981 188.223 129.035 191.368 129.115 194.423C128.606 194.584 128.283 195.415 127.694 195.202" fill="white"/>
<path fill-rule="evenodd" clip-rule="evenodd" d="M132.843 145.624L132.063 146.348C131.796 146.777 130.963 146.509 131.045 147.048C131.448 147.005 131.831 146.848 132.15 146.596C132.468 146.344 132.709 146.008 132.845 145.625" fill="white"/>
<path fill-rule="evenodd" clip-rule="evenodd" d="M154.414 152.144C154.305 151.875 154.386 151.472 154.091 151.365C151.301 151.418 148.671 151.285 145.854 151.231C145.263 151.338 145.478 150.641 145.075 150.531C145.298 146.383 145.28 142.226 145.022 138.081L140.193 138.027C137.966 137.786 135.337 137.727 133.03 137.57C131.312 136.739 131.179 134.781 130.401 133.331C130.079 132.741 130.266 131.721 129.676 130.756C129.3 129.493 128.549 127.965 127.099 127.589C126.59 126.549 126.412 125.378 126.59 124.234C126.67 123.378 127.69 123.752 128.2 123.405C128.371 122.307 128.121 121.185 127.5 120.264C126.668 119.594 125.487 118.87 125.7 117.556C124.627 116.966 125 115.409 125.11 114.524C125.459 113.64 126.666 113.934 126.91 112.968V109.561C130.746 108.568 134.717 107.843 138.178 105.961C138.85 105.613 139.629 106.124 140.298 105.775C141.281 104.863 142.361 104.061 143.518 103.386C144.512 102.743 146.228 102.796 146.363 101.268C146.504 100.996 146.715 100.767 146.975 100.606C147.235 100.445 147.534 100.357 147.839 100.353C148.239 100.06 148.831 99.7368 148.992 99.3888C149.1 99.1218 148.966 98.8248 149.126 98.5568C150.119 97.7258 150.415 96.3308 151.836 96.3038C152.427 95.8208 152.236 95.0168 152.536 94.4268C153.282 93.4847 153.929 92.4684 154.467 91.3938C155.381 90.1328 154.923 88.2278 156.614 87.3418C156.534 86.7931 156.626 86.2331 156.877 85.7384C157.127 85.2438 157.525 84.8388 158.014 84.5788C158.255 83.8018 157.614 83.3708 157.826 82.5928C159.518 81.3578 158.685 79.3478 159.195 77.6308C159.517 76.7988 160.241 75.8868 159.57 75.0548C159.141 74.0628 160.188 73.5248 160.27 72.6678C160.726 71.6748 160.028 70.8678 159.894 69.9568C161.102 68.1868 159.52 66.4678 159.76 64.5658C159.626 63.8398 158.982 63.2498 159.304 62.4178C160.109 60.6728 160.968 58.8748 160.727 56.7558C159.948 55.5488 158.827 55.2808 157.695 54.6918C155.762 54.3158 154.234 55.9248 153.133 57.2138C152.597 58.5288 153.241 59.8698 153.59 61.0768C154.501 62.6328 154.179 64.5098 153.964 66.2768C153.456 68.2618 155.28 70.1138 153.912 71.8848C154.206 73.2268 153.053 74.3008 153.643 75.6958C153.012 76.4877 152.629 77.4487 152.543 78.4578C152.919 79.5578 152.301 80.5798 151.793 81.4908C151.685 83.1008 150.209 84.1738 150.293 85.8638C148.793 87.3638 149.031 89.7808 146.966 90.8808C145.466 91.3638 146.429 93.2428 145.142 93.9118C143.29 94.4498 142.352 96.3008 140.768 97.5118C138.703 97.7008 137.576 100.143 135.563 100.412C132.209 101.726 128.936 103.122 125.18 103.442C123.865 102.961 124.48 101.377 124.43 100.356C124.485 100.17 124.581 99.9987 124.711 99.8549C124.841 99.7111 125.001 99.5983 125.18 99.5248C128.101 99.2113 130.896 98.1691 133.309 96.4938C134.651 96.8678 135.509 95.7158 136.529 95.0708C137.308 94.6418 138.273 94.6708 138.972 94.0508C139.24 92.4948 141.09 92.4418 141.923 91.2878C142.271 89.8378 143.935 89.5178 144.498 88.2568C145.57 87.3988 145.679 86.0568 146.322 84.9568C146.254 84.5478 146.3 84.1279 146.457 83.7438C146.613 83.3598 146.873 83.0267 147.207 82.7818C147.556 81.0918 147.449 79.1878 148.576 77.8188C148.066 75.9678 149.408 74.7058 149.408 72.9898C149.542 72.3188 148.898 71.7828 149.22 71.1898C149.159 70.0554 149.305 68.9193 149.649 67.8368C149.245 65.7139 149.03 63.5596 149.005 61.3988C150.005 60.0564 150.551 58.4297 150.561 56.7558C150.052 55.3888 148.603 54.9048 147.342 54.6918C145.436 55.2278 143.342 55.7638 142.137 57.5358C140.849 59.9218 142.916 62.0428 144.069 63.9738C144.369 66.2278 142.916 68.1328 143.801 70.2258C143.466 71.8788 143.268 73.557 143.211 75.2428C143.05 75.8608 142.511 76.3978 142.781 77.1208C142.996 78.3828 142.137 79.3488 141.602 80.3948L141.494 81.0948C141.794 82.1418 140.501 82.4948 139.994 82.9188C139.029 83.6958 139.029 84.9028 138.33 85.8188C136.496 86.6586 134.935 87.9972 133.824 89.6818C130.979 90.5948 128.404 92.2298 125.506 93.0898C125.106 93.1968 124.327 93.4398 124.031 92.9018C124.085 91.8018 123.36 90.4018 124.164 89.4138L129.37 87.2138C130.095 86.7848 131.222 87.3728 131.436 86.3278C131.813 85.2548 133.154 85.5508 133.69 84.5838C134.198 84.4228 134.844 84.6648 135.165 84.1278C135.621 82.3838 136.828 80.9608 137.365 79.2448C137.607 78.6018 138.277 78.1168 138.33 77.3668C138.731 75.9378 138.992 74.4733 139.109 72.9938C139.484 72.4298 139.967 71.8118 139.672 71.0628C138.733 69.8278 139.538 68.4338 139.752 67.1448C139.494 66.3949 139.384 65.6017 139.43 64.8098C138.411 63.4698 139.136 61.5638 139.564 60.1688C139.269 58.9898 140.396 57.4588 139.027 56.5748C137.497 55.5538 135.727 54.5348 133.827 54.9638C132.545 55.8492 131.358 56.8653 130.285 57.9958C130.285 59.0148 129.963 59.8208 130.554 60.7068C131.868 61.8598 133.907 63.0408 133.88 64.9998C133.605 65.6628 133.486 66.3805 133.532 67.0971C133.578 67.8136 133.789 68.5099 134.148 69.1318C133.612 70.6068 134.471 72.2168 132.995 73.3168C132.485 74.0688 133.395 74.5508 133.128 75.3828C132.056 76.9668 131.707 79.3548 129.507 79.9458C128.435 82.2798 125.832 82.3318 123.793 83.0288C123.591 82.866 123.445 82.6449 123.373 82.3956C123.301 82.1462 123.309 81.8809 123.393 81.6358C122.937 80.5088 123.823 78.9258 122.883 77.9618C122.373 77.3168 123.232 76.9148 123.393 76.4048C123.693 75.1438 122.593 74.2308 122.83 72.9978C123.796 71.8688 122.346 70.8768 122.83 69.6428C123.768 68.1138 122.721 66.4508 122.294 65.0018C121.356 61.9678 125.294 60.3868 124.869 57.4068C124.057 56.1481 122.787 55.2537 121.328 54.9118C120.067 54.6738 118.769 54.7163 117.527 55.0361C116.284 55.356 115.127 55.9455 114.137 56.7628C113.547 57.3558 113.87 58.4008 113.87 59.1508C113.788 60.6508 115.345 61.3778 116.177 62.4248C118.108 64.1958 115.856 66.1808 116.123 68.2248C116.016 69.1098 116.875 69.8348 116.391 70.6128C115.56 71.6868 115.962 72.8928 116.499 73.9678C116.103 74.6969 115.971 75.5402 116.123 76.3558C116.284 76.7828 116.875 77.0558 116.823 77.5628C115.723 78.7708 116.259 80.6738 115.857 82.5268C114.408 82.6868 113.357 81.8018 112.128 81.4268C111.564 80.9978 110.41 81.1048 110.383 80.1388C110.331 79.916 110.209 79.7155 110.035 79.5661C109.862 79.4167 109.646 79.3259 109.417 79.3068C108.746 79.1728 108.826 78.3688 108.666 77.8318C108.639 76.9468 107.539 76.7848 107.243 76.0868C106.117 76.9198 104.507 76.5968 103.243 77.1328C102.786 77.0528 102.706 76.5158 102.867 76.1688C103.343 75.5873 103.992 75.1734 104.719 74.9878C105.609 74.9024 106.501 75.1306 107.24 75.6328C107.367 75.4051 107.409 75.1401 107.36 74.8841C107.311 74.6282 107.174 74.3977 106.972 74.2328C105.952 73.7758 105.845 72.6218 105.551 71.7108C105.561 71.4612 105.632 71.2178 105.758 71.0024C105.885 70.7869 106.062 70.606 106.275 70.4758C106.542 69.8328 105.819 69.4288 105.631 68.8668C106.194 66.5848 105.979 63.9558 107.053 61.8668C107.589 60.6058 109.092 60.4178 109.414 59.1038C109.652 58.3579 109.585 57.5483 109.227 56.8518C106.088 54.3818 101.42 54.7838 98.1454 56.7148C97.9764 57.7694 98.0326 58.8479 98.3102 59.8793C98.5879 60.9106 99.0808 61.8715 99.7564 62.6988C100.533 64.4158 100.156 66.6158 100.156 69.0038C99.6194 69.8628 100.531 70.4258 100.719 71.1238C100.826 72.6808 101.604 74.0238 101.309 75.6318C102.651 77.0258 102.087 79.2008 103.054 80.7318C103.51 81.5648 104.904 81.9928 104.664 83.1738C104.825 83.7358 105.464 83.6838 105.872 83.9508C106.596 85.1708 107.558 86.2322 108.701 87.0716C109.844 87.911 111.145 88.511 112.525 88.8358C113.705 89.5358 115.852 88.6468 116.174 90.5788C116.324 90.9527 116.368 91.3605 116.302 91.7578C116.236 92.155 116.062 92.5265 115.799 92.8318C113.466 92.9388 111.478 91.7868 109.493 90.8468C108.52 90.6942 107.63 90.2107 106.971 89.4778C105.852 89.1775 104.886 88.4699 104.261 87.4938C102.411 87.6538 102.222 85.5078 101.498 84.4078C100.344 84.1668 100.21 82.7168 99.1914 82.2078C98.9764 80.5438 97.0984 79.5508 96.9914 77.8338C97.8764 76.9488 96.7504 76.0888 96.4814 75.2568C96.7224 73.7288 96.0814 72.6268 96.0254 71.1258C95.8644 70.3208 95.2744 69.6498 95.3254 68.7638C96.0494 66.8638 95.5934 64.4978 95.4594 62.5128L96.2104 59.1048C96.4254 58.4878 96.9104 58.0048 96.8014 57.2798C96.6674 55.8858 94.9774 55.5368 93.8504 55.1618C91.5954 55.0268 89.2884 55.4018 87.8394 57.0918C87.5984 57.8448 88.0004 58.4918 88.1614 59.1578C88.3764 60.7408 89.6904 61.8678 90.0404 63.3978C89.5342 64.8884 89.5529 66.5073 90.0934 67.9858C91.3804 70.0248 89.5574 72.0638 90.1734 74.2378C91.3544 75.4448 90.7364 77.4038 91.4614 78.7988C92.5884 79.4428 92.4804 80.8378 92.8844 81.8848C92.5084 83.5768 94.7084 84.1658 94.5474 85.7478C95.7814 86.2848 96.2384 87.5988 96.7474 88.6478C97.2574 89.8278 98.4914 90.0478 99.3224 90.9008C99.7794 93.3688 102.515 93.0488 103.749 94.9528C103.57 94.3684 103.552 93.7466 103.696 93.1528C103.884 91.9438 105.225 91.6528 106.003 90.8988L106.593 91.4088C106.076 92.3918 105.688 93.4378 105.439 94.5208C105.278 95.2448 104.312 95.1658 104.018 95.1658C107.653 97.2951 111.644 98.7495 115.796 99.4588C117.004 100.209 116.144 101.739 116.305 102.759C115.85 103.535 114.642 103.159 113.918 103.081C110.094 102.353 106.42 100.984 103.052 99.0308C102.652 98.7308 101.978 99.0828 101.629 98.6308C101.039 97.6388 99.9394 97.3698 99.0534 96.8308C98.9194 95.3828 97.3094 95.5688 96.4244 95.0308C96.0641 94.1662 95.6046 93.3464 95.0554 92.5878C93.9294 92.2658 93.4724 91.1658 92.9354 90.2548C91.0844 89.9868 91.9704 87.6548 90.2264 87.1158C89.7704 86.6858 90.0114 85.9078 90.0394 85.3718C90.1454 84.4318 88.9124 84.3788 88.7504 83.5718C88.1604 81.4518 87.9724 79.1978 86.4444 77.5058C86.1214 77.0768 86.4164 76.5678 86.8194 76.2718C87.3284 75.4938 86.4974 74.7968 86.1194 74.1518C85.4764 73.1608 86.2004 72.0598 86.2274 71.0128C85.3954 69.3228 85.4224 67.2568 85.4764 65.2128C85.0474 63.5768 84.3484 61.8868 85.0764 60.1688C85.3714 59.0148 86.5524 57.9958 85.9084 56.7068C84.6474 55.6888 83.0084 54.7238 81.2084 55.4198C80.143 55.696 79.1705 56.2514 78.3914 57.0288C78.2965 57.4668 78.3053 57.921 78.4171 58.3551C78.5289 58.7892 78.7407 59.1911 79.0354 59.5288C80.3514 61.1918 80.0024 63.8488 79.2764 65.6468C79.4924 67.4178 79.1164 69.3468 79.5984 71.0668C79.6254 71.5758 79.0354 71.9238 79.3574 72.4878C80.0929 73.8679 80.3567 75.4508 80.1084 76.9948C80.3127 77.1282 80.4842 77.3062 80.6097 77.5155C80.7353 77.7247 80.8118 77.9597 80.8334 78.2028C80.2164 79.9198 81.1334 81.6368 81.2894 83.3538C81.7478 83.8942 82.1521 84.4784 82.4964 85.0978C82.4832 85.8584 82.6603 86.6102 83.0117 87.2848C83.3631 87.9595 83.8776 88.5356 84.5084 88.9608C85.4214 90.8128 85.3144 93.2008 87.5944 94.3808C88.264 95.6107 89.1036 96.7401 90.0884 97.7358C91.7514 98.3788 92.9324 100.203 93.9534 101.518C95.2817 102.035 96.429 102.931 97.2534 104.094C98.2454 104.658 99.6134 104.443 100.284 105.704C101.707 107.046 103.584 107.286 105.221 108.091C107.448 109.058 110.104 108.978 112.251 110.158L112.305 113.243L113.029 113.376C114.291 114.021 114.559 115.47 114.773 116.651C113.513 117.536 114.666 119.496 112.95 120.058C112.064 120.783 112.25 122.017 112.306 123.038C112.563 122.992 112.826 123.01 113.074 123.089C113.322 123.169 113.546 123.307 113.728 123.493C114.506 124.407 114.128 125.72 114.049 126.822C111.742 128.022 111.017 130.443 109.949 132.428C108.849 133.984 109.117 136.528 106.971 137.203C103.859 137.821 100.613 137.578 97.3924 137.903C96.5614 138.145 95.5144 137.876 94.7364 138.224C94.7104 142.706 94.4954 147.214 94.4954 151.881C91.6244 152.013 89.0744 152.15 86.1244 152.258C86.3934 156.925 86.1504 161.486 86.1244 165.858C86.2584 166.233 86.0174 166.958 86.5544 167.013L113.598 167.065L138.523 167.145L154.057 167.013C154.219 166.982 154.365 166.895 154.469 166.767C154.572 166.638 154.627 166.478 154.622 166.313L154.414 152.144ZM103.409 74.7378C103.356 73.8278 104.134 73.8518 104.697 73.6918C104.964 73.7458 105.286 73.8278 105.341 74.1468C105.154 75.0328 104.027 74.6298 103.409 74.7378ZM100.001 59.9268C99.9754 59.6058 99.9754 59.2568 100.323 59.1488C102.068 59.2568 103.542 58.6658 105.206 59.1488L105.797 58.9628C106.36 58.9628 107.085 58.8548 107.272 59.4718C107.085 60.9478 105.662 61.9128 105.472 63.3888C105.311 64.9718 105.928 67.0118 104.695 68.2178C103.985 68.5858 103.164 68.6811 102.388 68.4858C102.234 68.3718 102.123 68.2086 102.074 68.0231C102.025 67.8376 102.041 67.641 102.119 67.4658C102.602 66.9288 103.488 66.9568 103.863 66.1778C103.943 65.8713 103.96 65.5519 103.914 65.2387C103.868 64.9254 103.76 64.6245 103.595 64.3538C102.924 63.7088 101.795 63.6008 101.476 62.6358C101.342 62.0728 101.503 61.4028 101.099 60.9468C100.699 60.6768 100.027 60.5168 99.9994 59.9258M101.153 70.3638C102.924 69.7718 104.346 69.3438 105.66 69.9638C105.795 70.1508 105.96 70.3928 105.795 70.6068C104.488 71.0286 103.096 71.1206 101.744 70.8748C101.502 70.7665 101.297 70.5899 101.153 70.3668M104.963 80.9908C104.642 80.1908 105.501 79.5958 105.527 78.7908C105.686 78.5671 105.894 78.3825 106.134 78.251C106.375 78.1195 106.643 78.0445 106.916 78.0317C107.19 78.0188 107.464 78.0686 107.716 78.177C107.968 78.2855 108.191 78.4499 108.37 78.6578C108.638 79.7028 107.404 79.5418 106.894 79.9458C106.144 80.1868 105.795 81.3118 104.963 80.9908ZM106.492 82.8428C106.116 82.0628 107.109 81.5278 107.538 80.9108C107.864 80.6244 108.276 80.4554 108.709 80.431C109.142 80.4065 109.571 80.5279 109.926 80.7758C109.526 81.8758 108.181 81.7958 107.457 82.7068C107.162 82.8148 106.839 83.0278 106.492 82.8428ZM111.079 87.2958C109.899 86.4908 108.02 86.1698 107.725 84.4518C107.645 83.8338 108.288 83.5398 108.692 83.2458C109.281 83.4588 109.335 84.2658 109.844 84.7208C111.402 86.0592 113.294 86.9496 115.318 87.2968C114.164 88.6388 112.582 87.5968 111.079 87.2968M95.7624 74.6018C95.6814 75.3538 96.0624 76.7488 94.7964 76.4808C94.3404 76.5348 94.1253 76.1318 93.9383 75.8378C93.9643 75.0858 94.5024 74.5768 94.7964 73.9598C95.2794 73.7708 95.6554 74.2278 95.7624 74.6028M95.6284 80.6668C95.4404 80.9368 95.7624 81.6058 95.1714 81.5538C95.0374 81.1538 94.6083 80.5608 95.0373 80.2108C95.2253 80.3458 95.6284 80.3168 95.6284 80.6668ZM91.3084 60.0608C91.0934 59.6608 90.4234 59.5518 90.6084 59.0958C91.3084 58.5868 92.3534 58.9628 93.1844 58.7738C93.8544 58.7208 94.8474 58.2118 95.3044 58.9638C95.1174 60.4918 94.3384 61.9638 94.7134 63.6028C95.1123 65.4074 95.0945 67.2791 94.6614 69.0758C94.407 69.2439 94.1215 69.3592 93.8218 69.4149C93.522 69.4706 93.2141 69.4654 92.9164 69.3998C92.74 69.0991 92.6631 68.7503 92.6969 68.4033C92.7307 68.0563 92.8733 67.7288 93.1044 67.4678C92.9164 66.5028 93.5884 65.5368 92.9704 64.6788C92.0834 63.7388 90.9854 62.7738 91.4404 61.3498C91.5389 61.1436 91.5785 60.9142 91.5549 60.6869C91.5312 60.4596 91.4452 60.2433 91.3064 60.0618M91.5744 71.4388C91.4085 71.2256 91.3315 70.9565 91.3594 70.6878C92.5012 70.4157 93.676 70.3073 94.8484 70.3658L95.4924 71.0088C94.6074 72.1088 92.8354 71.5998 91.5744 71.4388ZM93.9374 83.4848C93.8824 82.2248 95.4124 82.4388 96.1374 82.5198C96.0869 82.7875 95.9727 83.0392 95.8046 83.2536C95.6365 83.468 95.4193 83.6389 95.1714 83.7518C95.0779 83.8297 94.9679 83.8852 94.8497 83.9141C94.7316 83.9431 94.6083 83.9447 94.4894 83.9188C94.3705 83.893 94.2591 83.8404 94.1636 83.765C94.0681 83.6896 93.9911 83.5934 93.9383 83.4838M96.0834 86.1398C95.7344 86.0068 95.2524 86.1398 95.1184 85.7398C95.2524 85.0948 96.0564 84.9348 96.5124 84.5328C96.6697 84.522 96.8268 84.5568 96.9648 84.633C97.1028 84.7093 97.2159 84.8238 97.2904 84.9628C97.1304 85.5258 96.5394 85.8738 96.0834 86.1418M99.6774 89.9258C99.1694 90.0048 98.8193 89.5768 98.5243 89.2808C98.3373 88.8528 98.8244 88.8528 98.8464 88.5038C99.3284 88.1038 99.8654 87.2158 100.697 87.4298L100.911 87.6698C100.891 88.1148 100.769 88.5493 100.555 88.94C100.341 89.3308 100.041 89.6677 99.6774 89.9248M102.71 92.0438C102.615 92.4027 102.408 92.722 102.119 92.9558C101.818 92.9336 101.527 92.8391 101.27 92.6803C101.013 92.5216 100.798 92.3032 100.643 92.0438C100.321 91.1058 101.443 91.1858 101.878 90.7568C102.217 90.3598 102.664 90.0706 103.165 89.9248C103.488 90.0318 103.917 89.9508 104.05 90.3798C103.505 90.8465 103.05 91.4104 102.71 92.0428M126.91 128.828C127.83 129.655 128.499 130.724 128.842 131.913C129.325 133.631 129.861 135.322 130.451 137.013L126.078 137.335C125.378 136.985 125.326 136.022 125.113 135.324C124.683 133.445 124.656 131.432 124.146 129.608C124.63 128.561 125.998 128.883 126.911 128.829M119.591 130.302C119.991 130.356 120.691 130.116 120.664 130.76C120.891 132.315 120.918 133.893 120.743 135.455C120.555 135.696 120.234 135.563 120.018 135.455C119.939 134.569 118.678 134.139 118.865 133.146C118.918 132.182 118.678 130.946 119.59 130.303M120.609 127.916C120.341 127.755 119.992 127.433 120.234 127.084C120.405 127.075 120.569 127.013 120.703 126.908C120.838 126.803 120.937 126.658 120.986 126.495C119.486 125.932 120.394 127.622 119.586 128.051C118.969 128.051 118.244 128.159 118.029 127.46C118.082 126.924 118.914 127.272 119.049 126.628C119.264 126.28 118.727 125.985 118.485 125.85C117.085 125.904 118.352 128.292 116.74 127.998C116.532 128.08 116.302 128.085 116.09 128.011C115.879 127.938 115.701 127.791 115.588 127.598C115.522 127.472 115.5 127.327 115.524 127.187C115.548 127.046 115.617 126.918 115.721 126.821C116.021 126.821 116.338 127.116 116.606 126.821C117.006 126.39 116.66 125.721 116.687 125.29C116.618 125.187 116.52 125.107 116.405 125.06C116.291 125.012 116.165 124.999 116.043 125.022C115.829 125.209 115.801 125.666 115.4 125.479C115.096 124.876 114.914 124.218 114.863 123.545C118.833 123.599 122.67 123.224 126.263 123.599C126.349 123.697 126.41 123.813 126.442 123.939C126.475 124.065 126.478 124.197 126.45 124.324C125.565 125.236 125.833 126.711 125.887 127.924C125.389 128.179 124.838 128.316 124.277 128.324C123.577 128.217 122.72 128.324 122.345 127.734C121.835 128.191 121.219 127.949 120.601 127.922M118.159 131.142L117.838 133.851C117.274 133.663 116.388 133.771 116.281 133.02C116.496 132.188 116.013 131.168 117.113 130.82C117.462 130.738 118.078 130.657 118.159 131.142ZM116.147 115.634C116.576 115.634 117.086 115.795 117.113 116.278C116.227 116.949 115.986 116.733 115.906 116.465C115.798 116.17 115.772 115.742 116.147 115.634ZM121.514 130.308C121.996 130.041 122.614 130.068 123.123 129.799C124.357 130.335 123.823 132.107 124.411 133.151L124.651 136.613C124.303 137.419 123.794 136.452 123.31 136.48C122.854 135.593 121.459 135.97 121.432 134.951L121.514 130.308ZM125.243 120.708C125.541 120.653 125.848 120.7 126.116 120.841C126.383 120.982 126.596 121.209 126.719 121.485C126.773 121.995 127.148 122.451 126.907 122.961C125.432 123.122 123.526 123.361 122.48 122.261C121.701 121.561 120.334 122.315 119.58 121.617C119.58 121.08 120.062 120.785 120.466 120.517C122.075 120.194 123.738 121.428 125.241 120.705M158.778 76.2728C158.055 76.6218 157.543 75.9788 156.926 75.8448C156.155 75.9087 155.389 75.6787 154.78 75.2008C154.673 74.7168 155.103 74.6098 155.371 74.3428C156.171 74.7168 156.739 73.9128 157.571 74.2888L158.457 74.7988C158.578 74.8721 158.682 74.9692 158.764 75.0842C158.846 75.1991 158.904 75.3295 158.934 75.4675C158.964 75.6054 158.966 75.748 158.939 75.8866C158.912 76.0252 158.858 76.1569 158.778 76.2738M159.288 73.3738C158.725 74.1248 157.888 73.3478 157.169 73.3188C156.686 72.9978 156.016 73.1838 155.64 72.6758C155.585 71.7898 156.686 71.7358 157.249 71.3338C157.841 70.8768 157.813 69.7758 158.859 70.2868L159.289 70.7968C159.396 71.7098 159.988 72.5678 159.288 73.3738ZM157.357 68.9458C157.975 68.6238 159.048 68.3818 159.423 69.1338C159.476 69.5888 159.048 69.6968 158.779 69.7238C158.297 69.4818 157.331 69.7498 157.357 68.9448M154.272 58.6448C155.772 57.5448 158.081 58.9958 159.372 57.4098L159.935 57.8098C159.856 59.9028 158.62 61.5408 158.535 63.6598C158.776 65.1358 159.635 66.4238 159.502 67.9798L156.281 68.1138C156.22 68.03 156.176 67.9343 156.153 67.8328C156.13 67.7313 156.128 67.6261 156.147 67.5238C156.604 67.1478 157.329 67.0408 157.49 66.3708C158.16 65.0548 156.229 64.4378 157.114 63.2048C157.217 63.0679 157.291 62.912 157.332 62.7461C157.374 62.5802 157.382 62.4077 157.355 62.2388C156.389 62.4538 156.175 61.4608 155.744 60.8978C155.744 59.6098 153.707 60.0978 154.27 58.6428M153.625 79.7058C154.669 79.5982 155.691 79.3356 156.657 78.9268C157.193 78.5268 157.057 76.9698 158.133 77.6928L158.588 78.2028C158.629 78.8481 158.48 79.4911 158.16 80.0531C157.84 80.6151 157.364 81.0716 156.788 81.3668C155.716 81.3138 154.91 80.6438 153.888 80.5368C153.511 80.4288 153.511 79.9718 153.619 79.7048M156.141 82.4688L157.028 83.5688C157.133 83.7524 157.188 83.9603 157.188 84.1718C157.188 84.3833 157.133 84.5911 157.028 84.7748C156.49 85.2568 155.9 86.4918 155.042 85.7408C154.586 85.2578 153.78 85.1498 153.619 84.4528C153.888 83.9168 154.8 84.2668 154.854 83.4868C154.854 82.5218 153.915 82.6818 153.485 82.0098C153.935 81.8935 154.405 81.8742 154.863 81.9532C155.321 82.0322 155.756 82.2076 156.141 82.4678M151.041 87.4848C151.659 87.2168 152.383 87.2428 152.973 86.9738C152.812 86.4388 152.035 86.5198 152.141 85.8738C153.054 85.2288 153.993 86.1738 154.771 86.5738L155.308 87.4328C155.067 87.9958 154.958 88.7208 154.396 89.0418C153.296 89.9018 152.463 88.5598 151.496 88.3168C151.255 88.0748 150.906 87.8098 151.04 87.4858M150.34 90.7048C151.306 91.5098 153.721 89.7938 153.24 91.9378C152.3 92.3148 152.81 94.2728 151.495 93.5488C150.949 92.8142 150.298 92.1634 149.563 91.6168C149.509 91.1348 150.071 91.0008 150.34 90.7048ZM149.617 94.4358C149.536 93.8448 148.757 93.3358 149.107 92.6918C149.606 92.7848 150.072 93.0071 150.458 93.3365C150.844 93.6659 151.137 94.0908 151.307 94.5688C151.393 94.8838 151.438 95.2084 151.441 95.5348C151.093 95.9908 150.717 95.1858 150.396 95.7228C150.397 96.0259 150.315 96.3234 150.159 96.5832C150.003 96.843 149.778 97.0552 149.51 97.1968C149.243 97.3858 149.028 97.4388 148.787 97.2788C148.518 96.4788 147.687 95.6968 147.634 94.8368C148.223 94.1668 149.216 95.5608 149.618 94.4368M145.991 97.1418C146.232 96.5768 145.347 96.0668 145.91 95.5318C146.796 95.5568 147.279 96.3368 147.655 97.0078C147.788 97.6508 148.217 98.3498 147.922 99.0208C147.37 99.368 146.747 99.5873 146.098 99.6628C145.642 98.8048 144.57 98.1868 144.622 97.1418C145.05 96.8418 145.481 97.4358 145.991 97.1418ZM141.403 98.7508C142.073 98.5088 142.395 99.5838 143.146 99.6638L143.846 99.3958C144.06 99.0738 144.571 99.1798 144.812 99.3418C145.643 99.8258 145.401 100.792 145.267 101.596C144.999 102.185 144.489 102.348 143.979 102.669C143.066 102.75 142.96 101.703 142.449 101.193C142.099 100.894 141.822 100.518 141.64 100.094C141.459 99.6707 141.377 99.2109 141.403 98.7508ZM138.636 101.002C139.227 101.217 139.789 102.21 140.38 101.645C140.407 101.345 140.22 101.108 140.434 100.868C141.268 101.196 141.954 101.816 142.365 102.612C142.339 103.658 141.158 103.845 140.515 104.356C139.092 104.087 138.528 102.476 138.046 101.324C137.992 101.002 138.395 100.84 138.636 101.002ZM128.279 106.662C130.426 106.824 131.848 105.24 133.753 104.811C134.665 103.605 136.436 104.328 137.214 102.933C137.992 102.88 138.154 103.765 138.502 104.221C136.57 105.912 134.289 106.449 132.25 107.496C128.468 108.167 124.684 109.427 120.66 108.918C123.261 108.391 125.81 107.636 128.278 106.663M148.428 74.4628C148.079 75.1068 147.354 75.5088 147.007 76.0188C146.524 75.7188 145.396 75.8848 145.585 75.1078C146.443 73.9808 146.095 72.2898 147.329 71.3778C147.57 71.3643 147.809 71.424 148.015 71.5489C148.221 71.6739 148.384 71.8582 148.483 72.0778C148.59 72.8558 148.883 73.7678 148.429 74.4658M143.654 59.9778C143.622 59.8762 143.613 59.7683 143.63 59.6629C143.647 59.5575 143.689 59.4575 143.751 59.3712C143.814 59.2848 143.896 59.2145 143.991 59.1659C144.086 59.1174 144.192 59.092 144.298 59.0918C145.267 59.1424 146.238 59.0979 147.198 58.9588C147.843 58.6588 147.306 57.9648 147.708 57.6708C147.981 57.6158 148.264 57.634 148.527 57.7236C148.791 57.8132 149.026 57.9709 149.208 58.1808C150.308 59.4138 148.752 60.4868 148.429 61.5868C148.585 62.5773 148.426 63.5916 147.974 64.4868C148.457 66.0168 149.316 67.8938 148.429 69.5058C147.491 70.2568 146.31 69.4508 145.263 69.7198C144.888 69.6658 144.808 69.2088 144.941 68.9408C146.605 68.2408 145.585 66.5528 145.532 65.3998C145.452 65.0998 145.048 64.8628 145.21 64.5688C145.827 64.2988 146.605 63.8968 146.739 63.0688C146.792 62.574 146.674 62.0761 146.406 61.657C146.137 61.2379 145.735 60.9226 145.263 60.7628C144.781 60.4128 143.896 60.7348 143.654 59.9848M145.263 76.8608C146.177 77.1548 147.303 77.3978 147.705 78.3358C147.494 79.2457 147.101 80.1037 146.551 80.8588C145.774 80.5648 144.751 80.6708 144.164 80.0278C144.164 79.1678 145.424 79.5708 145.719 78.7928C145.854 78.4178 145.506 78.1758 145.263 78.0148C144.808 77.8268 144.109 78.1758 143.788 77.6398C143.815 76.9158 144.754 77.0488 145.263 76.8608ZM145.907 82.3878L146.229 82.9248C146.014 83.3248 145.8 83.9178 145.21 83.6248C144.485 83.1408 143.895 82.2558 143.01 82.1498C143.842 81.1558 144.995 81.8808 145.91 82.3898M143.201 83.4898C143.55 83.3028 144.033 83.5718 144.38 83.7578C144.801 84.0257 145.166 84.3724 145.455 84.7788C145.5 85.0175 145.47 85.2643 145.369 85.4852C145.268 85.7062 145.101 85.8904 144.891 86.0128C144.112 85.9868 143.629 85.3128 142.879 85.2338C142.422 84.5638 143.496 84.2418 143.201 83.4898ZM142.235 86.1458C142.476 86.0658 142.879 85.9858 143.093 86.2008C143.605 86.5066 144.075 86.8762 144.493 87.3008C144.493 87.9178 143.903 88.3468 143.473 88.7228C142.508 88.6678 142.453 90.0908 141.596 90.0638C141.031 89.2318 140.388 88.5888 139.796 87.7568C140.602 87.1668 142.05 87.4568 142.238 86.1458M137.676 89.6078C137.609 89.4593 137.591 89.2933 137.625 89.134C137.659 88.9746 137.743 88.8302 137.864 88.7218C139.339 88.8828 139.742 90.4918 140.253 91.5388C140.493 92.2098 139.688 92.2888 139.34 92.5848C138.723 92.7748 138.481 92.0228 138.267 91.6748C137.972 90.9218 136.737 90.5748 136.899 89.7418C137.194 89.6088 137.488 90.0418 137.677 89.6088M134.777 92.9088C135.152 92.7758 135.501 93.0148 135.877 93.0968C136.548 92.6968 135.797 90.9508 136.763 91.4068C137.486 91.9418 137.463 92.7758 137.863 93.4198C137.906 93.5803 137.892 93.7505 137.823 93.9017C137.755 94.0529 137.636 94.1759 137.487 94.2498C136.63 93.9818 136.2 95.2708 135.422 94.6258C135.207 94.0618 134.509 93.6068 134.777 92.9088ZM130.727 95.2168L132.98 93.4168C133.972 93.2548 134.025 94.4088 134.456 94.9458C134.832 96.1248 133.463 95.5618 133.034 96.0458C130.209 97.6091 127.173 98.7569 124.019 99.4538C123.428 100.554 123.805 102.11 123.697 103.318C123.133 104.018 121.98 103.53 121.121 103.585C120.827 103.45 120.45 103.37 120.289 102.996C119.968 102.218 120.504 100.956 119.377 100.635C118.571 100.204 117.203 100.393 116.934 99.3458C118.383 98.9978 120.154 99.8298 121.12 98.6208C120.288 98.2458 118.652 98.7288 118.679 97.4138C122.811 96.9578 127.238 97.1978 130.726 95.2138M136.896 78.4698C135.93 78.1758 134.616 77.8798 134.32 76.7268C135.044 76.3528 136.22 76.0268 136.198 74.9828C136.869 74.6068 137.648 75.2778 138.131 75.7608C137.916 76.7538 137.889 77.9888 136.896 78.4698ZM137.943 74.4198C137.044 74.1342 136.179 73.7471 135.367 73.2658C135.958 72.1388 136.79 72.2188 137.167 72.4068C137.598 72.7018 138.161 72.9158 138.375 73.4538C138.418 73.5445 138.44 73.6432 138.441 73.7433C138.442 73.8434 138.421 73.9425 138.381 74.034C138.34 74.1254 138.28 74.2071 138.205 74.2735C138.13 74.3399 138.042 74.3894 137.946 74.4188M139.288 70.9298C139.346 71.1371 139.359 71.3542 139.327 71.5669C139.294 71.7796 139.217 71.983 139.1 72.1638C138.026 72.8878 137.3 71.3328 136.2 71.4408C136.844 70.4998 137.891 71.2528 138.454 70.3678C138.883 70.3138 139.044 70.6358 139.286 70.9298M132.712 60.3858C132.201 59.3928 133.275 59.5278 133.812 59.3388C135.269 59.4288 136.73 59.4114 138.184 59.2868L138.584 59.7958C138.503 61.0838 137.564 62.3958 138.369 63.6598C139.174 64.7598 138.423 66.2598 139.013 67.4688C138.799 68.1688 139.04 69.2928 138.181 69.5088C137.189 69.1608 135.928 69.2668 135.096 68.6228C135.195 68.311 135.24 67.9847 135.229 67.6578C135.793 67.3348 136.839 67.8448 137.029 66.8788C137.083 66.3428 137.298 65.3498 136.439 65.3228C136.09 65.2698 135.687 65.2958 135.42 65.0008C135.447 64.5728 136.12 64.5728 136.439 64.3568C136.197 63.7118 135.606 63.9278 135.151 63.7118C133.407 63.2298 134.159 61.2448 132.71 60.3848M133.676 80.7228C134.91 81.3118 135.259 78.6308 136.251 80.1328C135.902 81.0178 135.769 82.4128 134.588 82.4678C134.266 81.9568 133.38 81.4738 133.676 80.7228ZM131.368 82.6008C131.883 82.3119 132.324 81.9081 132.656 81.4208C133.407 81.7148 133.756 82.6008 134.32 83.1658C134.213 84.1588 133.033 84.1588 132.52 84.9658C132.01 85.0728 131.58 85.5808 130.963 85.2868C130.228 84.6241 129.674 83.7841 129.354 82.8468C129.944 82.4708 130.669 82.7648 131.366 82.6038M122.166 77.0508L118.49 77.1308C118.442 77.1021 118.399 77.0637 118.366 77.018C118.332 76.9723 118.309 76.9203 118.296 76.8651C118.284 76.8099 118.283 76.7527 118.293 76.6971C118.304 76.6415 118.326 76.5887 118.357 76.5418C118.576 76.2921 118.843 76.0896 119.143 75.9464C119.442 75.8032 119.768 75.7223 120.099 75.7088C120.556 75.3328 120.904 74.7158 121.388 74.4218C121.68 74.4488 121.952 74.5805 122.155 74.7927C122.357 75.0048 122.475 75.283 122.488 75.5758C122.574 75.8277 122.589 76.0982 122.533 76.3581C122.476 76.618 122.349 76.8575 122.166 77.0508ZM119.778 78.1508C120.14 78 120.53 77.9339 120.921 77.9575C121.312 77.9811 121.692 78.0937 122.032 78.2868L122.273 78.7948V82.7018C122.246 83.0508 121.843 83.1018 121.573 83.1588C120.301 83.2987 119.015 83.2356 117.763 82.9718C117.307 82.6488 117.549 82.0578 117.576 81.5498C119.105 80.9858 119.24 79.3758 119.776 78.1408M117.657 72.7218C117.764 71.7288 118.972 71.9978 119.695 71.7568C120.635 71.9718 122.003 71.4878 122.352 72.6698C122.031 74.5698 120.206 72.8288 118.998 73.1778C118.516 73.2848 117.737 73.3408 117.657 72.7228M116.477 59.7908C116.369 59.5758 116.128 59.4158 116.155 59.1458C117.926 58.4458 119.777 59.6578 120.555 57.8588C120.689 57.3758 120.448 56.5448 121.065 56.4368C122.246 56.6248 122.917 57.9368 123.318 58.8768C123.453 60.3008 122.138 61.2398 121.708 62.5008C120.608 65.2648 123.935 67.9738 121.575 70.4148C120.315 70.0668 118.758 70.8988 117.765 69.9598C117.846 69.6598 117.846 69.2598 118.221 69.1278C118.678 69.2618 118.973 68.9128 119.188 68.6718C119.385 68.2081 119.647 67.775 119.966 67.3858C120.931 65.2388 118.946 63.2528 119.831 61.2118C118.972 60.2468 117.415 60.7578 116.477 59.7908ZM116.289 98.2378C112.989 98.3468 109.797 97.0578 106.818 95.7958C106.593 95.6569 106.401 95.4693 106.257 95.2466C106.113 95.0239 106.021 94.7717 105.987 94.5088C106.04 94.1868 106.094 93.8088 106.387 93.6508C107.087 93.7318 107.514 94.4818 108.187 94.6958C110.622 96.112 113.312 97.033 116.103 97.4058C116.291 97.6208 116.56 97.9698 116.291 98.2368M116.103 89.4628C117.498 88.9288 119.43 89.6778 120.557 88.7128C119.673 88.2298 118.223 88.8998 117.712 87.8548C121.389 87.1548 125.52 86.8348 128.284 84.1248C129.084 84.2318 129.572 85.1438 129.814 85.8158C129.599 86.7548 128.579 86.8618 127.883 87.2158C126.292 87.6722 124.74 88.2551 123.241 88.9588L122.865 89.6038C122.946 90.8638 123.375 92.1258 123.134 93.3308C122.02 93.7668 120.791 93.8143 119.646 93.4658C119.336 92.9198 119.205 92.2902 119.271 91.6658C118.916 91.1072 118.453 90.625 117.909 90.2472C117.365 89.8695 116.752 89.6038 116.104 89.4658M81.1454 69.7198C81.1714 68.3778 81.8694 67.1708 81.7894 65.7198C82.4054 65.1818 81.7624 63.8688 82.9424 63.7878C83.0699 63.6384 83.1547 63.4573 83.1878 63.2637C83.2209 63.07 83.2011 62.8711 83.1304 62.6878C82.8304 61.7218 81.8964 61.3728 81.1974 60.6208C81.1837 60.3669 81.2301 60.1133 81.3328 59.8806C81.4355 59.648 81.5916 59.4428 81.7884 59.2818C83.0494 59.7908 83.4514 58.4488 84.2884 58.0468L84.5024 58.3688C84.4764 59.6298 83.7784 60.6758 84.0454 61.9908C84.5834 64.2188 85.1993 66.9808 84.2873 69.2618C83.5353 70.0938 82.1934 69.8788 81.1484 69.7188M82.1144 75.3788C82.5144 74.7358 83.3754 74.4138 83.5894 73.5788C83.559 73.3311 83.5843 73.0797 83.6631 72.8429C83.742 72.6061 83.8726 72.3899 84.0454 72.2098C84.2927 72.2101 84.5306 72.3049 84.7103 72.4748C84.8901 72.6447 84.9981 72.8769 85.0124 73.1238C84.6634 74.0888 86.1124 75.4298 84.5024 75.6188C83.6974 75.5378 82.6024 76.1278 82.1144 75.3768M83.7784 81.6288C83.9861 81.4756 84.1414 81.2619 84.2231 81.017C84.3047 80.7721 84.3087 80.508 84.2344 80.2608C84.8784 79.3218 85.5754 80.0468 85.6564 80.7168C85.8174 81.4688 85.2264 82.4338 86.1124 82.9708C85.2814 83.6408 84.7174 84.6328 83.8584 84.4458C83.2414 83.6688 83.6174 82.3528 83.7784 81.6288ZM83.9664 87.5288C83.6424 86.4818 84.9574 86.7778 85.4664 86.3208C86.3145 85.9279 87.1935 85.6052 88.0944 85.3558L88.2294 85.5438C88.0134 87.0998 86.1624 87.2338 85.0624 87.9328C84.7394 87.9048 84.1244 88.0648 83.9624 87.5328M85.8934 91.6658C85.7854 91.2348 86.0274 90.7258 86.4834 90.7528C86.8995 90.7982 87.3205 90.7545 87.7184 90.6247C88.1164 90.4949 88.4821 90.2818 88.7914 89.9998C88.8591 89.9716 88.933 89.9613 89.0059 89.9699C89.0788 89.9785 89.1482 90.0057 89.2076 90.0488C89.2669 90.092 89.3142 90.1498 89.3448 90.2165C89.3754 90.2832 89.3884 90.3566 89.3824 90.4298C89.1674 91.3688 88.1474 91.6648 87.5824 92.3628C87.265 92.3907 86.9456 92.3416 86.6512 92.2198C86.3568 92.0979 86.0962 91.9069 85.8914 91.6628M89.1914 94.5058C88.4664 94.7198 87.8494 94.1838 87.3914 93.7288C87.1764 93.0578 88.0074 93.1118 88.2234 92.8958C89.1696 92.7014 90.0537 92.2781 90.7984 91.6628C91.0984 91.6358 91.4143 91.6888 91.4983 91.9848C91.1983 93.1378 89.7274 93.5138 89.1914 94.5058ZM90.2104 96.8658C89.8104 95.8998 91.2564 96.2758 91.3624 95.3918C91.4164 95.0688 91.4983 94.6398 91.8993 94.5588C92.8933 94.2908 92.7864 95.8448 93.6994 95.5788C94.1294 96.8658 93.0564 97.3498 92.7344 98.1538C91.7588 98.0668 90.8549 97.6051 90.2124 96.8658M96.4643 101.266C96.0083 101.936 95.2574 101.344 94.7194 101.266C94.1834 100.916 93.5944 100.622 93.5664 99.8948C94.1564 99.0948 94.1034 97.5878 95.3664 97.4538C95.7414 97.4278 96.1724 97.4278 96.3314 97.7758C96.3864 98.2048 96.0634 98.4758 96.0904 98.8758C96.7614 98.8758 97.4054 98.0978 97.8084 97.5068C98.0224 97.4538 98.3724 97.3738 98.5324 97.5878C97.9379 98.8641 97.2472 100.093 96.4664 101.265M99.6854 103.625C99.3644 104.268 98.7474 103.759 98.2644 103.839C97.7995 103.732 97.3613 103.532 96.9764 103.25C97.4594 102.284 97.2454 100.862 98.2644 100.298C99.1234 100.325 99.6854 99.6798 100.517 99.6538C100.84 99.1428 101.617 99.4398 101.753 99.8938C101.323 101.265 99.7144 102.121 99.6854 103.625ZM101.107 105.048C100.222 103.892 101.537 102.848 102.127 101.907C102.827 101.799 102.637 102.633 103.04 102.926C106.769 107.626 112.859 106.817 117.769 108.774C111.893 109.074 105.91 108.213 101.107 105.048ZM114.684 113.417C116.965 112.8 119.568 113.552 121.901 113.041C122.116 112.129 122.948 111.78 123.645 111.297C124.208 111.324 124.852 111.377 125.067 111.997C125.148 112.559 125.443 113.285 125.067 113.821C123.913 114.329 123.807 115.483 123.645 116.503C122.921 116.986 122.145 116.692 121.257 116.773C120.8 116.934 120.345 116.718 119.915 116.718C120.13 116.236 119.325 116.692 119.594 116.075C120.077 115.923 120.498 115.622 120.8 115.217C120.709 115.014 120.547 114.851 120.345 114.757C120.143 114.663 119.914 114.646 119.7 114.707C119.057 115.029 119.379 116.049 119.191 116.586C118.815 116.828 118.171 116.664 117.768 116.719C117.473 116.612 117.419 116.291 117.446 115.994C117.795 115.941 118.199 116.022 118.305 115.539C118.546 114.948 117.795 114.787 117.527 114.519C117.232 114.493 117.151 115.002 116.802 114.843C116.534 114.573 116.265 114.198 115.836 114.251C115.541 114.493 115.701 115.351 115.084 114.976C114.87 114.494 114.494 114.01 114.684 113.42M107.684 139.177L108.569 138.936C114.391 138.694 119.756 138.559 125.633 138.536L125.954 138.723C126.047 138.853 126.108 139.004 126.132 139.163C126.155 139.322 126.141 139.484 126.089 139.636C120.189 139.795 114.526 139.931 108.889 140.145C108.648 143.606 108.728 147.045 108.702 150.26C108.513 150.608 108.111 150.394 107.869 150.313C107.923 146.263 107.252 142.828 107.682 139.179M123.833 145.109C123.726 144.709 124.102 144.063 123.512 143.874C123.003 143.982 122.493 144.84 121.957 144.142C122.247 143.701 122.684 143.377 123.19 143.229C123.639 143.255 124.069 143.414 124.426 143.686C124.559 144.063 124.586 144.572 124.988 144.786C125.149 144.762 125.312 144.784 125.46 144.851C125.607 144.918 125.733 145.026 125.82 145.162C124.72 145.537 124.237 145.403 123.834 145.109M124.988 146.987C124.398 147.336 124.023 146.693 123.512 147.229C123.417 147.381 123.282 147.505 123.121 147.585C122.96 147.666 122.78 147.7 122.601 147.685C122.868 147.147 122.841 146.395 123.46 146.264C124.05 146.316 124.721 146.316 124.988 146.988M121.205 146.72C120.186 147.52 118.549 147.148 117.53 146.665C116.859 146.45 116.484 145.806 115.974 145.378C116.081 146.532 117.557 146.532 116.806 147.416C116.02 147.147 115.342 146.63 114.875 145.942C114.836 145.662 114.864 145.378 114.957 145.111C115.051 144.845 115.207 144.605 115.412 144.412C116.35 144.112 116.672 145.35 117.396 145.62C117.804 145.908 118.271 146.103 118.762 146.19C119.254 146.278 119.759 146.257 120.241 146.128L122.041 145.245C122.158 145.668 122.132 146.119 121.966 146.526C121.801 146.933 121.507 147.275 121.128 147.498C120.967 147.23 121.476 146.935 121.208 146.72M110.96 141.836C110.96 143.767 110.826 145.513 110.96 146.988L111.738 145.056C112.597 144.656 113.804 144.756 114.238 143.634C114.211 143.286 114.613 143.178 114.827 143.044C115.186 143.04 115.54 143.135 115.848 143.319C116.156 143.504 116.407 143.77 116.572 144.089C115.901 144.277 115.472 143.365 114.772 143.689C114.155 144.575 113.753 145.701 112.385 145.432C111.821 146.05 111.794 146.91 111.285 147.554C110.615 147.902 110.991 148.76 110.319 148.975L109.728 141.192C114.802 140.71 119.899 140.513 124.995 140.603C125.064 140.654 125.123 140.718 125.167 140.791C125.211 140.865 125.24 140.946 125.253 141.031C125.265 141.115 125.261 141.202 125.24 141.285C125.219 141.368 125.182 141.446 125.13 141.515C120.085 141.54 115.524 141.381 110.964 141.837M121.264 144.413C120.593 145.813 118.688 145.594 117.347 144.977C116.864 144.333 116.918 144.253 117.078 144.2C117.725 144.519 118.429 144.703 119.149 144.74C119.869 144.776 120.589 144.665 121.264 144.413ZM112.625 146.453C113.146 146.188 113.74 146.103 114.314 146.213C114.797 146.56 115.207 146.997 115.522 147.501C115.307 147.795 115.012 147.501 114.77 147.501C114.618 147.292 114.404 147.137 114.159 147.055C113.915 146.974 113.65 146.97 113.403 147.046C112.973 147.288 112.651 148.011 112.115 147.823C112.188 147.336 112.361 146.869 112.625 146.454M95.7754 139.641C98.7814 139.211 101.624 139.641 104.387 139.319C104.977 139.398 105.836 139.077 106.078 139.774C106.078 139.927 106.024 140.075 105.926 140.193C105.828 140.31 105.692 140.39 105.541 140.418L97.1174 140.554C96.6864 144.254 96.8474 148.254 96.7944 151.606C96.6502 151.692 96.4882 151.744 96.3208 151.758C96.1533 151.772 95.9849 151.748 95.8284 151.687C95.8014 147.743 95.5863 143.746 95.7743 139.641M105.809 141.304C105.915 141.787 105.38 142.004 105.031 142.082C102.952 142.252 100.866 142.315 98.7804 142.27L98.4574 149.808C98.3514 150.051 98.0574 150.344 97.7574 150.131C97.4252 147.272 97.3358 144.391 97.4904 141.518C100.207 141.213 102.939 141.079 105.672 141.118L105.809 141.304ZM90.2204 165.344C89.9794 165.344 89.8714 165.639 89.5774 165.529C89.1774 162.016 89.3354 159.252 89.2014 156.113C91.5354 155.335 93.9503 155.925 96.2013 155.55C98.4813 155.307 101.138 155.47 103.501 155.415L103.608 155.602C103.716 156.058 103.259 156.194 102.964 156.382C98.8063 156.436 94.7274 156.782 90.5424 156.837C90.4074 159.837 90.2744 162.632 90.2204 165.343M91.2664 160.111C91.2394 159.811 90.9444 159.385 91.3204 159.144C92.2594 159.444 92.5284 160.539 93.4404 160.835C93.4406 160.96 93.4116 161.083 93.3557 161.195C93.2998 161.306 93.2185 161.403 93.1184 161.478C92.7216 161.419 92.3453 161.263 92.0226 161.025C91.6999 160.786 91.4406 160.473 91.2674 160.111M96.7944 162.767C95.9944 164.484 93.7354 163.384 92.3404 163.786C93.6014 163.034 95.1034 163.758 95.8284 162.632C96.0964 161.639 94.4864 160.217 96.2034 159.923C96.3644 160.888 97.3574 161.668 96.7944 162.767ZM94.7274 158.687C94.9164 157.936 95.8554 158.529 96.4194 158.447C96.6344 158.661 97.0634 158.501 97.1694 158.824C96.3535 158.917 95.5276 158.871 94.7274 158.687ZM100.98 163.652C99.9604 163.57 98.4314 163.758 98.0284 162.499C97.9754 161.611 98.8874 161.077 98.5914 160.189C100.121 160.807 97.4643 163.275 100.201 163.142C101.301 162.442 102.858 163.842 103.501 162.176C103.849 163.947 102.052 163.33 100.979 163.652M103.501 160.512C102.883 161.882 101.435 161.104 100.389 161.399C99.7724 160.622 101.409 159.119 99.7454 158.899C99.1534 158.792 98.6984 159.355 98.2154 159.14C98.6155 158.632 99.1885 158.288 99.8254 158.175C100.416 158.067 100.791 158.416 101.247 158.63C102.104 159.247 100.547 160.348 101.809 160.563C102.75 160.831 102.642 159.516 103.501 159.597C103.593 159.731 103.642 159.89 103.642 160.052C103.642 160.215 103.593 160.374 103.501 160.508M88.6094 154.708C88.6634 158.438 88.2353 161.98 88.2873 165.44C87.9933 165.548 87.2684 165.63 87.4034 165.067L87.5094 153.798C93.0354 153.476 98.9384 153.368 104.144 153.098L104.251 153.661C99.0766 154.454 93.8436 154.803 88.6094 154.706M100.469 148.913C99.9054 148.886 99.3153 148.994 98.9123 148.59C100.039 148.241 101.166 148.107 101.812 147.035C101.876 146.785 101.887 146.526 101.846 146.272C101.804 146.018 101.711 145.775 101.571 145.559C101.406 145.431 101.212 145.346 101.005 145.313C100.799 145.28 100.588 145.3 100.391 145.371C100.044 145.733 99.8435 146.211 99.8274 146.713C99.8274 147.06 100.202 147.168 100.283 147.491C100.139 147.626 99.96 147.72 99.7665 147.762C99.573 147.805 99.3716 147.795 99.1834 147.733C99.7204 147.357 99.2894 146.902 99.2374 146.579C99.2541 146.033 99.463 145.511 99.8274 145.104C100.045 144.898 100.315 144.754 100.608 144.687C100.9 144.621 101.206 144.635 101.491 144.727C101.792 144.803 102.072 144.946 102.309 145.146C102.546 145.347 102.734 145.598 102.859 145.882C104.065 145.453 104.523 143.118 106.133 144.461L106.91 145.48C106.186 146.016 106.293 145.508 105.999 145.293C105.731 145.014 105.366 144.85 104.979 144.836C104.389 146.016 102.618 146.016 102.538 147.547C103.602 147.662 104.653 147.877 105.676 148.189C103.905 148.62 102.215 147.922 100.476 148.915M100.851 145.937L101.251 146.337C101.277 146.687 101.224 147.088 100.851 147.223C100.395 146.417 100.422 145.909 100.851 145.935M105.359 147.035C105.627 147.302 106.325 147.382 106.138 147.866C105.617 147.831 105.112 147.674 104.662 147.409C104.528 147.115 104.313 146.578 104.581 146.203C104.797 145.586 105.521 145.961 105.87 146.121C105.816 146.421 105.224 146.552 105.359 147.035ZM109.36 158.624C109.419 160.497 109.329 162.372 109.092 164.232L108.341 163.832L108.394 154.255C114.162 153.825 119.502 153.745 124.813 153.855C125.189 154.014 125.244 154.391 125.189 154.767C119.394 155.089 115.155 154.873 109.629 155.222C109.039 156.162 109.629 157.503 109.36 158.63M111.104 163.514C110.862 163.407 110.326 163.566 110.379 163.138C111.345 162.922 111.372 161.717 112.392 161.663C113.227 161.928 114.042 162.251 114.833 162.627C113.535 162.596 112.25 162.902 111.104 163.514ZM112.634 160.831C112.476 160.797 112.331 160.718 112.216 160.603C112.102 160.489 112.023 160.343 111.989 160.185C111.955 160.003 111.975 159.815 112.046 159.644C112.117 159.473 112.236 159.326 112.389 159.222C113.731 159.222 114.374 160.884 115.662 161.022C114.669 161.88 113.838 159.975 112.631 160.834M125.456 161.905C125.214 161.932 124.946 161.605 124.756 161.905C124.889 162.281 125.533 161.958 125.588 162.444C124.944 162.901 124.188 162.228 123.521 162.364C122.586 162.51 121.629 162.33 120.811 161.854C120.377 162.298 119.834 162.621 119.236 162.79C118.638 162.959 118.006 162.969 117.403 162.819C117.484 162.282 118.289 162.525 118.638 162.364C119.39 161.826 120.811 160.994 120.678 159.788C120.785 159.331 120.302 159.009 119.978 158.823C119.441 158.581 119.065 159.172 118.958 159.546C118.797 159.975 119.307 160.646 118.69 160.754C118.314 159.893 116.945 160.673 116.812 159.599C116.812 159.277 116.893 158.876 116.49 158.767C116.261 158.731 116.027 158.746 115.805 158.811C115.582 158.875 115.376 158.989 115.202 159.142C115.362 159.652 115.98 159.276 116.302 159.465C116.571 159.838 117.102 160.187 116.893 160.699C116.33 160.248 115.668 159.936 114.961 159.788C114.586 159.223 114.061 158.773 113.446 158.488C112.83 158.204 112.147 158.096 111.473 158.177C110.964 158.767 110.454 159.411 110.773 160.242C111.014 160.429 110.853 160.754 110.907 161.022C110.585 161.209 110.317 160.834 110.264 160.565C110.29 159.679 110.129 158.927 110.64 158.258C111.017 157.959 111.466 157.764 111.941 157.694C112.417 157.624 112.903 157.68 113.349 157.858C113.94 158.158 114.718 158.658 115.416 158.18C116.006 157.991 116.891 157.697 117.4 158.314C117.857 158.635 117.562 159.307 117.911 159.656C118.42 159.012 118.903 157.778 120.029 157.991C120.754 157.938 121.237 158.502 121.64 159.012C121.962 159.469 121.506 160.432 122.284 160.432C122.524 159.869 122.524 159.093 123.195 158.825C123.712 158.645 124.266 158.598 124.805 158.688C125.14 158.875 125.408 159.162 125.572 159.508C125.736 159.855 125.787 160.244 125.718 160.622C124.859 161.184 126.604 161.586 125.45 161.907M119.386 159.79C119.358 159.413 119.95 159.39 120.029 159.734C119.629 160.19 119.386 160.004 119.386 159.79ZM107.591 153.028C107.108 153.322 107.484 153.967 107.269 154.396C107.376 158.206 107.028 161.748 107.136 165.665C106.819 165.738 106.492 165.756 106.169 165.719L106.062 165.129L106.119 152.002L106.709 151.816C112.477 151.734 118.058 151.333 123.693 151.816L126.135 151.87C126.43 152.057 126.295 152.406 126.348 152.701C120.043 153.265 113.605 152.62 107.594 153.024M127.094 140.468C127.708 140.084 128.222 139.56 128.594 138.939C133.557 139.18 138.521 139.26 143.404 139.315C144.048 139.421 143.726 140.115 143.914 140.549V149.428C143.726 149.671 143.834 150.153 143.404 150.207C138.039 150.073 132.835 150.314 127.414 150.127C127.253 146.773 126.743 143.715 127.091 140.469M152.991 154.128L152.938 165.021L129.622 165.53C129.247 165.345 128.522 165.665 128.388 165.13C128.066 161.186 128.495 157.242 128.28 153.164C128.442 152.841 128.119 152.253 128.603 152.008L129.303 151.93L143.093 152.253L152.753 152.521C152.981 153.025 153.064 153.581 152.994 154.13" fill="white"/>
<path fill-rule="evenodd" clip-rule="evenodd" d="M147.519 161.211C146.455 161.382 145.368 161.131 144.487 160.511C144.057 159.711 145.076 159.251 144.755 158.5C144.47 158.801 144.251 159.157 144.111 159.546C144.033 159.795 144.016 160.06 144.063 160.317C144.11 160.574 144.218 160.816 144.379 161.022C144.812 161.387 145.352 161.603 145.918 161.637C146.484 161.67 147.045 161.52 147.519 161.209" fill="white"/>
<path fill-rule="evenodd" clip-rule="evenodd" d="M66.7851 178.224C65.3631 176.613 65.9271 174.279 66.3291 172.424C66.6231 171.405 67.9391 172.049 68.4491 171.137C68.6107 170.88 68.7179 170.593 68.7638 170.293C68.8097 169.993 68.7935 169.687 68.7161 169.393C68.6181 169.116 68.455 168.866 68.2404 168.665C68.0258 168.464 67.7661 168.318 67.483 168.238C67.1073 168.174 66.7214 168.204 66.3603 168.326C65.9992 168.448 65.6743 168.659 65.4151 168.938C65.2268 169.343 65.1524 169.792 65.1998 170.236C65.2472 170.68 65.4146 171.103 65.6841 171.459L64.4501 173.82C63.3241 171.625 62.7087 169.204 62.65 166.737C65.55 162.096 68.0151 157.237 71.0211 152.519C70.7261 157.804 69.0361 162.578 65.2211 166.363C70.6131 163.331 72.6211 157.455 72.8941 151.687C72.9112 149.81 72.7774 147.935 72.4941 146.08L71.8491 147.367C68.8991 151.123 65.6491 154.773 64.2031 159.145C63.9786 160.124 63.6549 161.077 63.2371 161.99C62.9151 161.828 63.0231 161.507 62.9151 161.264C63.3721 158.609 62.8621 155.524 64.5791 153.35C64.8791 151.821 66.7261 153.002 67.1011 151.55C67.262 151.071 67.262 150.553 67.1011 150.074C66.9552 149.752 66.7002 149.492 66.3811 149.339C66.062 149.187 65.6993 149.152 65.3571 149.241C64.9011 149.269 64.5261 149.778 64.3121 150.127C63.8821 150.88 64.6331 151.71 64.2041 152.38C63.6131 152.621 63.1851 153.642 62.5141 153.293C62.5941 151.065 62.2991 148.544 62.7821 146.666C65.4426 142.677 67.8875 138.547 70.1061 134.296C70.6421 134.271 70.4281 134.886 70.5631 135.183C70.3178 139.809 68.345 144.175 65.0351 147.416C67.498 146.233 69.4239 144.164 70.4281 141.622C72.0968 136.984 72.7999 132.053 72.4941 127.133C72.3601 127.455 71.931 127.644 71.931 127.992C68.175 132.527 63.989 136.898 62.647 142.158C62.3951 139.274 62.856 136.372 63.9891 133.707C64.3111 132.207 66.0271 133.251 66.7791 132.284C67.0988 131.792 67.2321 131.203 67.155 130.621C66.967 129.845 66.1081 129.521 65.4091 129.388C65.1192 129.424 64.8411 129.524 64.5953 129.682C64.3495 129.84 64.1423 130.051 63.9891 130.299C63.8544 130.982 63.8544 131.684 63.9891 132.366L62.4591 133.466C62.3801 131.399 61.7081 128.85 62.7811 127.025C65.6251 123.109 67.7181 118.895 70.5621 114.898C70.5507 116.723 70.3343 118.541 69.9171 120.318L68.4951 123.483C67.5194 125.194 66.3299 126.773 64.9551 128.183C65.1853 128.066 65.4282 127.976 65.6791 127.914C67.5929 126.382 69.227 124.531 70.5091 122.441C73.0851 118.149 72.5741 112.729 72.3091 107.497L71.72 108.729C69.171 111.681 66.5411 114.713 64.9581 118.122C64.451 119.711 63.7382 121.226 62.8381 122.63C62.587 120.246 62.947 117.837 63.884 115.63C64.044 113.83 66.2991 114.744 66.5141 112.974C66.7551 112.357 66.3521 111.82 65.9241 111.363C65.6355 111.18 65.3006 111.082 64.9586 111.082C64.6166 111.082 64.2817 111.18 63.9931 111.363C63.7172 111.661 63.5306 112.03 63.4545 112.428C63.3785 112.827 63.4161 113.239 63.5631 113.617C63.7241 114.288 63.1071 114.879 62.4631 115.117L62.2761 111.254C62.1951 109.269 63.6971 107.954 64.3151 106.291C66.5951 103.125 67.6 99.2761 70.056 96.3101C75.256 90.0351 70.5561 100.857 65.0921 109.645C61.9451 114.703 72.2291 100.631 72.3091 94.8341C72.284 93.7144 72.3291 92.5942 72.444 91.4801C72.144 90.7291 72.4701 89.7091 72.1751 89.0381C71.8871 89.386 71.6933 89.8019 71.6121 90.2461C67.7221 94.3241 63.9121 98.6461 62.7851 104.546C62.5306 102.668 62.5306 100.764 62.7851 98.8851C63.5371 97.6241 63.5101 95.2101 65.4951 95.2641C66.2461 94.9421 66.139 94.1101 66.327 93.4641C66.1739 92.9511 65.8271 92.5178 65.3601 92.2561C64.6601 92.2561 63.6701 92.1241 63.2951 92.9561C63.1186 93.2622 63.0492 93.6182 63.0977 93.9681C63.1463 94.318 63.31 94.6417 63.5631 94.8881C63.7771 95.5331 62.9461 95.9071 62.1411 96.3101C62.0705 94.5268 62.1515 92.7408 62.3831 90.9711C65.3601 86.5181 67.6951 81.7951 70.7001 77.2351C70.8881 82.3581 68.527 86.7061 65.736 90.3281C69.3612 87.5952 71.7701 83.5496 72.4451 79.0601C72.6321 76.1881 73.1951 73.1301 72.6851 70.3671C72.2561 71.0901 71.6931 71.7891 71.2851 72.5391C68.3851 76.0541 64.551 78.9521 63.746 83.3521C63.5672 84.38 63.1939 85.3642 62.6461 86.2521C62.3241 83.1941 62.673 80.0291 64.577 77.7731C65.087 77.5881 65.7041 77.6671 66.0531 77.1301C66.1611 76.5941 66.696 76.0841 66.322 75.5211C66.1988 75.2435 66.0003 75.0059 65.749 74.8351C65.4977 74.6644 65.2036 74.5674 64.9 74.5551C64.6653 74.5692 64.4375 74.6403 64.2364 74.7622C64.0353 74.8842 63.867 75.0534 63.746 75.2551C63.5834 75.5834 63.5149 75.9503 63.5481 76.3152C63.5812 76.6801 63.7149 77.0286 63.9341 77.3221C63.6651 77.7221 63.5851 78.2071 63.1021 78.5271C62.8341 78.7421 62.5131 78.5011 62.4581 78.2061C62.4851 76.6491 62.1091 75.2541 62.5131 73.7781C65.5131 69.2711 68.2271 64.6561 70.9641 59.9341C70.8743 62.0034 70.5502 64.0559 69.9981 66.0521C69.2131 68.2734 68.051 70.3427 66.5631 72.1691C68.4151 70.7695 69.9743 69.0197 71.1521 67.0191C73.1641 63.2621 72.652 58.5411 72.681 54.0601C72.2053 54.9401 71.5788 55.7298 70.8301 56.3931C65.8931 59.9351 63.345 65.0331 62.272 71.2581C61.708 68.8961 62.0041 66.5351 61.6821 64.1201C61.4214 57.6791 61.5469 51.2282 62.0581 44.8021C64.2581 49.3361 64.5791 54.8111 64.2581 60.2571C64.8705 57.8669 65.3189 55.4376 65.6001 52.9861C66.0291 47.8861 62.8641 44.2651 61.8171 39.7861C60.9861 42.9521 59.1611 45.7421 58.1411 48.8541C57.3129 51.8579 57.5211 55.0532 58.7321 57.9241C60.8241 62.3771 61.2541 67.6081 61.0391 73.0561C59.6171 72.4111 59.1871 70.8811 58.1391 69.8361C57.9531 69.6211 57.9531 69.2181 57.6831 69.1361C55.35 66.2274 53.7408 62.8062 52.9881 59.1541C55.9221 61.4661 58.3201 64.3864 60.017 67.7141C60.071 66.6401 59.4261 65.8351 59.2921 64.8141C58.3261 63.2051 57.736 61.3251 56.262 60.0651C54.972 57.7571 51.9681 56.9531 50.8621 54.3781C50.736 57.4817 50.9068 60.5901 51.3721 63.6611C51.8841 65.6975 52.8109 67.6062 54.0943 69.2681C55.3778 70.9299 56.9903 72.309 58.8311 73.3191C59.7106 73.603 60.5107 74.0906 61.1661 74.7421C61.3328 76.1543 61.2876 77.5834 61.0321 78.9821C60.3881 78.8201 60.2531 78.0961 59.7441 77.6931C59.6911 77.0501 60.1441 76.1091 59.6101 75.5201C59.2411 75.1875 58.7656 74.9974 58.2691 74.9841C57.8391 75.1981 57.1951 75.3321 57.1151 75.8961C57.0099 76.1985 56.9842 76.5229 57.0404 76.8381C57.0966 77.1533 57.2329 77.4487 57.4361 77.6961C57.9211 78.0961 58.3771 78.0191 59.0481 78.0191C61.9711 81.2121 61.1391 86.2281 60.9791 90.8971C59.9756 89.9965 59.0835 88.9789 58.322 87.8661C56.203 84.3771 53.7071 81.0501 52.7961 76.9991C56.2148 79.0723 58.7542 82.3276 59.9331 86.1481C59.7247 84.5319 59.2439 82.9627 58.5111 81.5071C57.1111 77.5071 52.8761 75.3621 50.7841 71.7681L50.918 76.8121C50.9922 79.4232 51.6558 81.9837 52.8591 84.302C54.0625 86.6204 55.7745 88.6367 57.8671 90.2001C58.8591 91.0591 60.4151 91.0861 61.0331 92.3191C60.8181 93.5001 61.1941 94.8411 60.9791 96.1281C60.5241 96.3171 60.1201 95.6731 59.7441 95.3511C59.7146 94.9569 59.7793 94.5613 59.9331 94.1971C60.0312 93.9142 60.04 93.6078 59.9583 93.3197C59.8765 93.0315 59.7082 92.7754 59.4761 92.5861C58.9671 92.4001 58.3761 91.9691 57.8131 92.3731C57.458 92.5578 57.1752 92.8562 57.0099 93.2206C56.8446 93.585 56.8062 93.9944 56.9011 94.3831C57.3841 95.9121 59.476 95.2161 59.879 96.9601C61.489 100.475 60.7911 104.821 60.6571 109.195C56.8211 105.25 54.62 100.529 52.715 95.7261C52.768 95.2961 52.0441 94.7601 52.6611 94.5181C55.9081 97.0951 58.6981 100.26 59.6091 104.096C59.7711 102.916 59.1261 101.359 58.7781 100.045C57.8391 95.7801 53.1701 93.0961 50.9161 89.4731C50.6576 92.1762 50.6391 94.8968 50.861 97.6031C51.1334 100.025 51.9664 102.351 53.2939 104.395C54.6214 106.44 56.407 108.147 58.509 109.381C59.395 109.945 60.4671 110.106 61.1651 110.937C61.2778 112.607 61.2959 114.283 61.2191 115.955C60.4401 115.607 60.2251 114.694 59.7421 114.077C59.9174 113.816 60.0325 113.519 60.079 113.207C60.1255 112.896 60.1023 112.578 60.0111 112.277C59.9099 111.985 59.7169 111.732 59.4608 111.558C59.2048 111.384 58.8994 111.298 58.59 111.311C58.3195 111.29 58.0485 111.345 57.807 111.468C57.5654 111.592 57.3627 111.78 57.2211 112.011C57.0295 112.51 57.0105 113.058 57.1671 113.568C57.3122 113.88 57.5495 114.139 57.8469 114.312C58.1443 114.484 58.4876 114.561 58.8301 114.532C61.9431 117.859 60.9231 122.554 60.8431 127.357C56.8808 123.401 54.0943 118.422 52.7941 112.976C56.0131 115.876 59.072 119.388 60.064 123.493C60.0659 122.754 59.9105 122.022 59.608 121.347C58.803 116.647 55.7991 112.947 52.2081 109.434C51.6991 108.952 51.6991 108.119 51.0541 107.771C50.7311 108.736 51.1081 109.918 51.0011 111.044C50.3301 118.556 53.549 125.694 60.444 129.074C60.7285 130.342 60.8628 131.638 60.8441 132.937C60.8711 133.206 60.871 133.69 60.444 133.528C60.0371 133.253 59.7308 132.852 59.5712 132.387C59.4116 131.923 59.4074 131.419 59.5591 130.951C59.4689 130.655 59.3101 130.384 59.0955 130.16C58.8809 129.936 58.6166 129.766 58.3241 129.664C58.0322 129.574 57.7204 129.568 57.4257 129.649C57.131 129.73 56.8657 129.894 56.6611 130.121C56.5035 130.364 56.3982 130.638 56.3521 130.924C56.3059 131.21 56.3199 131.503 56.3931 131.783C56.5865 132.145 56.8779 132.445 57.2339 132.649C57.5899 132.853 57.9961 132.952 58.4061 132.936C59.3716 133.688 60.0679 134.733 60.3911 135.913C60.9011 139.323 60.7121 142.273 61.0351 145.76C60.9811 146.06 60.7351 146.46 60.3911 146.272C57.7891 144.001 55.7421 141.164 54.4071 137.979C53.6044 136.205 53.0188 134.341 52.663 132.426C55.9624 135.155 58.434 138.751 59.7991 142.809L59.4231 139.966C58.5931 135.378 55.1041 131.944 51.7501 128.509C51.4551 128.162 51.3501 127.652 51.0501 127.409C51.0501 131.409 50.5951 135.78 51.9631 139.322C53.0091 143.292 56.8731 146.779 60.5761 148.283C60.9255 148.882 61.0403 149.589 60.8981 150.268C60.9864 151.113 60.9224 151.967 60.7091 152.789C60.0921 152.899 59.5831 152.359 59.1001 152.01C59.0481 151.367 59.4751 150.723 59.2351 149.998C59.1028 149.764 58.9257 149.558 58.7138 149.393C58.5018 149.227 58.2593 149.105 58.0001 149.033C57.3291 148.733 56.7931 149.301 56.3361 149.57C56.1854 149.829 56.0996 150.12 56.0858 150.419C56.0721 150.719 56.1308 151.017 56.2571 151.288C56.5511 152.119 57.4901 152.201 58.1881 152.388C59.3411 153.433 60.7881 154.696 60.7631 156.388L60.7091 165.67C60.2257 165.477 59.8006 165.162 59.4751 164.756C56.5301 161.301 54.2097 157.36 52.6181 153.108V152.463C54.1012 153.554 55.4598 154.805 56.6691 156.193C58.1991 157.883 58.6811 160.057 59.6201 161.906C59.4937 160.717 59.3061 159.535 59.0581 158.365C58.3581 154.289 54.5501 151.874 52.0271 148.654C51.4911 148.305 51.4371 147.472 50.9271 147.232C50.7259 148.879 50.6453 150.538 50.6861 152.196C50.9001 156.969 52.402 161.611 56.4 164.696C57.768 166.063 59.4851 166.627 61.0421 167.596L61.8751 173.635C60.9891 173.607 60.451 172.749 59.754 172.294C59.432 171.729 60.1031 171.301 60.1301 170.736C60.0988 170.133 59.8501 169.561 59.4301 169.127C58.9592 168.806 58.3854 168.672 57.8211 168.752C57.57 168.804 57.3366 168.92 57.1438 169.089C56.9509 169.258 56.8053 169.474 56.7211 169.716C56.6174 170.024 56.5876 170.353 56.6342 170.675C56.6807 170.996 56.8023 171.303 56.9891 171.569C57.1629 171.79 57.3887 171.964 57.6463 172.076C57.9038 172.188 58.1851 172.234 58.465 172.211C60.1082 173.755 61.6583 175.395 63.1071 177.123C65.0639 181.018 68.1375 184.241 71.9351 186.38C72.9001 186.808 73.6781 187.773 74.7521 187.935C74.2439 186.014 73.6255 184.124 72.9 182.274C70.619 181.474 68.3111 180.503 66.7831 178.224M71.21 184.524C70.029 183.182 68.1781 182.349 67.5341 180.714H67.8021C69.1013 181.837 70.5794 182.735 72.1751 183.37C72.4787 183.891 72.6362 184.485 72.6311 185.088C72.1014 185.095 71.5904 184.893 71.2091 184.525" fill="white"/>
<path fill-rule="evenodd" clip-rule="evenodd" d="M185.055 57.03C181.625 60.3341 179.445 64.7236 178.884 69.453C178.749 69.695 178.911 70.153 178.508 70.153C177.971 68.786 178.186 67.31 177.971 65.968C178.186 58.912 177.353 52.231 177.917 45.308C179.955 49.52 181.297 54.7 180.225 59.529C181.382 56.72 181.717 53.64 181.191 50.6479C180.791 46.6229 178.722 43.2419 177.273 39.6479L176.897 40.348C176.653 43.03 175.152 45.365 174.509 47.94C172.981 51.991 174.133 56.66 175.986 60.174C177.514 63.608 176.817 68.117 177.086 71.899C176.926 72.142 177.166 72.758 176.631 72.623C173.131 68.5632 170.222 64.029 167.991 59.155C167.899 59.0358 167.85 58.8897 167.85 58.7395C167.85 58.5892 167.899 58.4431 167.991 58.324C171.184 60.873 174.484 63.851 176.039 67.338C175.289 61.919 170.808 58.3239 166.839 54.6479C166.539 54.2479 166.463 53.682 166.007 53.548C165.39 60.979 167.86 67.312 173.412 72.034C174.459 72.834 175.692 73.269 176.633 74.152C177.196 75.629 176.607 77.345 176.498 79.17C175.37 78.686 175.854 77.561 175.72 76.675C175.533 76.219 175.291 75.575 174.702 75.521C174.479 75.4489 174.242 75.4283 174.009 75.4607C173.777 75.4931 173.555 75.5776 173.36 75.708C173.055 75.9352 172.838 76.2614 172.747 76.6308C172.657 77.0001 172.697 77.3896 172.862 77.7324C173.027 78.0752 173.305 78.35 173.651 78.5098C173.996 78.6695 174.386 78.7042 174.754 78.608C177.705 81.291 176.391 85.959 176.311 90.063C172.489 86.043 169.611 81.2223 167.885 75.951C171.053 78.551 174.137 81.559 175.667 85.099C174.567 79.546 169.2 75.844 166.329 71.121C166.159 72.9694 166.177 74.8301 166.382 76.675C166.653 81.3392 168.709 85.7201 172.124 88.909C173.438 90.309 175.21 90.6 176.579 91.86L176.257 96.6909C175.935 95.9659 174.431 95.483 175.291 94.517C175.36 94.232 175.354 93.9339 175.274 93.6518C175.194 93.3697 175.042 93.1131 174.834 92.907C174.626 92.7026 174.367 92.5578 174.084 92.4874C173.801 92.4171 173.504 92.4238 173.225 92.507C172.907 92.6818 172.647 92.9448 172.476 93.2642C172.305 93.5836 172.23 93.9458 172.26 94.307C172.419 95.488 173.842 95.488 174.649 95.807C177.33 99.001 176.177 104.045 176.364 108.043L175.664 108.364C173.791 106.342 172.186 104.088 170.888 101.657C170.566 101.257 170.78 100.638 170.244 100.315C169.544 98.142 168.044 96.215 167.802 93.929C169.653 95.755 172.122 97.874 173.358 100.235C174.026 101.013 174.188 102.221 175.019 102.757C174.779 101.328 174.279 99.9546 173.544 98.706C172.202 94.706 167.668 92.239 166.193 88.321C166.038 89.9708 165.975 91.6281 166.004 93.285C166.085 99.296 168.097 105.358 173.544 108.552C174.402 109.223 176.011 108.928 176.255 110.296C176.43 112.18 176.403 114.078 176.174 115.956C175.839 115.856 175.547 115.648 175.341 115.366C174.002 114.32 175.262 112.845 174.511 111.637C174.296 111.391 174.026 111.199 173.722 111.077C173.419 110.956 173.091 110.908 172.766 110.937C172.231 111.072 171.882 111.716 171.666 112.225C171.578 112.543 171.578 112.879 171.668 113.196C171.757 113.514 171.932 113.8 172.174 114.025C173.757 113.757 174.401 115.339 175.074 116.333C176.954 119.31 176.094 123.333 175.852 127.145C173.952 125.213 172.82 123.013 171.346 120.845C170.164 118.564 168.795 116.392 167.803 114.03C167.67 113.762 167.562 113.252 167.884 113.065C169.467 114.565 170.89 115.936 172.313 117.573C173.404 119.193 174.33 120.919 175.075 122.725C174.819 121.243 174.349 119.806 173.681 118.459C172.231 114.487 167.938 111.643 166.195 107.834C166.056 108.775 166.011 109.726 166.06 110.676C165.643 114.316 166.36 117.997 168.113 121.214C169.865 124.432 172.569 127.03 175.853 128.655C176.279 130.574 176.369 132.553 176.121 134.503C175.421 134.341 175.154 133.564 174.566 133.16C174.003 132.598 174.271 131.821 174.566 131.229C174.571 130.959 174.516 130.691 174.404 130.446C174.292 130.2 174.127 129.982 173.921 129.808C173.713 129.632 173.464 129.51 173.197 129.454C172.929 129.397 172.653 129.408 172.391 129.486C171.991 129.701 171.398 129.994 171.346 130.505C171.253 130.867 171.265 131.248 171.379 131.603C171.493 131.959 171.704 132.276 171.99 132.517C173.6 132.329 174.027 134.074 174.89 135.012C176.849 138.044 176.259 141.934 175.99 146.145C172.462 142.592 169.607 138.429 167.564 133.858C167.456 133.564 167.164 133.134 167.564 132.893C170.139 135.145 173.464 137.374 174.97 140.486C174.766 139.689 174.441 138.929 174.005 138.231C172.098 134.477 168.182 131.577 165.954 128.063C165.686 134.263 166.866 139.627 170.654 144.163C172.237 145.799 174.254 146.605 175.854 148.026C176.096 149.842 176.096 151.683 175.854 153.499C175.371 153.553 175.318 152.99 174.97 152.799C173.656 151.862 175.505 150.413 174.245 149.446C173.942 149.208 173.588 149.042 173.211 148.964C172.833 148.885 172.443 148.894 172.07 148.991C171.535 149.043 171.159 149.634 171.026 150.091C170.951 150.397 170.954 150.716 171.033 151.021C171.113 151.325 171.266 151.606 171.481 151.836C171.733 152.061 172.034 152.223 172.36 152.312C172.686 152.4 173.029 152.411 173.36 152.345C174.404 153.186 175.163 154.33 175.533 155.619C175.929 159.072 175.884 162.562 175.398 166.004C171.966 162.139 169.598 157.713 167.35 153.313C167.323 152.913 166.894 152.536 167.243 152.16C168.558 153.233 169.843 154.599 171.214 155.701C172.589 157.303 173.761 159.069 174.703 160.958C174.568 160.1 174.218 159.295 174.003 158.464C172.74 154.225 167.75 151.464 165.684 147.436C165.684 151.596 165.656 156.344 167.67 159.936C169.279 163.289 172.47 165.758 175.342 167.984C175.369 170.24 175.342 172.171 174.242 174.049C173.785 173.968 173.785 173.378 173.542 173.083C173.434 172.116 172.281 171.283 173.033 170.292C173.301 169.676 172.871 169.164 172.495 168.682C172.048 168.375 171.505 168.241 170.967 168.305C170.456 168.575 169.893 168.736 169.678 169.327C169.579 169.661 169.57 170.014 169.65 170.353C169.73 170.692 169.897 171.004 170.135 171.258C170.61 171.573 171.178 171.714 171.745 171.658C172.225 172.213 172.568 172.874 172.745 173.586C172.922 174.298 172.928 175.043 172.764 175.758C171.772 179.166 168.07 181.527 165.091 182.843C164.596 184.456 164.193 186.096 163.883 187.754C167.489 186.191 170.65 183.757 173.083 180.67C174.583 177.478 177.297 174.928 179.524 172.11L181.133 171.977C181.595 171.66 181.95 171.211 182.153 170.688C182.207 170.408 182.201 170.121 182.136 169.843C182.072 169.566 181.949 169.306 181.777 169.079C181.454 168.828 181.068 168.67 180.661 168.622C180.254 168.574 179.842 168.639 179.47 168.809C178.77 169.079 178.637 169.803 178.558 170.42C179.358 171.763 177.698 172.566 176.949 173.506C176.761 173.586 176.438 173.667 176.305 173.451C176.898 171.192 177.284 168.885 177.458 166.556C178.129 164.303 179.928 162.506 181.081 160.437C182.663 158.159 183.602 155.557 185.319 153.489C185.168 158.472 183.336 163.257 180.119 167.065C183.658 164.564 186.083 160.783 186.879 156.523C187.377 153.175 187.566 149.788 187.444 146.405C186.157 149.383 183.151 151.423 181.193 154.187C180.217 155.727 179.425 157.375 178.831 159.098C178.431 159.982 178.401 161.083 177.649 161.592C177.676 158.535 177.676 155.313 179.149 152.792C179.498 151.908 180.249 152.204 181 152.15C181.4 151.907 181.912 151.586 181.966 151.103C182.021 150.779 182.009 150.448 181.93 150.129C181.852 149.811 181.709 149.511 181.511 149.25C181.291 149.062 181.034 148.925 180.756 148.846C180.478 148.767 180.186 148.75 179.901 148.795C179.626 148.873 179.379 149.027 179.188 149.241C178.998 149.454 178.873 149.718 178.828 150C179.041 150.619 179.003 151.297 178.723 151.889C178.443 152.482 177.942 152.94 177.328 153.168L177.65 146.459C179.503 142.998 181.943 139.805 183.715 136.29C184.494 135.111 185.029 133.69 186.344 133.018C185.727 137.954 184.198 142.57 180.683 146.273C182.691 144.815 184.418 143.006 185.783 140.934C187.643 136.522 188.416 131.727 188.036 126.954C185.674 131.327 180.497 134.547 179.074 139.324C178.644 140.29 178.725 141.443 177.921 142.224C177.868 138.871 177.705 135.41 180.04 132.888C180.685 132.619 181.569 132.941 181.972 132.111C182.123 131.745 182.16 131.342 182.079 130.954C181.998 130.567 181.802 130.213 181.517 129.938C181.255 129.763 180.958 129.648 180.647 129.601C180.336 129.555 180.018 129.578 179.717 129.669C178.456 130.369 179.1 131.817 179.208 132.835C179.026 133.199 178.761 133.515 178.434 133.758C178.108 134.001 177.729 134.165 177.328 134.235C177.25 132.238 177.322 130.237 177.544 128.251C180.306 123.551 182.857 118.751 185.781 114.084C185.618 118.727 184.493 123.153 181.515 126.721C184.896 124.28 186.585 120.497 187.256 116.608C187.663 114.134 187.86 111.629 187.845 109.122C188.02 108.581 188.02 107.998 187.845 107.457C185.245 111.589 180.845 115.105 179.394 119.746C178.913 120.873 178.86 122.24 177.866 122.911C177.517 119.827 177.866 116.526 180.038 114.219C180.522 114.14 181.058 114.166 181.407 113.709C181.563 113.51 181.677 113.282 181.742 113.037C181.806 112.793 181.82 112.538 181.783 112.288C181.729 111.697 181.083 111.456 180.683 111.134C180.362 111.028 180.015 111.025 179.693 111.126C179.37 111.227 179.087 111.426 178.883 111.696C178.673 112.498 178.769 113.349 179.151 114.084L177.651 115.829C177.405 113.628 177.387 111.407 177.599 109.203C181.087 104.642 183.448 99.543 186.558 94.714C186.629 99.9813 184.669 105.074 181.086 108.935C181.729 108.745 182.213 108.022 182.749 107.726C186.103 104.078 188.222 99.732 188.089 94.714C188.352 92.6415 188.415 90.5485 188.276 88.464C188.058 88.7854 187.87 89.1258 187.714 89.481C185.593 92.298 183.071 95.115 180.814 97.854C180.005 99.1786 179.398 100.616 179.014 102.12C178.665 103.191 178.614 104.4 177.78 105.258C177.54 102.253 177.351 98.068 179.793 95.68C180.082 95.7219 180.377 95.6978 180.656 95.6097C180.934 95.5215 181.189 95.3716 181.402 95.171C181.911 94.902 181.702 94.231 181.832 93.749C181.77 93.5136 181.659 93.2939 181.506 93.1043C181.354 92.9147 181.163 92.7596 180.946 92.649C180.223 92.22 179.632 92.81 179.069 93.159C178.884 93.4817 178.787 93.8471 178.787 94.2189C178.787 94.5908 178.884 94.9562 179.069 95.279C178.947 95.5536 178.747 95.7864 178.494 95.9484C178.241 96.1103 177.946 96.1944 177.646 96.19C177.601 94.1649 177.691 92.139 177.916 90.126C180.947 86.049 183.281 81.649 186.1 77.517C185.889 79.752 185.43 81.9566 184.731 84.09C183.761 86.2186 182.574 88.2417 181.19 90.127C186.851 85.459 188.139 78.565 188.085 71.455C187.62 72.2212 187.08 72.94 186.475 73.601C182.798 77.0243 179.898 81.1965 177.97 85.836C177.943 83.367 177.487 80.121 179.713 78.298C180.251 78.134 180.893 78.349 181.268 77.84C181.455 77.5691 181.585 77.2628 181.65 76.9398C181.715 76.6169 181.713 76.2841 181.644 75.962C181.539 75.562 181.082 75.398 180.759 75.21C180.421 75.0949 180.053 75.1019 179.72 75.2298C179.387 75.3577 179.109 75.5984 178.935 75.91C178.841 76.1355 178.793 76.3773 178.793 76.6215C178.793 76.8656 178.841 77.1074 178.935 77.333C179.418 78.003 178.692 78.326 177.862 78.621C177.942 76.795 177.562 74.649 178.424 73.067C181.348 68.423 183.978 63.677 186.983 59.115C187.118 61.155 186.366 63.006 185.91 64.915C185.239 67.624 183.55 70.039 181.966 72.238C184.157 70.2416 185.899 67.8034 187.079 65.0842C188.258 62.3651 188.848 59.4267 188.809 56.463C188.834 55.309 189.05 54.021 188.593 53.109C187.557 54.5463 186.37 55.8682 185.052 57.052M169.034 183.316C168.306 183.911 167.503 184.407 166.645 184.792C166.457 182.834 168.845 182.617 169.92 181.519C170.67 180.821 171.468 180.175 172.308 179.586C171.77 181.225 170.214 182.001 169.034 183.316Z" fill="white"/>
<path fill-rule="evenodd" clip-rule="evenodd" d="M93.6169 182.194L82.8849 181.951C82.9045 180.918 82.8322 179.886 82.6689 178.866C83.0189 176.21 81.8689 173.097 83.7159 171.192C83.6099 171.004 83.878 170.816 83.959 170.602C84.066 170.457 84.1143 170.277 84.0942 170.098C84.0742 169.919 83.9873 169.755 83.851 169.637C82.08 169.182 80.0679 170.066 78.4319 169.127C77.7751 170.448 77.2541 171.832 76.877 173.258C77.439 173.984 78.513 173.714 79.777 174.224C79.161 174.815 78.3549 175.19 77.7919 175.834C78.2381 179.636 78.3456 183.47 78.113 187.291C81.8482 187.054 85.5952 187.072 89.3279 187.345C89.5417 188.698 89.5123 190.078 89.241 191.421C88.221 193.032 86.2349 192.821 84.3569 193.272L83.632 197.324C83.984 197.331 84.3355 197.295 84.679 197.217C87.0264 196.444 89.3285 195.539 91.574 194.507C94.579 192.387 93.5599 188.658 93.6929 185.491C93.6669 184.391 94.312 183.132 93.614 182.191M91.041 193.678C89.458 194.642 87.822 195.742 85.89 195.796C85.246 193.219 88.332 194.347 89.431 193.355C89.942 193.055 90.6929 192.925 90.8539 192.255C91.1641 190.204 91.2719 188.127 91.176 186.055C87.419 185.867 83.824 186.136 80.176 186.136L80.5519 181.436C80.2829 179.718 80.606 177.948 80.043 176.204C80.069 175.077 82.053 174.004 80.499 172.985C79.962 172.877 78.6989 173.065 79.0759 172.152C79.2799 171.605 79.5902 171.103 79.989 170.676C80.872 170.945 82.002 170.329 82.564 171.186C80.872 174.808 82.403 179.396 81.65 183.42C81.65 183.82 81.061 184.36 81.65 184.655C85.25 184.36 89.109 184.387 92.65 184.387C92.219 187.767 93.668 191.416 91.038 193.671" fill="white"/>
<path fill-rule="evenodd" clip-rule="evenodd" d="M157.9 181.872C157.471 181.738 157.176 181.149 156.8 181.04C155.896 182.679 155.159 184.405 154.6 186.191C154.895 187.507 156.692 186.54 157.5 187.291C157.58 188.821 157.151 190.242 157.124 191.665C158.466 191.343 159.724 190.806 161.042 190.376C161.19 188.729 161.468 187.096 161.873 185.492C162.142 184.581 162.946 183.508 162.464 182.462C161.15 181.791 159.243 182.462 157.902 181.87M160.076 189.356C159.728 189.409 159.432 189.756 159.057 189.544C158.896 188.605 159.486 187.72 159.191 186.699C158.681 186.188 157.691 186.727 157.313 185.999C157.415 185.277 157.701 184.593 158.145 184.014L160.587 184.443L160.908 184.981C160.545 186.421 160.268 187.881 160.077 189.354" fill="white"/>
<path fill-rule="evenodd" clip-rule="evenodd" d="M146.555 157.214C146.565 157.087 146.549 156.959 146.508 156.839C146.467 156.718 146.4 156.608 146.314 156.514L145.992 156.324C144.865 155.924 144.034 156.861 143.416 157.532C144.168 157.586 144.544 156.672 145.267 156.645C145.512 156.615 145.761 156.651 145.988 156.751C146.214 156.85 146.41 157.008 146.554 157.209" fill="white"/>
<path fill-rule="evenodd" clip-rule="evenodd" d="M138.824 156.57C137.268 156.786 138.475 158.797 136.973 159.012C136.221 159.253 135.256 159.146 134.639 159.549C135.596 159.764 136.597 159.652 137.483 159.23C138.718 159.04 137.725 157.592 138.583 157.083C139.383 156.707 140.166 157.216 140.891 157.216C140.247 156.867 139.682 156.385 138.824 156.572" fill="white"/>
<path fill-rule="evenodd" clip-rule="evenodd" d="M138.822 161.477L139.412 161.398C140.003 161.318 140.297 160.674 140.432 160.189C140.519 159.98 140.528 159.747 140.46 159.531C140.391 159.315 140.249 159.131 140.057 159.01C139.601 159.547 140.324 159.923 140.19 160.51C139.895 161.048 139.305 161.21 138.822 161.476" fill="white"/>
</g>
<defs>
<radialGradient id="paint0_radial_158_301" cx="0" cy="0" r="1" gradientUnits="userSpaceOnUse" gradientTransform="translate(136.544 125.329) scale(84.44 84.4454)">
<stop stop-color="#0089C9"/>
<stop offset="0.576" stop-color="#0079C1"/>
<stop offset="1" stop-color="#1A6DA8"/>
</radialGradient>
</defs>
</svg>
