<svg xmlns="http://www.w3.org/2000/svg" width="60.375" height="60.375" viewBox="0 0 60.375 60.375">
  <g id="Group_24374" data-name="Group 24374" transform="translate(0 0.375)">
    <path id="Path_21283" data-name="Path 21283" d="M0,0H60V60" fill="#fff" stroke="#202020" stroke-width="0.75" opacity="0"/>
    <path id="Path_21284" data-name="Path 21284" d="M0,0H60V60" fill="#fff" stroke="#202020" stroke-width="0.75" opacity="0"/>
    <g id="Path_18915" data-name="Path 18915" transform="translate(6.082 9.228)">
      <path id="Path_21285" data-name="Path 21285" d="M31.662,12.3C22.025,12.3,6.5,23.339,8.244,34.62S21.09,51.679,31.662,51.679s20.426-6.29,20.426-17.128S41.309,12.3,31.662,12.3Z" transform="translate(-8.109 -12.304)" fill="#f3f8ff" fill-rule="evenodd"/>
    </g>
    <g id="Group_19262" data-name="Group 19262" transform="translate(12.239 15.263)">
      <rect id="Rectangle_7540" data-name="Rectangle 7540" width="34.652" height="27.508" rx="3.886" transform="translate(0.136 1.439)" fill="#fff"/>
      <g id="Group_19261" data-name="Group 19261">
        <path id="Path_21286" data-name="Path 21286" d="M51.77,38.983l-.08-.141c0-.148.009-.441.041-.387-.055-.551-.035.094-.086-.226a18.252,18.252,0,0,1,.094-2.127c-.062-.256-.047.682-.09-.079.138-.217-.023-.88.04-1.531.071.2.034.818.1.166a11.308,11.308,0,0,1,0-1.818,14.185,14.185,0,0,1-.072-2.117c.032.059.052-1.734.087-2.592l.016.026a8.915,8.915,0,0,1-.1-1.7c.058.026.081.142.106.491v-.605a4.1,4.1,0,0,1-.058-.725l.072.152c0-.4-.023-.809-.037-1.244a3.228,3.228,0,0,0-.291-1.452c-.044-.01.014.2,0,.293-.01.037-.018.049-.042.026a2.3,2.3,0,0,0-.265-.487c.03,0,.081.033.169.166-.052-.082-.2-.274-.328-.421a2.164,2.164,0,0,1,.322.32c-.262-.418-.184-.185-.445-.466.046-.038-.2-.215-.13-.209a4.148,4.148,0,0,1,.365.34,3.424,3.424,0,0,0-.922-.74c.025.049-.022.05-.342-.026a3.328,3.328,0,0,1-.521-.1c-.029-.021-.017-.045-.25-.058-.2.036-.71,0-.723.077a1.027,1.027,0,0,1-.371-.058c-.417.034-1.948.01-1.478.092l.107.005-.068,0c-.7.045-1.366.012-2.13.026a.292.292,0,0,0-.2.3.3.3,0,0,0,.254.268l.541.014c.35.005.7.007,1.036,0l0,.026c.81-.029,1.8-.017,2.38-.074.239,0,.565.048.463.079a4.335,4.335,0,0,1,.669,0,1.516,1.516,0,0,1,.758.33c-.254-.139-.219-.094-.2-.084a2.255,2.255,0,0,0-.339-.143,1.746,1.746,0,0,1,.683.431,2.2,2.2,0,0,1,.485.7c-.08-.114-.041.02-.009.224a2.844,2.844,0,0,1,.024.346l.007.357c.014-.185.036-.385.04-.547.026.4.008.8.006,1.171l-.088-.206c-.106,1.645.182,2.968,0,4.22.062.436.044-.893.115-.5-.012.757-.137,1.546-.138,1.783-.048,1.037.128.967.1,2.053.031-.139.115-.27.144.541-.011.758-.131.932-.156.453,0-.182.007-.269.018-.262-.012-.244-.025-.566-.059-.266l.032.1c-.032.376-.028,1.418-.079,1.173.029.573.051.245.067-.179-.046.972,0,1.518-.032,2.518.017-.159.054-.305.054-.147a11.675,11.675,0,0,0,.073,1.639c-.047.565-.114-.2-.074.8-.032.611-.083.129-.109-.114a20.466,20.466,0,0,1-.05,2.224l-.025-.481c.015.287.014.523.014.762l.062-.274a2.052,2.052,0,0,1-.037.515c.041.29.1-.223.16.354A8.7,8.7,0,0,1,51,43.229c.028-1.182-.083.131-.1-.87.01.193.01.428,0,.712-.009.042-.017-.04-.022-.118-.074,1.132.094.521.091,1.693-.047-.149-.088.272-.079.463,0-.472.078-.226.114.208a11.892,11.892,0,0,0,.023,1.21l.017-.449A6.568,6.568,0,0,1,51.1,47.13c-.036.045-.025-.476-.041-.289a3.34,3.34,0,0,1-.021.952,2.261,2.261,0,0,1-.449.91c-.258.21-.08-.031-.306.133a1.143,1.143,0,0,1-.724.3c-.189.012-.464-.02-.94.008.275.063.323.047-.349.109l.785-.023a2.4,2.4,0,0,0,.709-.082,1.7,1.7,0,0,1-.427.1l-.5.047a5.845,5.845,0,0,0,.692-.03,2.339,2.339,0,0,0,.488-.143c-.386.2-.368.144-.143.149a8.3,8.3,0,0,1-.936.067,7.469,7.469,0,0,1-1.056.007l.023-.156c-1.128-.069-2,.08-3.468.041l.471.027c-.2.061-.9.008-1.379.034.044-.053-.252-.071-.454-.1a9.16,9.16,0,0,0-1.2.1l-.654-.069c-1.182-.028-1.349.148-2.486.13.343-.056-.174-.093.587-.134a3.029,3.029,0,0,0-.727.026c-.221-.032-1.052.07-1.4.021a2.2,2.2,0,0,1-.638.073c-.047-.01,0-.026,0-.026,0,.026-.667.035-.295.092-1.168-.162-3.266.012-4.284-.128l-2.578.038c.048-.016,0-.026.145-.02-1.037-.049-.638.149-1.817.1-.6-.084.626-.046.25-.077a16.9,16.9,0,0,0-2.219-.077l.193-.011c-.608-.058-1.481.065-2.473.053,0,0,.048-.015.006-.026-.679.087-1.963.116-2.917.14.3-.067.433-.035.253-.1-.428.01.125.11-.729.128a5.048,5.048,0,0,1-.975-.141l.805,0a2.94,2.94,0,0,0-.729-.036,1.636,1.636,0,0,1-.667-.051l.058-.028a1.908,1.908,0,0,1-.933-.56,1.5,1.5,0,0,1-.4-1.121l-.029.134c-.107-.719.056-.606-.021-1.328l.1-.218c-.025-.478-.1-1.675-.12-2.533.077.486.116,1.489.162,2.111,0-.475-.007-1.612-.058-1.859a5.06,5.06,0,0,1,.02.62,16.836,16.836,0,0,1-.12-2.291c.2.167.05-2.462.207-3.148-.074-1.671.032-3.315.02-5.262-.157.691,0-.569-.165-.449a5.4,5.4,0,0,1,0-.664l-.007.093.007-.1h0l.1-1.373c.046-.325.035.431.071.39a5.73,5.73,0,0,1,.111-1.074c-.057.135-.082-.345-.06-.911l-.074.8c-.086-1.387.135-1.2.05-2.6l.05.442c-.03-.718,0-2.648-.128-3.351.019-.127.063-.295.074.021v-.659a1.751,1.751,0,0,1,.082-.559,1.619,1.619,0,0,1,.7-.888,1.6,1.6,0,0,1,.531-.2,3.454,3.454,0,0,1,.595-.032c.411,0,.793,0,1.126.022l-.13.039a5.673,5.673,0,0,1,.958-.034c-.021.016-.129.039.019.041a11.568,11.568,0,0,1,1.274-.046l-.362.044c1.673.051,2.567-.108,3.971-.135a7.977,7.977,0,0,0,1.969.173l-.022.017c1.948.014,3.309-.1,5.114-.142.139.016.3.029.487.038l.29.014.076,0a.733.733,0,0,0,.119,0,.5.5,0,0,0,.337-.2.5.5,0,0,0-.175-.736.512.512,0,0,0-.215-.058l-.1,0-.18,0-.755-.006c-1.034-.007-2.152-.006-3.052-.041.275.021-.045.091-.365.1-.422-.023-1.168.08-1.1-.025h.151a9.78,9.78,0,0,0-1.864-.08l-.112.14c-1.773-.2-4.645.074-5.613-.107-.427.035-.958.034-1.381.069l.023-.074-.8-.012a2.826,2.826,0,0,0-.81.11,2.622,2.622,0,0,0-1.512,1.218,2.347,2.347,0,0,1,.149-.317,1.715,1.715,0,0,0-.369,1c-.021.285.02.577.029.945l-.111.23c0,1.442-.1,2.9,0,4.325-.016-.023-.048-.065-.052-.3,0,.679-.076,2.626.077,2.379a12.139,12.139,0,0,0,.035,2.266l-.074-.122a9.237,9.237,0,0,1,.145,1.6c-.009.217-.059.19-.04-.1-.038.724.07.565.031,1.443l-.047-.327a4.648,4.648,0,0,0,.074,1.1,6.577,6.577,0,0,1-.085,1.525,3.286,3.286,0,0,1,.076.949c-.025.059-.041-.1-.049-.181-.049,1.247.085,1.854.014,2.711a.234.234,0,0,0-.044.145c0-.99.006-1.788.011-1.713-.067,0-.08.8-.172.164a23.7,23.7,0,0,1,.13,2.52.646.646,0,0,1-.023.1l-.007-.081a4.348,4.348,0,0,0,.01.493c-.01.249-.019.407-.02.646a9.325,9.325,0,0,0-.033,1.316c.074-.033.062.489.124,0-.005.063-.009-.076-.012-.341l-.007-.17.006.027,0-.992a4.775,4.775,0,0,1,.028,1.085c.048.2.1.431.119.557-.1.546-.159,1.6-.223,1.745a2.612,2.612,0,0,0,.925,1.947A2.168,2.168,0,0,0,19.006,50a1.334,1.334,0,0,1,.528.062c-.2.014-.436.013-.548.031a17.871,17.871,0,0,0,2.219-.11c.873.043-.49.089.709.073l-.161.03c2.359.155,3.836-.248,6.452-.049a1.438,1.438,0,0,1-.309-.035c2.982.088,6.146-.083,9.088.057a7.159,7.159,0,0,0,1.437-.081l.182.079.873-.091c1.238-.067,2.144.195,3.71.068l-.2-.054a13.742,13.742,0,0,1,1.689.03,1.041,1.041,0,0,1,.4-.028l.017.041,1.382-.071c1.072.031-.167.166,1.4.173a6.161,6.161,0,0,0,1.437-.148,1.932,1.932,0,0,1-.617-.067l.531-.022a.308.308,0,0,1,.022-.023h.085a2.307,2.307,0,0,0,2.3-2.3V44.9l.02.064-.02-.189v-.812a.761.761,0,0,1,.035.261c.054-.59-.039-.523.021-1.03.01-.055.015-.03.02.022l-.033-.577c.023.113.077-.1.061.258.064-1.034-.082-1.668,0-2.058l.007.086c-.027-1.072-.058-.62-.112-.772V39.48ZM16.389,44.814a1.129,1.129,0,0,1,.019-.391l.009.464.009.031A.313.313,0,0,1,16.389,44.814Zm35.256-1.85a.653.653,0,0,1-.011.071v-.321C51.638,42.795,51.642,42.872,51.646,42.964Z" transform="translate(-16.319 -20.657)" fill="#202020"/>
        <path id="Path_21287" data-name="Path 21287" d="M40.936,24.809l-.112.025c-.017.188-.091.389.016.572-.016,0-.049,0-.055-.035-.007.09-.033.359.112.3-.1.016.018.2.081.287H40.9c.113.064.139.061.193.169,0,.029-.05.038-.041,0-.014.1.085.053.076.173l-.056-.029c.02.1.039.082.11.115a.163.163,0,0,1-.012.213c.042,0,.111.029.112.089a.044.044,0,0,1-.053,0c.006.174.176.185.155.316-.021.013-.029.024-.031.036a1.264,1.264,0,0,1-.087-.206c-.062.026-.027.128-.149.088.085.059.247.141.263.247a.093.093,0,0,1-.015.023l-.011-.006a.08.08,0,0,0,.038.053.26.26,0,0,0,.027.082c-.043.038.037.12.062.167.061-.043.086.022.1-.065,0,.01-.013,0-.034-.031a.048.048,0,0,0-.018-.015h.007l-.071-.108c.054.017.1.037.1.107l.139,0c-.052.114-.026.263-.063.313.133.1.245.294.423.271.043.021,0,.064,0,.091-.028-.01-.047-.035-.071-.031.087.043.19.189.274.137.045.112-.109.018.011.117l-.037.007a.433.433,0,0,0,.328.243.426.426,0,0,1,.347.252c-.011-.024-.017-.035-.012-.052.275.291.706.338,1.01.588.093.064.125.009.2-.013l0,.084.135-.058c.166-.032.218.271.447.172l-.016-.056c.07.021.229,0,.209.062.008-.008.03-.052.055-.019l0,.041a1.234,1.234,0,0,0,.182-.054c.135.037-.034.164.17.182.078-.012.217-.11.188-.14-.03,0-.076-.03-.077-.072l.067-.018,0-.023h.011a4.405,4.405,0,0,0,.775-.073l0,.021.019-.023c.02,0,.041-.005.06-.01h.031c0,.013,0,.027-.016.035.083.039.055-.053.13-.009a.012.012,0,0,1,0,.02l.063-.05c-.008.026.03.072-.017.068.145.028.183-.132.254-.064l-.009.009c.121-.066.058-.079.059-.136.026-.008.052-.02.079-.029l.1.107-.01-.082c.018,0,.055-.01.06.022.046-.075-.023-.028,0-.091.113.041.213-.123.283-.017,0-.07-.1-.006-.028-.085.083.112.089-.069.19-.048.01.074-.079.075.025.1-.009-.127.158-.047.207-.107a.054.054,0,0,1,.01-.065.074.074,0,0,1-.01.065.165.165,0,0,0,.034.04c.018-.007-.013-.073-.023-.105.036-.043.125-.076.183-.137.014.036.209-.083.319-.122l.007.014c-.043-.092.062-.139.109-.211a.11.11,0,0,1,.021.124l.058-.053a.129.129,0,0,1,.031-.106l.034.067c.074-.075.1-.2.226-.262-.03-.035-.109-.051-.141-.1.016-.015.029-.032.044-.048a.057.057,0,0,1,.017.056c0-.012.007-.052.034-.059l.008.083c.059-.026-.016-.059.02-.09.038.036.051,0,.076.032,0,.013-.044.016-.041.044a.221.221,0,0,1,.154-.052c-.025-.016-.052-.046-.03-.08.066-.079.071.015.132-.014-.009-.04.06-.071,0-.121.019-.024.05-.006.074,0,.005-.065.143-.208.04-.208l-.012.007,0-.009c.047-.178.233-.278.3-.442l.023.013a.812.812,0,0,0,.07-.3c.013-.027.074-.044.1-.02a.262.262,0,0,1,.076-.188c.014.092.047-.011,0,.089.056-.088.1-.1.076-.226.049.059.106-.046.1-.1l-.07.053a.516.516,0,0,1,.054-.143l.074.052c.161-.184-.07-.418.132-.541-.051-.067-.06.107-.122.043.026-.092.166-.174.171-.205.067-.13-.1-.142-.058-.278a.1.1,0,0,1-.14-.081c.016-.094.137-.11.159-.047,0,.023-.009.035-.019.032.01.033.021.076.056.039l-.03-.015c.035-.047.038-.184.087-.149-.026-.076-.049-.034-.068.02a1.268,1.268,0,0,0,.038-.329c-.017.022-.053.041-.053.021.029-.192-.063-.083-.083-.209.044-.076.115.018.068-.109.028-.082.082-.025.109.006-.062-.115.01-.229.014-.3l.035.06a.258.258,0,0,1-.029-.1l-.056.046c0-.038,0-.07.026-.073-.046-.031-.1.045-.165-.019.022-.054-.054-.14.02-.173,0,.158.08-.035.115.095a.146.146,0,0,1-.014-.094c.008-.008.018,0,.024.01.037-.163-.108-.048-.144-.2a.06.06,0,0,0,.061-.08c.015.062-.068.049-.117,0,.011-.105-.052-.1-.061-.146l0,.062c-.05-.006-.056-.055-.094-.112.033-.017.045.049.052.022-.1-.043.022-.187-.067-.268.013-.058.08-.037.085-.085-.1-.091.007-.146-.091-.242-.041.06-.025.058-.118.005l.13.167-.14-.082c.024.055.095.1.1.14-.07-.038-.055-.037-.09.01.05-.113-.121-.125-.1-.238l.141-.066c0-.169-.191-.2-.257-.379l.009.067c-.066.011-.068-.1-.122-.135.047-.023.042-.067.055-.107-.03.024-.082-.116-.176-.069l0-.109c-.073-.142-.218-.052-.3-.168.072,0,.055-.079.152-.031-.033-.038-.056-.077-.084-.054,0-.043-.143-.054-.138-.121-.03,0-.074.033-.107-.01,0-.012.018-.018.018-.018-.017.016-.085-.035-.091.038,0-.214-.306-.277-.329-.455-.1-.049-.209-.115-.29-.166.014-.01.015-.022.028-.008-.089-.111-.152.083-.25-.041-.022-.113.091,0,.068-.049.069-.156-.167-.08-.211-.212l.028,0c-.046-.086-.2-.027-.314-.093a.036.036,0,0,0,.011-.023.986.986,0,0,1-.4-.008c.058-.05.064-.014.065-.087-.055-.01-.022.109-.129.089-.021-.046-.085-.106-.074-.175.034.007.066.021.1.031-.021-.11-.13-.04-.178-.068l.018-.037c-.161-.029-.187.072-.35.023l.01.034c-.11.079-.065-.071-.17-.011l-.011-.106a2.5,2.5,0,0,1-.337.073c.069-.074.2-.089.29-.124-.062-.01-.21-.024-.247.023.026-.007.059-.027.082-.008a.428.428,0,0,1-.3.1c.031-.2-.312-.071-.405-.211-.216.077-.44,0-.7.054.118.14-.074.016-.026.171-.053.019-.074.025-.082.017h0l-.194-.049c-.054-.035.046-.049.031-.083-.131.021-.07-.052-.168-.071.033.051-.023.091-.1.089l.125.044c-.152.126-.193-.081-.344.061l.039-.068c-.081.06-.34.122-.366.287-.022-.01-.062-.04-.028-.069-.223.076-.382.356-.571.382l-.007-.042c-.03.032-.023.1-.088.1-.007-.015-.008-.043-.026-.032s-.05.124-.109.138l.013-.064c-.214.091-.207.291-.318.435-.076-.085-.237,0-.309.055l-.01-.013a1.665,1.665,0,0,0-.328.61c-.2.041-.324.386-.493.566.035-.023.078.046.07.09-.046.04.006.172-.087.119l.01-.017c-.112-.005-.143.11-.173.2l.124.066c-.283.149-.118.6-.32.676a1.708,1.708,0,0,0,.033.194l-.073-.017a1.325,1.325,0,0,0-.069.429l-.051-.045C40.719,24.668,40.937,24.712,40.936,24.809Zm5.257-3.715-.011.019.026-.017h0l.07.026c-.006.006-.007.016-.016.018.053.065.065-.025.107.047,0,.01,0,.015-.007.018l.07-.016c-.018.019-.008.078-.042.052.093.089.2-.033.219.058l-.011,0c.121.009.082-.038.116-.082l.07.026.007.147.042-.07c.015.008.043.025.026.053.077-.031,0-.037.055-.073.05.091.219.052.181.178.052-.043-.049-.076.046-.077-.037.135.1.022.137.11-.053.053-.1-.009-.061.078.094-.089.112.083.172.1a.048.048,0,0,1,.055-.025.07.07,0,0,1-.055.025.225.225,0,0,0-.02.049c.012.011.053-.049.075-.073.048.008.109.066.181.084-.02.019.127.154.179.237L47.792,22c.072-.065.143,0,.207.037a.109.109,0,0,1-.108.047l.049.043a.1.1,0,0,1,.1.009l-.06.043c.064.056.19.053.234.169.037-.028.059-.107.1-.138l.04.044a.057.057,0,0,1-.054.017c.01,0,.047.007.05.033l-.076.006c.015.058.055-.015.079.02-.038.034-.006.048-.041.072-.01,0-.008-.042-.034-.04a.177.177,0,0,1,.023.143c.02-.022.052-.046.08-.026.061.063-.027.064-.014.118.043-.009.046.059.108.012.015.021-.01.047-.021.068.053.014.134.162.17.073l0-.013.007,0c.161.074.133.287.241.394l-.023.012c.072.062.1.168.183.2a.068.068,0,0,1-.049.079c.045.053.082.047.074.155-.065-.046-.029.038-.055-.052.009.091-.023.122.075.185-.073-.007-.056.088-.023.121l.024-.072a.367.367,0,0,1,.043.12l-.092.006c-.059.192.261.26.11.431.067.035.028-.1.1-.076,0,.085-.111.188-.107.212-.034.113.146.084.124.2a.1.1,0,0,1,.146.047c-.007.086-.125.11-.153.061,0-.019.006-.029.017-.029-.013-.026-.028-.059-.06-.024l.031.007c-.03.043-.021.153-.074.129.033.058.053.024.067-.022-.043.1.013.161-.027.267.018-.016.056-.031.055-.014-.047.155.056.07.064.18-.05.058-.112-.029-.078.081-.035.062-.083.005-.107-.022.059.1-.063.172-.079.222l-.017-.052a.149.149,0,0,1,0,.079l.066-.019c-.015.028-.019.052-.045.047.036.037.107-.007.152.064-.038.034.017.129-.07.124.051-.117-.083,0-.079-.108a.087.087,0,0,1-.013.072c-.01,0-.016-.008-.02-.017-.1.1.079.071.047.191-.042-.026-.093.005-.089.027.013-.047.082,0,.1.05-.055.067,0,.092-.01.132l.029-.042c.041.029.025.067.018.125-.037-.007-.006-.056-.028-.042.055.086-.129.1-.107.2-.043.026-.083-.029-.115,0,.025.113-.1.068-.094.178.069,0,.058-.011.082.08l.033-.169.036.134c.022-.047.013-.112.032-.137.028.067.014.056.073.055-.117.025-.011.149-.1.2l-.139-.07c-.109.075-.025.225-.143.339l.05-.029c.042.05-.043.087-.048.145-.041-.033-.074-.016-.112-.017.034.02-.07.088.005.161l-.1.015c-.1.082.033.21-.067.29-.018-.064-.083-.048-.059-.134-.028.029-.058.05-.032.074-.04,0-.024.13-.085.124.005.028.041.07.006.1a.042.042,0,0,1-.018-.018c.019.019-.027.076.043.089-.21-.035-.254.26-.437.211a1.763,1.763,0,0,1-.2.2c0-.016-.014-.022,0-.025-.122.017.023.161-.118.183-.1-.037.035-.074-.016-.08-.1-.139-.118.1-.243.054l.014-.017c-.084-.025-.112.125-.215.161a.046.046,0,0,0-.01-.024c-.028.116-.152.187-.242.247.008-.074.032-.049-.009-.106-.041.025.05.1-.033.148-.041-.025-.113-.03-.144-.1.028-.008.054-.022.08-.032-.069-.072-.1.039-.154.033l-.005-.041c-.122.045-.1.146-.241.175l.021.027c-.058.118-.077-.045-.141.043l-.041-.1a1.141,1.141,0,0,1-.258.158,1.018,1.018,0,0,1,.206-.194c-.05.008-.167.034-.189.089.02-.014.042-.043.064-.03a.264.264,0,0,1-.239.14c.008-.2-.271-.034-.341-.2-.181.072-.345-.055-.544-.078.043.165-.06,0-.079.156-.048,0-.064-.007-.068-.017l0,0h0l-.121-.131c-.021-.054.053-.023.058-.059-.1-.037-.026-.077-.079-.135,0,.059-.056.071-.107.035l.059.092c-.167.048-.077-.166-.24-.132L44.3,28.4c-.08,0-.251-.091-.37-.012,0-.023,0-.07.034-.066-.152-.085-.419-.065-.5-.208l.033-.026c-.034-.008-.092.034-.1-.026.011-.012.033-.025.022-.036s-.11,0-.133-.042l.056-.014c-.109-.141-.28-.075-.41-.161.079-.087,0-.2-.031-.266l.014-.01c-.124-.155-.3-.184-.451-.316.027-.164-.179-.362-.2-.561-.007.035-.083.037-.108.011,0-.049-.127-.077-.027-.115l.005.015c.081-.074.013-.139-.005-.209l-.133.041c.117-.239-.225-.448-.072-.595-.048-.034-.055-.09-.1-.127l.074-.011a1.26,1.26,0,0,0-.035-.333l.054.025c0-.083-.219-.091-.228-.173l.11-.029c-.017-.154.1-.3,0-.453.017,0,.048.01.052.035,0-.072.107-.258-.05-.255.1.013.032-.151,0-.243l.069.027c-.074-.086-.1-.095-.1-.2.015-.02.062-.005.036.02.056-.065-.052-.077.009-.159l.037.047c.025-.075,0-.077-.039-.135a.132.132,0,0,1,.137-.127c-.035-.024-.07-.085-.035-.123a.049.049,0,0,1,.038.036c.087-.107,0-.217.106-.272a.064.064,0,0,0,.047.005.859.859,0,0,1-.09.16c.062.026.11-.043.166.054-.018-.078-.067-.232,0-.293a.1.1,0,0,1,.026,0l0,.011a.058.058,0,0,0,.013-.052.185.185,0,0,0,.053-.048c.054.019.076-.066.1-.1-.065-.036-.026-.077-.1-.065.008,0,0,.011-.009.038a.06.06,0,0,0,0,.019l0-.006-.05.093c-.016-.047-.024-.095.036-.113a1.318,1.318,0,0,1-.07-.115c.118,0,.223-.062.288-.035.046-.124.151-.26.107-.408.012-.04.059-.006.085,0,0,.026-.022.043-.015.065.022-.079.137-.171.079-.253.1-.039.026.1.107,0l.007.033c.282-.053.147-.47.5-.479-.023,0-.034,0-.046-.008.31-.1.539-.427.9-.4.094,0,.082-.067.12-.131l.043.069.065-.113c.119-.1.269.121.41-.024l-.031-.049c.062,0,.189-.061.187,0,.005-.01.013-.058.041-.034l.007.041a1.164,1.164,0,0,1,.143-.085c.119.024-.005.166.161.166.059-.02.175-.131.152-.158a.073.073,0,0,1-.069-.064l.059-.025,0-.023h.009A3.992,3.992,0,0,1,46.193,21.094ZM42.3,23.134a.149.149,0,0,1,.026.028c-.005.029-.023.03-.038.026a.291.291,0,0,0,.018-.046Zm-.821,4.245a.093.093,0,0,1-.039.007c-.028-.025-.021-.042-.011-.054a.5.5,0,0,0,.04.049Z" transform="translate(-22.422 -20.351)" fill="#202020"/>
        <path id="Path_21288" data-name="Path 21288" d="M48.725,36.076a3.456,3.456,0,0,0-.551-.232c-.05-.031-.1-.109-.066-.125a.831.831,0,0,1-.368-.15c.162.02-.034-.058.16.032a.785.785,0,0,0-.431-.175c.093-.033-.11-.139-.208-.156l.115.1-.281-.1.078-.068c-.377-.212-.765-.052-1.036-.275-.121.042.214.08.1.133a2.632,2.632,0,0,1-.417-.208c-.253-.091-.261.086-.525.009.031.04.053.119-.149.128-.186-.022-.221-.143-.1-.162.046,0,.067.011.064.022.062-.008.144-.017.072-.055l-.028.029c-.091-.037-.354-.047-.289-.1-.146.022-.065.048.041.07-.242-.058-.382-.022-.632-.064.04.019.076.058.036.055-.367-.057-.163.043-.41.068-.143-.04.048-.116-.2-.062-.155-.024-.036-.081.025-.11a1.372,1.372,0,0,1-.57-.019l.121-.032a.848.848,0,0,1-.194.026l.076.058c-.073-.007-.133,0-.135-.03-.069.047.067.1-.071.168-.1-.015-.279.083-.324.006.3-.022-.045-.076.2-.133a.538.538,0,0,1-.179.029c-.013-.007.007-.019.026-.027-.3-.024-.117.116-.41.164.028-.053-.086-.075-.133-.057.12-.019.072.067-.028.12-.2-.006-.195.073-.292.094l.113-.016c-.025.056-.118.077-.24.128-.02-.032.108-.058.059-.06-.118.121-.342.013-.523.125-.1,0-.037-.08-.125-.076-.2.129-.257.035-.466.174.089.03.093.011-.039.136l.349-.2-.2.186c.11-.047.218-.137.287-.155-.094.1-.087.077-.017.1-.184-.023-.274.178-.471.194l-.059-.144c-.3.043-.427.286-.764.442l.117-.037c-.012.079-.194.122-.284.2-.018-.05-.093-.028-.156-.029.022.022-.223.158-.191.262l-.173.043c-.254.164-.194.306-.409.49.026-.1-.094-.04.022-.2-.071.065-.141.116-.119.145-.064.014-.148.233-.246.256-.014.044.014.092-.067.162-.016,0-.018-.019-.018-.019.018.019-.1.138.011.115-.316.1-.542.605-.8.725-.108.179-.241.392-.348.547-.006-.018-.021-.014,0-.041-.186.191.041.216-.157.437-.148.086.041-.158-.034-.094-.167-.051-.165.318-.348.444,0-.016.007-.033.013-.048-.12.111-.1.366-.224.584,0,0-.008-.017-.023-.012a3.7,3.7,0,0,1-.148.727c-.037-.092.005-.113-.074-.094-.03.1.113.01.055.214-.06.051-.144.184-.215.182a1.732,1.732,0,0,1,.064-.191c-.131.064-.082.249-.128.346l-.035-.025c-.074.3.017.334-.072.653l.037-.026c.063.2-.087.135-.05.329l-.113.032c0,.123.008.437.011.644a1.671,1.671,0,0,1-.074-.548.965.965,0,0,0-.02.471.332.332,0,0,1,0-.158,1.173,1.173,0,0,1,.046.584c-.211-.061-.083.61-.249.782a.5.5,0,0,0,.451.473.476.476,0,0,0,.508-.431c.026-.238.058-.425.063-.662-.168.151.006-.135-.151-.122,0-.1.011-.145.022-.156l0,0h0l.137-.314c.056-.07.022.108.059.1.044-.231.074-.088.147-.232-.063.021-.064-.094-.015-.222l-.112.172c-.014-.342.19-.252.178-.593.005.037.017.076.026.114.007-.174.174-.6.1-.8.028-.023.084-.046.069.028a4.079,4.079,0,0,0,.183-.623,1.484,1.484,0,0,1,.239-.529l.022.046c.022-.073-.008-.154.068-.221.012.012.022.046.039.015a.578.578,0,0,1,.109-.285l-.005.1c.246-.314.211-.586.4-.872.1.069.3-.166.416-.273l.009.014c.31-.335.436-.654.732-.971a3.322,3.322,0,0,0,.517-.321,2.5,2.5,0,0,1,.613-.37c-.068.014-.039-.083.021-.13.1-.03.2-.21.238-.109l-.031.016c.116.053.274-.078.425-.13l-.035-.136a1.781,1.781,0,0,0,.706-.223c.234-.092.448-.181.58-.125a1.7,1.7,0,0,1,.3-.141l.01.074a5.493,5.493,0,0,0,.756-.117.825.825,0,0,0-.064.062c.192-.017.224-.23.409-.247l.062.108c.172-.01.345,0,.517.006a1.521,1.521,0,0,0,.515-.014.069.069,0,0,1-.074.049c.162.012.616.108.573-.047,0,.086.348.064.541.048l-.041.068a.671.671,0,0,1,.4-.081c.05.018.034.065-.031.035.164.066.151-.051.346.048l-.087.023a.314.314,0,0,0,.272,0c.118,0,.324.113.329.183a.238.238,0,0,1,.242,0c0,.03-.035.028-.057.03.257.16.442.094.6.241a.053.053,0,0,0,.014.053,4.051,4.051,0,0,1-.373-.17c-.025.063.144.148-.028.175a1.342,1.342,0,0,1,.6.116.081.081,0,0,1,.011.033l-.02,0a.24.24,0,0,0,.106.048.791.791,0,0,0,.123.094c-.008.06.172.133.252.183.031-.067.134,0,.064-.106.01.012-.02,0-.076-.03a.187.187,0,0,0-.039-.013l.008,0-.207-.114a.294.294,0,0,1,.239.105,1.709,1.709,0,0,1,.179-.035c.067.145.233.346.223.418a3.728,3.728,0,0,0,.779.415c.073.044.043.095.051.132-.044-.023-.085-.063-.117-.066.144.089.371.322.464.288.106.19-.142-.029.058.179l-.047-.009c.25.513.79.559.962,1.212-.011-.044-.017-.067-.007-.083a7.321,7.321,0,0,1,.851,2.02c.026.2.091.206.17.314l-.064.063.145.182c.131.283-.079.546.1.9l.047-.056c.006.137.082.427.018.411.011.013.061.039.039.095l-.041.007c.041.109.06.219.091.33-.02.261-.167-.032-.159.341l.012.069a.4.4,0,0,0,.047.137.372.372,0,0,0,.2.172c.155.05.238-.014.194-.022-.1,0-.2-.108-.165-.14a.228.228,0,0,0,.144.049l.008-.025a.2.2,0,0,0,.021,0,.2.2,0,0,0,.2-.2,9.083,9.083,0,0,0-.089-1.232l.019.011-.023-.037c-.01-.067-.019-.133-.03-.2.016,0,.031.017.045.053.026-.152-.063-.12-.028-.254.007-.016.013-.011.02,0l-.059-.134c.028.023.071-.038.072.051.011-.266-.154-.39-.1-.5l.012.019c-.094-.242-.1-.143-.154-.156-.015-.056-.029-.112-.045-.168l.094-.148-.086-.01c-.007-.037-.021-.108.013-.105-.088-.115-.027.033-.1-.028.013-.19-.2-.445-.089-.526-.079-.038.013.175-.091.013.106-.1-.088-.2-.1-.368.086.018.115.173.106,0-.151-.043-.107-.3-.186-.415-.091.036-.152-.257-.3-.438a3.725,3.725,0,0,0-.25-.6l.017,0c-.106.018-.217-.173-.325-.293.051-.029.086-.018.157.04l-.088-.125a.317.317,0,0,1-.151-.115l.08-.012c-.113-.171-.322-.266-.452-.5-.037.022-.032.126-.076.156-.029-.034-.062-.067-.091-.1a.064.064,0,0,1,.067.011c-.019-.014-.076-.042-.1-.089l.117.042c-.057-.107-.078-.013-.135-.087.039-.034-.018-.078.021-.1.02.015.037.077.076.091a.733.733,0,0,1-.128-.263c-.014.027-.05.049-.112,0-.151-.135-.007-.092-.075-.192-.061-.007-.13-.124-.185-.069-.043-.04-.026-.075-.029-.106-.095-.053-.374-.319-.338-.177l.018.02-.016-.007c-.326-.132-.528-.48-.85-.611Zm-.591.614.011,0a.094.094,0,0,1-.04.02c-.059-.022-.07-.045-.07-.063Zm4.36,5.36s0,0,0,.005l-.005-.027C52.487,42.037,52.49,42.042,52.494,42.05Z" transform="translate(-21.072 -23.922)" fill="#202020"/>
        <path id="Path_21289" data-name="Path 21289" d="M42.926,36.154l-.066.024-.062.057Z" transform="translate(-22.939 -24.302)" fill="#202020"/>
        <path id="Path_21290" data-name="Path 21290" d="M48.058,47.919c.072-.046.09-.151.122-.2-.007-.03-.006-.052.011-.064s.024.034.031.055c-.038-.076-.026-.32-.092-.254.02-.147-.054-.2-.02-.294-.087-.044.02-.175-.1-.18.119-.005.077-.185.014-.243.038.018.031-.058.084-.039-.01-.072-.039-.136-.1-.117.127-.148-.142-.255.031-.35a4.255,4.255,0,0,1-.2-.592c.119-.005.035.212.157.191-.068-.178-.181-.272-.172-.458.011-.049.054.022.076.035-.068-.178-.027-.355-.108-.511.01,0,.025.016.035.032-.007-.032.01-.076-.043-.067l.018.03c-.073.059-.177-.11-.218-.112.16.038.021-.165.225-.1a.072.072,0,0,0-.076-.035c.007-.032.027-.044.071-.017-.042-.112-.094-.064-.1-.169.026,0,.038.017.07.025-.056-.047-.112-.095-.1-.185.016,0,.035-.008.038.018-.024-.151-.162-.243-.131-.414.118.037.031-.061.127-.08l-.038-.086-.043.041c-.007-.078-.086-.14-.061-.21l.046.054-.034-.145-.028.087c-.059-.074-.123.022-.107-.085.012.02-.007-.079.046-.125h0c-.035-.035-.073-.071-.055-.132.03-.018.109,0,.13-.011-.086-.029-.043-.18-.135-.219a.121.121,0,0,0,.084,0l-.07-.025c.017-.038.027-.045.068-.043,0-.11-.12.048-.08-.087.006.01.016,0,.028.024.014-.133-.069-.246-.049-.369.094-.045.035.1.114.052a2.415,2.415,0,0,1-.151-.511l-.007.032c-.141-.008.056-.131-.019-.208.013.019.08.019.064.015a1.041,1.041,0,0,0-.121-.4l.038.017a1.286,1.286,0,0,0,.008-.253c-.037-.018-.037-.06-.085-.029.179-.245-.154-.415-.007-.631,0,.023.037.053.036.035l-.051-.166c-.059.02-.034.026-.078.067a.141.141,0,0,1-.075-.1c.048.072.1-.011.127-.047-.017.007-.039,0-.058,0,.1-.1-.123,0-.064-.13l.032,0c-.021-.044-.067-.08-.063-.131.067-.027.037.045.1.042-.011-.068-.147-.121-.084-.19.023.027.028.068.05.1.075-.076.053-.082.061-.133v0l.025-.119-.019.031c-.191-.065-.052-.17-.184-.272.125.1.067.011.148.011.019-.031.039-.079.062-.068-.07-.048.041-.1-.061-.164.025-.006,0-.058.062-.053-.028-.069-.043.021-.075.019-.1-.1.078-.268-.058-.412-.059-.12-.139-.146-.195-.244l0-.028c.036-.025.086.03.086.03a.181.181,0,0,0-.018-.184c.024.011.041-.005.067-.028-.012-.051-.1-.025-.066-.1a.39.39,0,0,1,.108.04c-.03-.058-.084-.113-.114-.174.043-.021.072.031.1.05-.028-.069-.06-.179-.133-.193l-.02.048c-.007-.026.058-.02.074,0,.062.055-.015.09-.041.1l-.021-.043c-.145.062.043.178.044.269l-.092-.021-.058-.547a.073.073,0,0,1,.007-.022c.008.007.02.055.007.039.032.032,0-.07.036-.04a.094.094,0,0,0,.032.112c-.018.015-.042.005-.058,0a.2.2,0,0,0,.2.041c-.088-.032-.054-.046-.158-.079-.014-.034.022-.065.054-.062-.008,0-.009-.013-.009-.022a.177.177,0,0,1,.025.036c-.01-.039-.018-.094,0-.081a.113.113,0,0,1,.012.047c.058.032.019-.1.074-.047a.178.178,0,0,0,.024.037c-.031.013-.055.019-.055.014.026.062.057.061.074.156,0-.058-.013-.173.025-.156l.014.019v.008c.009,0,.011-.005.01-.017.013.005.022.01.029.006.031.047.044.009.057,0-.04-.063-.019-.062-.065-.105.005,0,0,.009,0,.016a.014.014,0,0,0,0,.01l0-.006-.025.021c-.01-.038-.017-.07.016-.043l-.048-.11c.068.079.129.107.17.155.009-.059.066-.082-.008-.2,0-.021.035.022.052.035s0,.018.008.036c-.007-.042.041-.056-.024-.129.05.013.052.075.068.037l.018.025c.173.043-.108-.248.094-.19a.083.083,0,0,1-.035-.012c.128-.034.023-.194.181-.225.035-.016-.022-.04-.062-.068l.077.019-.08-.052c-.058-.049.209-.018.091-.095l-.053,0c.013-.016-.023-.057.038-.046-.01,0-.055-.013-.026-.016l.041,0c-.021-.017-.043-.033-.067-.049.031-.03.164.019.175-.033a.256.256,0,0,0-.147-.049c0,.007-.027.017-.068.017l-.021-.015H47.47v0a.933.933,0,0,0-.017-.166l.022,0-.022,0c0-.007,0-.013,0-.019a.086.086,0,0,1,.035,0c.05-.027-.041-.005.014-.032a.042.042,0,0,1,.019,0l-.035-.008c.022,0,.074-.021.061-.007.053-.046-.088-.025-.015-.058a.176.176,0,0,0-.112.01l0-.013.127-.059-.077.023s0-.014.034-.025c-.056.005-.031.015-.083.025.062-.047-.051-.035.064-.091-.059.019-.035.036-.083.035.122-.064-.032-.012.017-.056.065-.027.041.007.089-.04-.112.045.006-.046-.024-.051a.09.09,0,0,1-.048.017.15.15,0,0,1,.048-.017l.044-.028a.61.61,0,0,0-.092.045c-.022,0-.017-.029-.046-.033.029-.017.014-.071.026-.114l.013-.009c-.08.055-.079.022-.108.021a.249.249,0,0,1,.091-.057l-.013-.014a.1.1,0,0,1-.059.022l.057-.044c-.022-.017-.1.02-.085-.037-.032.033-.074.088-.114.126l-.011-.009a.153.153,0,0,1,.041-.033c-.006,0-.028.016-.021,0l.051-.036c.009-.028-.041.032-.044.021.036-.037.019-.032.049-.061.005,0-.007.022.01.011a.14.14,0,0,1,.028-.083c-.019.023-.046.053-.058.051s.035-.052.041-.083c-.028.023-.017-.016-.066.044-.006,0,.016-.034.026-.052-.031.019-.056-.029-.092.047v.006l0,0c-.074.039-.045-.082-.1-.076l.013-.023c-.035.014-.057-.008-.1.035-.006,0,.005-.05.021-.077-.026.01-.037.035-.046-.014.035-.036.008-.04.031-.024-.014-.029-.007-.071-.057-.014.032-.059.01-.086-.009-.071l0,.051c-.016,0-.025-.005-.035-.014l.033-.082c-.029-.119-.139.149-.14-.032-.026.058.02.046-.006.115-.02-.015-.025-.143-.034-.145-.03-.053-.049.122-.079.086a.274.274,0,0,1-.028.142.228.228,0,0,1,0-.157c.006,0,.008.008.007.019a.059.059,0,0,0,.013-.058l-.006.031c-.01-.033-.045-.031-.034-.082a.05.05,0,0,0,0,.067c-.031-.046-.05-.005-.084-.033.006.017.011.053.006.053-.049-.037-.019.06-.048.075-.021-.047,0-.113-.031-.072a.14.14,0,0,1-.005-.108c-.026.061-.064-.032-.086-.041l.014-.027a.028.028,0,0,1-.026.018l.02.061c-.012-.01-.02-.008-.024-.034a1.288,1.288,0,0,1,.014.16c-.018-.029-.029.039-.05-.04.045.02-.022-.081.011-.1-.005.011-.014.012-.025,0a.033.033,0,0,1,0-.022c-.056-.063,0,.1-.038.1-.007-.047-.032-.084-.036-.072.017,0,.027.073.022.111-.034-.028-.019.033-.031.032l.019.013c.008.046,0,.043-.015.063-.013-.034.006-.029,0-.042.01.083-.067-.067-.074-.005-.023-.025-.033-.081-.052-.1-.007.067-.058-.046-.07.015.036.052.03.038.036.1l.029-.063.007.1c.014-.005.013-.05.026-.043a.118.118,0,0,0,.028.083c-.055-.077-.012.067-.058.019L46,35.7c-.068-.044-.023.1-.083.093l.028.015c.026.056-.02.022-.02.052a.3.3,0,0,0-.07-.078c.023.031-.032.019.025.106l-.058-.042c-.05,0,.056.142.02.151-.028-.05-.065-.067-.073-.114-.01.007-.025.008,0,.035-.027-.019.022.075-.02.046.012.02.048.06.036.066a.111.111,0,0,1-.018-.019c.017.019.01.039.058.072-.14-.085-.056.076-.181.013a.264.264,0,0,1-.017.088c-.012-.01-.021-.015-.014-.016-.059,0,.115.1.051.1-.081-.028-.029-.04-.062-.047-.149-.083,0,.049-.1.024l-.006-.01c-.061-.008.036.074.012.1a.154.154,0,0,0-.023-.011.277.277,0,0,1,.1.136c-.06-.031-.029-.025-.094-.042,0,.016.1.034.113.062a.674.674,0,0,1-.144-.015l0-.025c-.095-.017-.007.033-.026.041l-.039-.013c0,.044.1.069.085.107l.032,0c.1.041-.06.007.011.042l-.1-.011a.91.91,0,0,1,.108.092.448.448,0,0,1-.151-.085.06.06,0,0,0,.031.055s-.006-.007,0-.009c.077.028.117.053.114.08-.2-.015-.056.071-.208.1.076.053-.024.116,0,.185.151-.052.007.019.165-.016.012.011.011.016,0,.02h0l-.082.065c-.043.023-.038-.005-.073,0,0,.037-.062.032-.1.067.054-.02.083-.01.067.016l.064-.049c.094.02-.116.082-.019.1l-.053,0c.037.015.034.1.163.063-.015.012-.052.036-.067.031.01.069.182.052.139.131l-.035.017c.016,0,.071-.024.046.009-.014.009-.035.019-.034.024s.074-.016.064.009l-.043.017c-.005.081.139.006.189.019a.175.175,0,0,0-.077.169l-.012.011c.044.061.155.011.229.007-.043.127.078.117.1.207A.169.169,0,0,1,46,37.864h0c-.013.078-.009.172-.085.149.022.052.078.125.078.171-.129-.1-.026.171-.172.133.117.076.031.23.089.347-.01-.008-.029-.022-.021-.031-.017.061-.056.075-.084.112.1.02.115.118.173.176-.107.065-.116-.058-.213-.045.084.005.069.14.141.122-.068.051-.035.046-.123.068.127.024.016.056.089.112-.072.077-.122.009-.093.105-.044.04-.081-.047-.081-.047-.012.094.09.055.144.08.015.115-.077.044-.131.077.018.073.1.136.092.187-.016,0-.023.011-.041,0,.069.083-.02.22.068.317a.081.081,0,0,1-.026.009.38.38,0,0,1,.134,0c0,.042.053.084-.012.094,0-.025-.02-.031-.039-.045l.022.047c-.1.03-.025-.064-.092-.07.02.089.085.2.052.26-.091,0-.013-.158-.1-.078l.045-.1c-.148.063.017-.061-.142-.005-.04.131.029.155-.011.286.046.035.074,0,.12.033.069.2-.239.126-.136.278.056.042.166.068.1.161l-.1-.044c-.024.128.137.089.055.218-.037-.029-.023-.106-.037-.088-.089.079.05.069.043.137l-.091,0c0,.14.047.3.047.453-.026-.011-.05-.041-.082-.007a1.262,1.262,0,0,1-.127.592l.07.079a.031.031,0,0,1-.051.008c-.038.07.048.009.074.047a.038.038,0,0,1-.07.021.6.6,0,0,1,0,.506l-.02-.028c-.042.1.146.136.063.225l-.011-.02c-.058.225-.014.484-.148.646.106.045-.074.22.079.251-.09.122-.114.082-.184.259-.013.048.088.083.1.146l-.081-.007.076.091-.1.034.015.059a.064.064,0,0,1,.064-.039.2.2,0,0,1-.121.208l.047.217c-.032-.008-.04-.044-.058-.074.071.121-.087.011-.022.122.02-.012.047.012.064.017a.31.31,0,0,0-.056.251l-.053-.023c-.031.154-.008.331-.028.506a.072.072,0,0,1,.131.017l-.087.012c.049.038.037-.05.1.025-.017.064-.1.033-.126-.007l.022.083c-.026,0-.038-.018-.07-.026.05.038-.1.128-.013.185l-.026,0c-.02.174,0,.256-.009.4.074.01.051.064.106.113a1.254,1.254,0,0,0-.112.338c.027.093.059.033.1.077-.068,0-.075.126-.116.055a1.4,1.4,0,0,0,.027.392c.029-.018.044-.04.066-.025a.064.064,0,0,1-.068.067l-.006-.01a.279.279,0,0,1-.005.175c-.022.088-.057.192-.091.3a1.723,1.723,0,0,0,.146.251.189.189,0,0,0,.125.094l-.011,0,.17.091c.043.071-.071-.006-.064.068.209.076.181.244.339.319-.069.229.272.308.309.553l.024-.046c.081.027.04.091.072.147.017-.037-.026-.1.02-.082a4.877,4.877,0,0,1,.485.591l.406-.406.226-.227.13-.12c.1-.1-.138-.214.057-.275l.036.092c.094-.278.359-.43.461-.693.005.025.025.042.008.061.086-.005.131-.155.1-.2C48.008,47.873,48.006,47.94,48.058,47.919ZM47.152,37.84l.016.035c0,.014-.013,0-.022-.01a.058.058,0,0,0,.01-.016Zm.024,2.995a.259.259,0,0,1-.062.009l-.006-.057A.075.075,0,0,1,47.176,40.835Zm-.2-1.851-.059.031-.007-.073A.132.132,0,0,1,46.978,38.984Zm-.043-.485a.093.093,0,0,1-.069.018l-.009-.082Zm-.073-.682h0l0,0Zm.593-1.24-.012,0,0,0A.082.082,0,0,1,47.455,36.577Zm-1.763,4.829v.046h0Zm-.007.151c.026,0,.052.006.049.024-.017-.012-.035.03-.06.055A.548.548,0,0,0,45.685,41.557Z" transform="translate(-23.47 -24.134)" fill="#2d82f7"/>
        <rect id="Rectangle_7541" data-name="Rectangle 7541" width="5.39" height="4.042" rx="1.35" transform="translate(4.286 8.673)" fill="#ff7e94"/>
        <path id="Path_21291" data-name="Path 21291" d="M27.738,33.463c.107-.139-.181-.25,0-.356-.062-.037-.043.075-.115.043.014-.058.133-.146.132-.172.04-.114-.137-.083-.122-.191a.113.113,0,0,1-.153-.016c-.005-.066.1-.12.14-.082.007.017,0,.028-.011.03.017.019.038.048.064.01l-.033,0c.025-.045-.013-.145.043-.137-.049-.047-.057-.006-.058.038.01-.108-.052-.142-.071-.246-.008.023-.035.053-.041.038-.036-.145-.083-.026-.142-.1.008-.071.106-.049.015-.105-.01-.067.058-.061.094-.055-.1-.041-.084-.163-.116-.214l.054.021a.228.228,0,0,1-.069-.05l-.022.065c-.014-.029-.033-.046-.015-.064-.05.01-.055.091-.134.094-.006-.051-.106-.043-.067-.117.078.095.041-.076.131-.02a.108.108,0,0,1-.059-.049c0-.01.014-.01.024-.01-.056-.132-.1.038-.2-.025.038-.032.021-.091,0-.093.043.028-.02.08-.074.088-.051-.067-.086-.012-.118-.032l.033.034c-.034.037-.062.012-.114.01.009-.035.052-.007.041-.029-.081.059-.091-.128-.188-.093-.028-.041.018-.086-.01-.115-.1.038-.092-.083-.2-.048.023.067.027.049-.046.106a1.16,1.16,0,0,1,.163-.024l-.112.075c.044.007.1-.025.128-.01-.056.043-.047.029-.036.083-.046-.1-.125.035-.187-.029l.01-.155c-.122-.077-.176.077-.306.037l.04.027c-.016.062-.076.009-.116.034,0-.052-.022-.07-.039-.1,0,.038-.09,0-.1.1l-.055-.068c-.1-.028-.114.148-.21.13.029-.057-.014-.094.05-.134-.032,0-.062-.01-.062.026-.019-.032-.089.07-.118.021-.013.022-.018.077-.054.073a.053.053,0,0,1,0-.025c0,.025-.056.035-.025.092-.1-.162-.275.012-.361-.127a1.328,1.328,0,0,1-.218.038c0-.016,0-.026.012-.021-.088-.048-.054.149-.153.1-.051-.084.052-.045.021-.077-.014-.171-.12.023-.188-.076l.017-.01c-.051-.059-.125.065-.208.053a.053.053,0,0,0,0-.025.419.419,0,0,1-.246.14c.025-.067.037-.036.021-.1-.036.01.011.109-.061.128-.023-.037-.075-.069-.082-.142l.068,0c-.035-.094-.088,0-.124-.013l0-.041c-.1.013-.106.117-.217.109l.012.031c-.061.1-.052-.058-.113.019l-.019-.1a.951.951,0,0,1-.214.12c.041-.076.126-.116.178-.162a.232.232,0,0,0-.129.04c.008-.005.017-.007.024,0a.214.214,0,0,1-.194.12c.012-.2-.2-.053-.289-.2-.159.089-.346.023-.535.122.13.112-.051.029.032.168-.032.025-.046.032-.056.027h0a1.462,1.462,0,0,0-.164-.01c-.054-.019.015-.055-.007-.082-.094.049-.075-.031-.16-.022.047.038.019.085-.041.111a.82.82,0,0,1,.113,0c-.052.155-.19-.023-.235.149l0-.07c-.034.074-.194.227-.115.36-.023,0-.071-.005-.063-.041-.119.157-.041.413-.142.524l-.036-.021c.005.036.064.07.018.1-.016,0-.037-.019-.041,0s.057.1.034.137l-.043-.04c-.062.189.1.229.13.358-.116,0-.154.111-.172.166h-.017c-.014.164.1.279.142.431-.126.094-.053.32-.124.472.022-.023.091,0,.1.031-.023.035.081.1-.026.093l0-.013c-.1.026-.077.1-.08.157l.139.01c-.2.15.074.392-.107.474.035.037.034.079.07.118l-.075,0a.649.649,0,0,0,.031.346l-.06-.02c.02.093.233.058.262.123l-.1.059c.047.136.042.329.215.393-.015.008-.043.023-.061.005.034.062.127.269.217.142-.07.071.106.118.2.124l-.054.051c.11-.034.124-.053.213-.03.013.019-.014.06-.029.029.043.07.08-.03.137.04l-.05.028c.064.037.07.012.127-.022.052-.012.117.064.109.13.023-.035.074-.078.109-.049a.048.048,0,0,1-.028.043c.111.077.188-.049.262.027a.068.068,0,0,0,.011.044.451.451,0,0,1-.167-.029c-.013.067.07.091-.011.173.08-.036.2-.142.272-.109a.108.108,0,0,1,.009.024l-.007.007a.037.037,0,0,0,.041-.011.12.12,0,0,0,.055.02c.007.056.077.031.111.033,0-.074.041-.062,0-.123.005.005-.006.009-.028.012-.005,0-.011,0-.014.007l0-.007-.084.005c.026-.038.055-.069.092-.028l.047-.119c.046.1.135.159.147.223.1-.041.242-.028.307-.166.029-.018.034.04.045.061-.017.014-.037.012-.046.032.058-.036.173-.014.187-.111.074.043-.041.089.06.074l-.014.029c.2.155.323-.248.545-.048-.016-.013-.023-.018-.026-.035.252.088.519-.083.767.057.07.028.078-.034.121-.081l.015.079.073-.092c.105-.067.182.2.314.068l-.017-.053c.047.01.151-.031.142.03.005-.01.016-.055.035-.028l0,.041.116-.071c.091.03-.014.165.118.173.049-.016.14-.121.122-.148a.069.069,0,0,1-.052-.068l.045-.021v-.023h.007a1.238,1.238,0,0,0,.514-.113l0,.022.006-.027c.019-.01.037-.021.057-.032.006.016.011.032,0,.045.073.026.021-.056.089-.026a.014.014,0,0,1,.008.017l.026-.054c0,.024.049.06.014.064.118,0,.074-.154.153-.11v.011c.043-.07.019-.083-.007-.11a.074.074,0,0,0,.01-.047l.015-.014c.042.022.083.044.127.064l-.05-.064a.035.035,0,0,1,.054,0c-.009-.073-.032-.017-.053-.071.1,0,.072-.153.184-.1-.04-.051-.071.025-.072-.053.128.054.02-.076.1-.1.057.046,0,.082.081.055-.091-.082.074-.1.069-.158a.052.052,0,0,1-.038-.044c.026.017.037.031.038.044a.2.2,0,0,0,.052.011c.008-.013-.06-.041-.089-.056-.005-.041.029-.1.02-.163.031.013.077-.148.11-.23l.017,0c-.1-.02-.078-.091-.1-.146a.124.124,0,0,1,.107.041v-.051a.088.088,0,0,1-.059-.062l.073.014c0-.068-.086-.137-.037-.225a1.59,1.59,0,0,1-.17.02v-.044c.023,0,.043.007.051.02,0-.008-.03-.028-.015-.044l.062.037c.027-.04-.051-.021-.046-.052.052,0,.037-.024.079-.02.005.008-.022.028,0,.041a.145.145,0,0,1,.079-.094c-.029,0-.07,0-.077-.026,0-.068.062-.023.089-.063-.036-.016,0-.06-.076-.061,0-.02.037-.023.058-.031-.035-.035-.01-.165-.092-.125l-.005.009,0-.005c-.077-.116.044-.24.011-.355h.026c-.029-.069-.017-.152-.074-.2,0-.02.047-.048.079-.039-.02-.053-.049-.059-.006-.134.045.052.041-.018.033.054.022-.068.064-.083-.007-.156.067.025.084-.051.064-.083l-.047.047a.223.223,0,0,1,0-.1ZM23.127,36.8l0-.009a.155.155,0,0,1-.009.037c-.022.011-.03,0-.033-.019Zm3.75-1.905a.964.964,0,0,1,.038.188c-.016,0-.025,0-.02-.01-.049.076.149.047.1.134-.084.044-.046-.046-.077-.019-.17.015.023.107-.08.138l-.01-.011c-.06.022.054.086.026.142a.073.073,0,0,0-.025-.008.21.21,0,0,1,.054.217c-.047-.052-.016-.041-.081-.067-.005.027.1.048.085.107a.246.246,0,0,1-.151-.035l.024-.038c-.09-.038-.03.048-.061.056l-.028-.03c-.032.055.035.134-.035.178l.026.02c.02.113-.064-.026-.062.062l-.062-.083a.353.353,0,0,1-.1.17c.01-.083.049-.141.056-.2a.141.141,0,0,0-.061.069c0-.007.008-.011.016-.006,0,.088-.041.144-.1.152-.022-.2-.147-.037-.216-.2-.122.074-.243-.032-.385-.02.051.157-.041,0-.033.166-.032.01-.043.007-.047,0h0l-.1-.1c-.024-.047.031-.036.028-.072-.073-.012-.03-.068-.079-.111.011.058-.025.082-.067.061l.058.074c-.1.085-.088-.135-.19-.05l.032-.051c-.053.03-.194,0-.245.128-.01-.018-.022-.062,0-.074-.126-.02-.28.138-.377.058l.01-.04c-.024.011-.041.074-.07.035,0-.016.01-.039,0-.041-.012.013-.062.068-.093.046l.026-.044c-.122-.052-.188.108-.29.135a.186.186,0,0,0-.145-.173v-.016c-.143-.014-.242.1-.374.142-.082-.126-.278-.052-.41-.124.02.022,0,.091-.026.1-.032-.023-.086.081-.081-.025l.011,0c-.023-.1-.087-.076-.136-.079l-.008.139c-.144-.2-.309.07-.317-.127-.029.029-.052.018-.085.043l.03-.068a.277.277,0,0,0-.117-.082l.043-.035c-.021-.019-.173.136-.211.106l.072-.085c-.053-.057,0-.154-.116-.174.016,0,.046-.014.054-.007-.011-.032.039-.125-.107-.084.1-.021,0-.068-.047-.115l.074.005c-.1-.037-.12-.047-.146-.111.01-.016.058-.014.04.007.039-.052-.069-.041-.03-.106l.047.024c.006-.054-.02-.05-.074-.08-.029-.034.019-.1.085-.112-.04-.007-.095-.037-.076-.069a.057.057,0,0,1,.048.014c.05-.092-.085-.136-.013-.2a.085.085,0,0,0,.043-.011.4.4,0,0,1-.011.125c.068,0,.079-.058.173-.012-.051-.047-.162-.127-.131-.185a.114.114,0,0,1,.024-.007l.007.006c.007-.014,0-.026-.011-.036a.1.1,0,0,0,.02-.047c.056-.007.031-.067.033-.1-.074,0-.062-.036-.123,0,.005,0,.009.005.012.025s0,.01.007.013l-.007,0,.005.073c-.037-.023-.069-.047-.028-.079l-.119-.041c.1-.041.159-.117.223-.128-.041-.089-.027-.21-.167-.266-.018-.025.04-.028.062-.038.014.014.012.032.032.04-.036-.05-.014-.15-.111-.162.043-.064.089.036.074-.052l.029.011c.155-.173-.248-.281-.048-.472-.013.013-.018.02-.034.023A.7.7,0,0,0,22.262,33a.223.223,0,0,1,.127-.235c.049-.026,0-.062-.02-.116l.071.039a.688.688,0,0,1-.037-.1c.015-.115.219.055.219-.092l-.038-.04c.033-.012.088-.079.106-.022,0-.01-.01-.055.014-.034l.016.039a.546.546,0,0,1,.061-.094c.071.013.029.16.111.155.024-.019.084-.126.073-.154-.014,0-.039-.024-.043-.066l.037-.023,0-.023h.466l0,.02.014-.02h.055c0,.014,0,.029-.015.035.044.054.038-.039.076.022a.016.016,0,0,1,0,.019l.042-.033c-.008.023.007.077-.019.062.076.064.122-.082.151,0l-.007.007c.079-.028.046-.059.057-.112h.049l.037.136.01-.08a.033.033,0,0,1,.028.041c.041-.055-.007-.035.017-.087.052.073.144-.035.156.094.019-.061-.05-.047.006-.09.016.138.064-.023.112.04-.014.071-.06.034-.012.1.028-.12.093.026.133,0a.051.051,0,0,1,.023-.05.079.079,0,0,1-.023.05.232.232,0,0,0,0,.052c.011,0,.015-.069.019-.1.03-.018.085,0,.131-.022,0,.032.127.053.19.087v.016c.012-.1.076-.079.124-.1a.131.131,0,0,1-.036.106h.044a.084.084,0,0,1,.053-.058l-.011.072c.059,0,.119-.085.195-.037,0-.046-.024-.116-.017-.17h.038a.065.065,0,0,1-.016.05c.007,0,.025-.03.039-.014l-.032.062c.034.027.018-.052.046-.046,0,.052.02.037.017.078-.007.005-.024-.021-.035,0a.13.13,0,0,1,.081.08c0-.029,0-.07.022-.076.059,0,.02.062.055.089.014-.036.052,0,.053-.077.017,0,.02.037.027.058.031-.035.143-.01.108-.093l-.007-.005,0,0c.1-.077.208.043.308.011v.026c.059-.03.132-.018.174-.074.018,0,.041.047.034.078.046-.02.051-.049.116-.006-.046.046.016.04-.047.034.059.023.072.064.135-.007a.05.05,0,0,0,.073.064l-.041-.048a.134.134,0,0,1,.082,0l-.012.087c.058.1.193-.158.207.037.045-.049-.029-.056.014-.117.043.026.027.16.035.164.017.066.11-.088.142-.022.014-.029.055-.1.117-.092.033.046-.046.136-.082.137-.01,0-.007-.016,0-.023a.039.039,0,0,0-.049.035l.024-.02c-.005.038.036.073-.011.1.04,0,.046-.025.042-.054,0,.068.054.061.057.123.011-.016.037-.043.041-.036.009.089.071,0,.11.049-.029.05-.106.036-.049.072-.019.042-.076.035-.1.035.073.02-.014.088-.02.107l-.029-.014a.028.028,0,0,1,.02.027l.059-.023c-.009.015-.007.025-.033.029.043.008.1-.027.161,0-.028.023.037.064-.044.073.025-.062-.083.008-.1-.038.01.007.01.019,0,.032a.03.03,0,0,1-.023,0c-.072.061.095.032.093.113-.047-.01-.089.02-.079.035,0-.035.078-.017.114.015-.037.055.027.06.022.089l.017-.033c.046.011.041.039.056.077-.037,0-.026-.034-.041-.021.083.043-.085.1-.03.155-.032.028-.088,0-.109.027.061.067-.064.072-.014.142.063-.02.047-.024.109.025l-.044-.116.092.074c0-.035-.04-.073-.029-.094.052.035.036.031.088.015-.094.048.055.094-.008.149h-.156c-.069.082.08.146.041.253l.027-.034c.062.015.008.067.034.1a.172.172,0,0,0-.1.033c.038,0,0,.079.1.089l-.069.048c-.028.086.149.1.131.181-.056-.025-.093.013-.133-.043,0,.028-.01.052.026.053-.033.017.07.077.02.1.023.011.077.015.073.047a.053.053,0,0,1-.026,0c.026,0,.035.049.093.022C26.843,34.665,27.017,34.819,26.877,34.893Zm-4.489-.467a.15.15,0,0,1,.037.008c.011.019,0,.025-.019.028a.163.163,0,0,0-.009-.034Zm1.177-2.182h0l0,0Zm3.317,4.086c-.005,0,0-.009-.007-.012l.016-.009A.161.161,0,0,1,26.882,36.33Z" transform="translate(-17.573 -23.14)" fill="#202020"/>
      </g>
    </g>
  </g>
</svg>
