<svg xmlns="http://www.w3.org/2000/svg" width="43.979" height="39.375" viewBox="0 0 43.979 39.375">
  <g id="Group_24384" data-name="Group 24384" transform="translate(-6.703 -8.583)">
    <g id="Group_19267" data-name="Group 19267" transform="translate(6.703 8.583)">
      <g id="Path_18915" data-name="Path 18915">
        <path id="Path_21294" data-name="Path 21294" d="M32.49,11.444c-9.637,0-25.16,11.035-23.418,22.316S21.918,50.819,32.49,50.819s20.426-6.29,20.426-17.128S42.137,11.444,32.49,11.444Z" transform="translate(-8.937 -11.444)" fill="#f3f8ff" fill-rule="evenodd"/>
      </g>
      <rect id="Rectangle_7542" data-name="Rectangle 7542" width="35.25" height="27.75" rx="3.303" transform="translate(6.047 7.167)" fill="#fff"/>
      <g id="Group_19266" data-name="Group 19266" transform="translate(5.63 7.167)">
        <g id="Group_19265" data-name="Group 19265">
          <path id="Path_21296" data-name="Path 21296" d="M63.2,54.386c-.043-.2-.118-.441-.2-.309.085.2.049.252.151.471.011.174-.028.3-.061.275.022.062-.02.271.036.365a1.762,1.762,0,0,0,.014-.814C63.166,54.309,63.188,54.371,63.2,54.386Z" transform="translate(-28.084 -29.26)" fill="#202020"/>
          <path id="Path_21297" data-name="Path 21297" d="M62.986,51.371a1,1,0,0,0,.023.153L63,51.38A.075.075,0,0,1,62.986,51.371Z" transform="translate(-28.079 -28.593)" fill="#202020"/>
          <path id="Path_21298" data-name="Path 21298" d="M59.1,57.914c0,.006,0,.009,0,.014C59.117,57.92,59.124,57.915,59.1,57.914Z" transform="translate(-27.106 -30.228)" fill="#202020"/>
          <path id="Path_21299" data-name="Path 21299" d="M63,51.2v-.146A1.282,1.282,0,0,0,63,51.2Z" transform="translate(-28.082 -28.513)" fill="#202020"/>
          <path id="Path_21300" data-name="Path 21300" d="M46.7,57.963a.474.474,0,0,1,.141.068C46.8,57.977,47.247,57.957,46.7,57.963Z" transform="translate(-24.009 -30.24)" fill="#202020"/>
          <path id="Path_21301" data-name="Path 21301" d="M63.031,51.339A.136.136,0,0,1,63,51.247l0,.1C63.015,51.358,63.025,51.36,63.031,51.339Z" transform="translate(-28.082 -28.562)" fill="#202020"/>
          <path id="Path_21302" data-name="Path 21302" d="M36.742,22.607l-.485-.011C36.393,22.6,36.569,22.607,36.742,22.607Z" transform="translate(-21.397 -21.399)" fill="#202020"/>
          <path id="Path_21303" data-name="Path 21303" d="M34.224,22.594a1.461,1.461,0,0,0-.274-.053.272.272,0,0,0-.056.02Z" transform="translate(-20.806 -21.385)" fill="#202020"/>
          <path id="Path_21304" data-name="Path 21304" d="M19.032,57.741l-.007.018.065.013Z" transform="translate(-17.089 -30.185)" fill="#202020"/>
          <path id="Path_21305" data-name="Path 21305" d="M63.089,38.641a.171.171,0,0,0-.02.066A.233.233,0,0,0,63.089,38.641Z" transform="translate(-28.1 -25.41)" fill="#202020"/>
          <path id="Path_21306" data-name="Path 21306" d="M63.063,41.524l-.027.306C63.052,41.7,63.059,41.6,63.063,41.524Z" transform="translate(-28.092 -26.131)" fill="#202020"/>
          <path id="Path_21307" data-name="Path 21307" d="M63.022,43.741a.084.084,0,0,0,.032.032v0Z" transform="translate(-28.088 -26.685)" fill="#202020"/>
          <path id="Path_21308" data-name="Path 21308" d="M48.639,22.492l-.064,0C48.425,22.51,48.527,22.5,48.639,22.492Z" transform="translate(-24.458 -21.373)" fill="#202020"/>
          <path id="Path_21309" data-name="Path 21309" d="M59.089,22.257c-.083.014-.166.027-.253.036C58.976,22.3,59.085,22.3,59.089,22.257Z" transform="translate(-27.042 -21.314)" fill="#202020"/>
          <path id="Path_21310" data-name="Path 21310" d="M36.958,22.612h0Z" transform="translate(-21.559 -21.403)" fill="#202020"/>
          <path id="Path_21311" data-name="Path 21311" d="M58.348,22.3a1.811,1.811,0,0,0,.366,0A2.708,2.708,0,0,0,58.348,22.3Z" transform="translate(-26.92 -21.324)" fill="#202020"/>
          <path id="Path_21312" data-name="Path 21312" d="M62.973,53.427s.009,0,.012.009l-.009-.089Z" transform="translate(-28.076 -29.087)" fill="#202020"/>
          <path id="Path_21313" data-name="Path 21313" d="M63,53.555a.232.232,0,0,0-.009-.089Z" transform="translate(-28.08 -29.116)" fill="#202020"/>
          <path id="Path_21314" data-name="Path 21314" d="M63,53.585a.478.478,0,0,0,.019.187Z" transform="translate(-28.083 -29.146)" fill="#202020"/>
          <path id="Path_21315" data-name="Path 21315" d="M63,49.521a4.6,4.6,0,0,0-.041.622l.022.021C62.938,50.06,63.044,49.673,63,49.521Z" transform="translate(-28.071 -28.13)" fill="#202020"/>
          <path id="Path_21316" data-name="Path 21316" d="M62.9,23.653a1.45,1.45,0,0,1,.021.2c.027.026.059.051.083.08A1.738,1.738,0,0,0,62.9,23.653Z" transform="translate(-28.057 -21.663)" fill="#202020"/>
          <path id="Path_21317" data-name="Path 21317" d="M62.241,21.866c.2.069.44.193.385.034a1.734,1.734,0,0,0-.507-.16c-.166-.075-.283-.152-.243-.173-.067-.005-.276-.108-.386-.067.226.11.5.2.793.323C62.331,21.874,62.262,21.859,62.241,21.866Z" transform="translate(-27.705 -21.122)" fill="#202020"/>
          <path id="Path_21318" data-name="Path 21318" d="M64.122,24.681a1.025,1.025,0,0,0-.023-.157l.009.147Z" transform="translate(-28.357 -21.881)" fill="#202020"/>
          <path id="Path_21319" data-name="Path 21319" d="M55.335,21.1c0,.005,0,.009,0,.014C55.356,21.105,55.363,21.1,55.335,21.1Z" transform="translate(-26.166 -21.025)" fill="#202020"/>
          <path id="Path_21320" data-name="Path 21320" d="M64.116,24.859v.149A1.171,1.171,0,0,0,64.116,24.859Z" transform="translate(-28.362 -21.965)" fill="#202020"/>
          <path id="Path_21321" data-name="Path 21321" d="M42.682,21.147a.509.509,0,0,1,.144.067C42.778,21.161,43.237,21.142,42.682,21.147Z" transform="translate(-23.003 -21.037)" fill="#202020"/>
          <path id="Path_21322" data-name="Path 21322" d="M64.073,24.729a.131.131,0,0,1,.032.093l0-.1C64.09,24.709,64.08,24.707,64.073,24.729Z" transform="translate(-28.351 -21.928)" fill="#202020"/>
          <path id="Path_21323" data-name="Path 21323" d="M40.82,59.422l-.5-.011C40.463,59.419,40.643,59.422,40.82,59.422Z" transform="translate(-22.414 -30.603)" fill="#202020"/>
          <path id="Path_21324" data-name="Path 21324" d="M38.249,59.409a1.514,1.514,0,0,0-.28-.052.259.259,0,0,0-.058.019Z" transform="translate(-21.81 -30.589)" fill="#202020"/>
          <path id="Path_21325" data-name="Path 21325" d="M63.439,57.777h0Z" transform="translate(-28.192 -30.194)" fill="#202020"/>
          <path id="Path_21326" data-name="Path 21326" d="M52.243,28.223c-.02-.356-.045.085-.078.055-.089-.55.108-1.292-.014-2.083-.046-.627-.124-.788-.17-1.3v-.178c.039-.1.083.215.083.215a4.225,4.225,0,0,0,0-.928c.022.066.042,0,.071-.1-.011-.265-.086-.166-.067-.527a.962.962,0,0,1,.116.269,2.46,2.46,0,0,0-.274-.948c.006-.1.145.163.2.278a1.624,1.624,0,0,0-.622-.91,1.576,1.576,0,0,1,.131.2c-.083-.105.007-.095.079-.02.236.241.208.424.194.445-.04-.068-.075-.138-.119-.2a2.276,2.276,0,0,0,.179.586,2.291,2.291,0,0,1,.122.768l-.091-.154v-.113a2.144,2.144,0,0,0-2.144-2.144h-.045a.4.4,0,0,0,.06-.123.474.474,0,0,0,.143.018,1.141,1.141,0,0,1,.143-.076c-.1-.009-.2,0-.3,0l0,0c-.042-.053-.17-.1-.5-.14l-.5.076-.163-.06.424,0a1.128,1.128,0,0,0-.563.028.433.433,0,0,0-.211-.067l-.494.119c-.06-.049.221-.1-.11-.124-.231.055.222.109-.161.145-.241-.056-.17-.1-.453-.054-.04-.032.02-.053.132-.067a5.259,5.259,0,0,0-.8.083c-.25-.07-.849.018-.824-.1a3.437,3.437,0,0,1-.674.1c.422-.142-.866-.008-.754-.16a12.663,12.663,0,0,1-1.682.127.351.351,0,0,1,.14-.024,4.513,4.513,0,0,1-.6-.073c-.04.105-.525.129-.787.194-.382-.1.233-.123.113-.221.019.086-.664.085-.534.156-.292-.063-.251-.031-.4-.118-.051.131-.271.022-.514.1-.423-.065-.109-.123-.573-.083-.221-.041.192-.087.192-.087-.473,0-.222.1-.322.154-.564.028-.261-.073-.453-.124-.353.026-.623.117-.885.113-.02-.017-.071-.022-.011-.043-.373.079-1.105,0-1.54.1a.132.132,0,0,1-.056-.025c.07.05.081.1.067.137-.212,0-.394.062-.473,0a.382.382,0,0,0,.2-.045l-.223.028c-.2-.093.3-.032.3-.1a10.676,10.676,0,0,1-1.27.081c-.069-.091.776-.031.333-.111l.514.035c-.392-.143.312.01-.049-.143-.676-.027-.756.046-1.43.02-.152.05.05.075-.1.125-.958.091-.754-.229-1.458-.107a1.1,1.1,0,0,1-.754.115l.171-.1c-.654-.01-.373.148-1.058.079.121-.041.514-.035.415-.047-.443-.082-.313.059-.655.059l-.071-.092c-.7.014-1.464.08-2.235.1.043-.027.175-.056-.006-.083-.973.045-2.076-.011-3.014-.065l-.359.079c-.084,0-.155-.036-.064-.051-.366-.03-.019.05-.195.081-.208.005-.274-.045-.143-.069a13.912,13.912,0,0,1-2.518.059l.133-.023c-.53-.032-.6.161-1.089.088l.094-.014c-.575-.017-1.179-.007-1.75-.009-.292,0-.545-.014-.848,0a3.158,3.158,0,0,0-.8.168c-.065.085-.348.23-.578.435s-.4.452-.35.529a2.736,2.736,0,0,0-.352.567,2.226,2.226,0,0,0-.168.868c-.007.247.1.368.115.673l-.083.008.086.414-.1.221.022.286c0-.114.037-.242.061-.225a3.168,3.168,0,0,1-.1,1.1l.07,1.058a1.127,1.127,0,0,1-.066-.341c.085.565-.087.1-.01.62.019-.07.049.037.066.049a7.181,7.181,0,0,0-.029,1.279l-.057-.083c-.014.785.027,1.654.026,2.534.026-.316.125-.244.135.015l-.088.1c.054.167.033-.269.1.073-.01.329-.1.221-.127.032l.03.4c-.026.023-.04-.071-.073-.095.054.164-.088.69.007.927l-.026.022c0,.88.029,1.279.034,2,.075.014.059.295.119.509-.024.527-.083,1.111-.076,1.746.037.446.064.131.109.331-.069.033-.062.667-.112.338.011.762.014.973.069,1.937.029-.1.041-.222.064-.161.011.175-.028.4-.062.373l-.007-.047c.1,1.082-.2,2.5-.057,3.358l-.008-.048.075.893c-.012.41-.052-.247-.094.057.115.964-.017,1.522.06,2.316a2.386,2.386,0,0,0-.086.612,2.721,2.721,0,0,0,.086.9,3.069,3.069,0,0,0,1.049,1.493l-.021-.07c.234.094.245.177.411.267-.011-.045-.227-.156-.076-.113a2.5,2.5,0,0,0,.754.209c.274.029.5.017.732.022l1.406.032,2.82.094c.681.013.386-.246,1.244-.133l-.243.089c1.373-.106,2.808,0,4.152-.086a.5.5,0,0,1-.214.046,2.784,2.784,0,0,0,1.055-.049c.209.005.049.047.178.073.284.038.715-.082.866-.018.026.01-.08.021-.133.026.186-.032.866.008.688-.067.5.036.965-.033,1.367.011.262-.083.864.04.947-.077-.036.121.885.1,1.2.04-.106.037.278.038.152.089.365,0,.7-.024.635-.086.671.145,1.348-.117,1.726.069,1.082-.065,2.083-.109,3.056-.137-.035.121-1.075.012-1.034.139.923-.049,1.456-.154,2.371-.124.237.016-.134.052-.215.073.922-.05,1.783.01,2.6-.056a.54.54,0,0,1-.174.033c.161,0,.376.018.358-.037l-.157.014c-.259-.08.642-.167.67-.208-.274.157.811.04.375.239.106-.011.24-.036.215-.073.158.011.208.032.048.073.579-.03.373-.088.9-.087,0,.027-.107.037-.162.068a3.566,3.566,0,0,1,.977-.081c-.027.016.025.037-.107.036.761-.008,1.3-.138,2.133-.088-.246.115.284.038.328.138l.457-.033a1.862,1.862,0,0,1-.187-.045,2.821,2.821,0,0,0,1.12-.268,2.165,2.165,0,0,1-.28.157,2.272,2.272,0,0,0,.7-.391,2.093,2.093,0,0,1-.4.206c.339-.257-.086-.068.37-.353a4.184,4.184,0,0,0,.464-.416c.087-.19.161-.379.271-.659.051-.069.09.094.124.05-.013-.113.048-.354.042-.609a2.265,2.265,0,0,0-.055-.606c.021.081.073.085.084.058l-.068-.161c.022-.182.032-.209.074-.179.013-.548-.127.174-.072-.477a1.009,1.009,0,0,1,.026.133c.028-.654-.044-1.263-.01-1.864.1-.177.025.525.109.322-.019-.866-.121-1.793-.1-2.631l-.011.156c-.143-.116.07-.624,0-1.048.01.1.079.136.063.108C52.2,40.6,52.139,40,52.1,39.133l.037.107c.032-.338.019-.89.035-1.255-.037-.109-.031-.318-.084-.19.208-1.127-.111-2.149.062-3.149,0,.119.032.285.032.19l-.033-.851c-.062.067-.038.112-.086.29a2.151,2.151,0,0,1-.065-.559c.041.382.1,0,.134-.169-.019.028-.04-.029-.059-.015.11-.445-.125-.075-.05-.682l.032.032A5.838,5.838,0,0,1,52,32.2c.072-.1.034.242.092.257a4.482,4.482,0,0,1-.064-.991c.02.146.02.356.04.5a2.244,2.244,0,0,0,.076-.631l0,.025.038-.583-.023.149c-.187-.431-.034-.877-.156-1.457.116.564.067.093.148.137.023-.149.048-.374.07-.309-.065-.275.052-.458-.043-.845C52.2,28.438,52.178,28.162,52.243,28.223ZM30.759,48.84l.394,0c.032.026,0,.052-.094.051C31.109,48.877,30.895,48.862,30.759,48.84Zm.909,0h0l.223,0Zm19.786-1.555a.362.362,0,0,0,.011-.132l-.089-.124.023.27,0,0c-.056.037-.094.149-.2.394a1.447,1.447,0,0,1-.1.407,1.277,1.277,0,0,1-.127.075,1.422,1.422,0,0,0,.173-.3,1.63,1.63,0,0,0-.228.4.407.407,0,0,0-.167.072,1.387,1.387,0,0,1-.274.319c-.063-.026.118-.161-.131-.077-.159.116.217.039-.078.181-.217-.006-.157-.06-.388.007-.034-.031.016-.053.1-.072a2.028,2.028,0,0,1-.4.039,1.029,1.029,0,0,0-.345.052c-.246-.071-.833.018-.808-.1a3.189,3.189,0,0,1-.661.1c.414-.141-.847-.008-.738-.16a12.008,12.008,0,0,1-1.647.127.324.324,0,0,1,.137-.024,4.412,4.412,0,0,1-.59-.073c-.04.1-.514.129-.771.194-.373-.1.227-.124.11-.221.019.085-.65.085-.523.155-.286-.062-.247-.03-.394-.117-.05.131-.266.022-.5.1-.414-.064-.107-.123-.562-.083-.216-.04.188-.086.188-.086-.463,0-.217.1-.316.153-.553.028-.256-.073-.444-.123-.345.026-.61.117-.867.113-.019-.017-.069-.022-.011-.043-.364.079-1.083,0-1.507.1a.132.132,0,0,1-.055-.025c.068.049.079.1.065.136-.208,0-.385.062-.463,0a.358.358,0,0,0,.2-.044l-.218.028c-.2-.092.3-.031.3-.1a10.376,10.376,0,0,1-1.243.081c-.068-.092.76-.031.326-.112l.5.035c-.385-.143.305.01-.048-.143-.661-.026-.74.047-1.4.02-.149.051.049.075-.1.126-.938.091-.739-.229-1.429-.108a1.047,1.047,0,0,1-.739.115l.168-.1c-.641-.01-.366.148-1.037.079.119-.041.5-.034.406-.046-.434-.081-.307.058-.641.058l-.069-.091c-.682.014-1.433.079-2.189.1.042-.028.172-.056-.005-.084a28.744,28.744,0,0,1-2.953-.065l-.351.079c-.082,0-.151-.035-.063-.05-.359-.03-.019.05-.191.08-.2.006-.269-.045-.14-.068a13.481,13.481,0,0,1-2.466.059l.13-.023c-.519-.032-.585.16-1.066.088l.092-.014c-1.125-.034-2.369.038-3.227-.081-.164.114-1.114-.05-1.187.108a12.97,12.97,0,0,0-1.34-.164c-.186-.026-.307.064-.553-.027l.031-.077a1.443,1.443,0,0,1-.334-.108,1.609,1.609,0,0,1-.065-.2,1.5,1.5,0,0,1-.161-.163c.048.077.093.177.067.181a.969.969,0,0,1-.281-.517.505.505,0,0,1,.008-.319c-.023-.122-.032-.306-.044-.479l-.035-.518a1.09,1.09,0,0,1,.066.333c-.085-.553.087-.1.01-.607-.019.068-.05-.037-.066-.048a6.971,6.971,0,0,0,.029-1.253l.057.082c.014-.768-.028-1.619-.026-2.482-.027.309-.125.238-.135-.015l.087-.1c-.053-.163-.032.265-.1-.07.01-.323.1-.217.127-.031l-.031-.391c.026-.023.04.068.073.092-.055-.161.087-.676-.007-.908l.026-.022c0-.862-.029-1.253-.034-1.955-.076-.014-.058-.289-.12-.5.024-.515.083-1.088.077-1.71-.037-.437-.064-.127-.109-.324.069-.032.062-.653.112-.331-.011-.746-.014-.953-.07-1.9-.028.1-.041.217-.064.157-.011-.171.029-.389.062-.365l.007.046c-.1-1.06.2-2.445.057-3.289l.007.047-.074-.875c.012-.4.052.242.094-.056-.114-.943.017-1.491-.059-2.268.2-.6-.014-2.134.115-2.946l-.047.046c-.047-.209.027-.253.038-.408-.038.022-.044.227-.069.1,0-.222-.009-.446-.014-.671a2.205,2.205,0,0,1,.043-.6,1.379,1.379,0,0,1,.67-.862,1.36,1.36,0,0,1,.524-.162c.161-.016.411,0,.64.01l1.377.044c.666.013.378-.247,1.218-.133l-.239.088c1.346-.106,2.75,0,4.067-.086a.5.5,0,0,1-.209.047,2.665,2.665,0,0,0,1.033-.049c.206.006.048.047.174.074.279.038.7-.083.848-.018.026.011-.078.021-.129.026.182-.031.847.008.673-.066.494.035.946-.033,1.34.01.257-.083.846.041.928-.077-.035.122.866.1,1.179.041-.1.036.272.037.149.089.356,0,.683-.024.621-.087.657.146,1.321-.116,1.69.07,1.059-.065,2.039-.11,2.993-.138-.035.121-1.054.012-1.012.139a23.037,23.037,0,0,1,2.321-.124c.232.017-.131.053-.21.073.9-.049,1.746.011,2.55-.055a.547.547,0,0,1-.171.033c.158,0,.368.017.35-.037l-.155.015c-.253-.079.629-.167.658-.208-.269.158.793.04.367.239.1-.011.235-.037.211-.074.154.01.2.032.047.074.567-.03.365-.089.88-.087,0,.026-.106.037-.159.068a3.416,3.416,0,0,1,.956-.082c-.026.016.024.037-.106.037.746-.008,1.271-.138,2.089-.088-.241.116.279.037.322.138l.44-.03-.176-.049c.386,0,.726-.071,1.057-.038l-.286.041.722-.019-.409-.038c.39-.052-.042-.127.471-.1a5.4,5.4,0,0,1,.587.06h0a2.43,2.43,0,0,1,.672-.041c.074.032-.06.11-.011.132a2.017,2.017,0,0,1,.551-.054c.235-.011.436,0,.56,0-.079,0-.091.053-.072.068.05-.008.105-.022.158-.026.151.076.163.1.123.127.416.248-.064-.212.4.163a.736.736,0,0,1-.113-.052,1.633,1.633,0,0,1,.692,1.47c-.05.087-.056-.043-.061-.167s-.02-.218-.055-.127c.032.805.125,1.744.1,2.555l.011-.152c.142.113-.07.611,0,1.026-.011-.1-.08-.133-.063-.106-.023.562.035,1.149.08,2l-.037-.106c-.032.332-.019.872-.035,1.231.036.106.031.311.083.186-.208,1.1.112,2.1-.062,3.084,0-.118-.032-.279-.032-.186l.034.833c.062-.065.038-.109.086-.284a2.068,2.068,0,0,1,.065.548c-.041-.375-.1,0-.133.165.019-.027.04.029.059.015-.11.436.125.073.05.667l-.033-.031a5.442,5.442,0,0,1,.05.668c-.071.1-.033-.237-.092-.253a4.3,4.3,0,0,1,.064.971c-.02-.143-.02-.349-.04-.492a2.127,2.127,0,0,0-.077.617l0-.024-.038.571.023-.146c.187.422.035.859.157,1.427-.116-.552-.067-.092-.149-.134-.022.145-.047.366-.07.3.065.268-.052.448.044.827-.026.017,0,.287-.068.227.021.349.046-.083.078-.053.089.539-.108,1.265.014,2.04.046.614.125.772.171,1.275v.174c-.04.1-.083-.209-.083-.209a4.006,4.006,0,0,0,0,.909c-.023-.064-.042,0-.071.1.007.256.094.171.056.507a.99.99,0,0,1-.1-.254q.047.447.1.908c-.046.083-.069-.187-.1-.3a4.319,4.319,0,0,0,.113,1.014l.025-.224c0,.128-.062.065-.075-.028-.056-.3.025-.432.051-.449l.017.221c.153-.227-.025-.89-.016-1.336l.091.151V47.3c0,.015,0,.028,0,.043A.339.339,0,0,0,51.454,47.284Zm.125-5.966a.731.731,0,0,1-.064-.24l.064-.124Zm0,2.506-.072-.355c.018-.059.047-.1.072-.077Zm0-11.6c-.026-.022-.05-.1-.064-.287a.071.071,0,0,1,.064-.011Zm.473-8.105c-.017.061-.047.1-.071.078v-.441ZM28.494,21.226l.228,0-.228.006Zm-.526.005c.033.026,0,.053-.1.052.051-.018-.168-.032-.306-.055ZM52.044,35.892a.069.069,0,0,1-.064.011v-.3C52.007,35.622,52.029,35.7,52.044,35.892Zm-.064-9.209v-.371a.765.765,0,0,1,.063.245Z" transform="translate(-16.443 -21)" fill="#202020"/>
          <path id="Path_21327" data-name="Path 21327" d="M16.525,25.563h.019l-.017-.081Z" transform="translate(-16.464 -22.12)" fill="#202020"/>
          <path id="Path_21328" data-name="Path 21328" d="M64.021,37.708a.177.177,0,0,0,.019-.068A.217.217,0,0,0,64.021,37.708Z" transform="translate(-28.338 -25.16)" fill="#202020"/>
          <path id="Path_21329" data-name="Path 21329" d="M64.044,34.682l.026-.312C64.055,34.505,64.048,34.6,64.044,34.682Z" transform="translate(-28.344 -24.342)" fill="#202020"/>
          <path id="Path_21330" data-name="Path 21330" d="M64.082,32.512a.083.083,0,0,0-.032-.033v0Z" transform="translate(-28.345 -23.87)" fill="#202020"/>
          <path id="Path_21331" data-name="Path 21331" d="M52.967,59.307l-.066,0C52.748,59.325,52.853,59.319,52.967,59.307Z" transform="translate(-25.539 -30.577)" fill="#202020"/>
          <path id="Path_21332" data-name="Path 21332" d="M63.392,57.779a1.448,1.448,0,0,1-.143.235C63.358,57.907,63.422,57.8,63.392,57.779Z" transform="translate(-28.145 -30.195)" fill="#202020"/>
          <path id="Path_21333" data-name="Path 21333" d="M41.04,59.428h0Z" transform="translate(-22.579 -30.607)" fill="#202020"/>
          <path id="Path_21334" data-name="Path 21334" d="M63.152,58.093c-.085.092-.2.186-.29.274A1.091,1.091,0,0,0,63.152,58.093Z" transform="translate(-28.048 -30.273)" fill="#202020"/>
          <path id="Path_21335" data-name="Path 21335" d="M63.511,22.539s-.009,0-.016,0l.067.077Z" transform="translate(-28.206 -21.384)" fill="#202020"/>
          <path id="Path_21336" data-name="Path 21336" d="M63.472,22.512l-.067-.074A.285.285,0,0,0,63.472,22.512Z" transform="translate(-28.184 -21.359)" fill="#202020"/>
          <path id="Path_21337" data-name="Path 21337" d="M63.2,22.247l.154.143A.571.571,0,0,0,63.2,22.247Z" transform="translate(-28.133 -21.312)" fill="#202020"/>
          <path id="Path_21338" data-name="Path 21338" d="M64.1,26.4a4.923,4.923,0,0,0,.041-.636l-.022-.021C64.159,25.851,64.053,26.248,64.1,26.4Z" transform="translate(-28.354 -22.186)" fill="#202020"/>
          <path id="Path_21339" data-name="Path 21339" d="M64.062,53.035,64.1,52.8l-.063-.11Z" transform="translate(-28.343 -28.924)" fill="#202020"/>
          <path id="Path_21340" data-name="Path 21340" d="M22.41,33.217c-.01-.024.028-.042.061-.038-.022-.008.02-.037-.036-.049-.069.031-.072.07-.015.112a.105.105,0,0,1-.059,0,.269.269,0,0,0,.2.043C22.476,33.253,22.512,33.247,22.41,33.217Z" transform="translate(-17.923 -24.032)" fill="#202020"/>
          <path id="Path_21341" data-name="Path 21341" d="M22.639,33.7a.056.056,0,0,0-.024-.021l.01.019Z" transform="translate(-17.986 -24.169)" fill="#202020"/>
          <path id="Path_21342" data-name="Path 21342" d="M24.129,32.3a.292.292,0,0,1-.019-.068C24.116,32.286,24.054,32.306,24.129,32.3Z" transform="translate(-18.356 -23.808)" fill="#202020"/>
          <path id="Path_21343" data-name="Path 21343" d="M22.622,33.718l0-.014a.058.058,0,0,0-.028,0C22.609,33.707,22.618,33.711,22.622,33.718Z" transform="translate(-17.98 -24.176)" fill="#202020"/>
          <path id="Path_21344" data-name="Path 21344" d="M27.248,36.657a.128.128,0,0,0,.038.053.059.059,0,0,0,.007-.02Z" transform="translate(-19.145 -24.914)" fill="#202020"/>
          <path id="Path_21345" data-name="Path 21345" d="M22.526,33.424l.009.007,0-.005Z" transform="translate(-17.964 -24.106)" fill="#202020"/>
          <path id="Path_21346" data-name="Path 21346" d="M22.433,33.411c0-.016.052-.009.07,0-.014-.013-.023-.028-.044-.033Z" transform="translate(-17.941 -24.095)" fill="#202020"/>
          <path id="Path_21347" data-name="Path 21347" d="M27.951,32.354v-.019l-.007.016Z" transform="translate(-19.319 -23.834)" fill="#202020"/>
          <path id="Path_21348" data-name="Path 21348" d="M22.6,34.752l-.032,0h0Z" transform="translate(-17.974 -24.437)" fill="#202020"/>
          <path id="Path_21349" data-name="Path 21349" d="M25.276,36.773l.008,0C25.305,36.755,25.291,36.76,25.276,36.773Z" transform="translate(-18.652 -24.94)" fill="#202020"/>
          <path id="Path_21350" data-name="Path 21350" d="M23.835,37a.193.193,0,0,1,.035-.035C23.85,36.957,23.836,36.955,23.835,37Z" transform="translate(-18.291 -24.99)" fill="#202020"/>
          <path id="Path_21351" data-name="Path 21351" d="M26.885,36.656h0Z" transform="translate(-19.054 -24.914)" fill="#202020"/>
          <path id="Path_21352" data-name="Path 21352" d="M22.656,33.419a.029.029,0,0,1-.012,0l.009.012Z" transform="translate(-17.994 -24.104)" fill="#202020"/>
          <path id="Path_21353" data-name="Path 21353" d="M22.607,33.367l.019.026C22.626,33.384,22.628,33.373,22.607,33.367Z" transform="translate(-17.984 -24.092)" fill="#202020"/>
          <path id="Path_21354" data-name="Path 21354" d="M22.616,33.93c.006-.022.059-.055.041-.085l-.022,0C22.676,33.856,22.57,33.91,22.616,33.93Z" transform="translate(-17.984 -24.21)" fill="#202020"/>
          <path id="Path_21355" data-name="Path 21355" d="M23.219,36.883l.041-.01-.012-.047Z" transform="translate(-18.137 -24.957)" fill="#202020"/>
          <path id="Path_21356" data-name="Path 21356" d="M23.14,37.886c.052-.079.055-.042.105-.137.03-.005.048.035.04.067.013-.022.047.022.065-.033-.035-.071-.077-.074-.135-.028-.007-.021.006-.042.011-.058A.249.249,0,0,0,23.14,37.886Z" transform="translate(-18.117 -25.174)" fill="#202020"/>
          <path id="Path_21357" data-name="Path 21357" d="M22.655,37.807a.071.071,0,0,0,.035-.009l-.028,0Z" transform="translate(-17.996 -25.199)" fill="#202020"/>
          <path id="Path_21358" data-name="Path 21358" d="M26.327,38.1a.265.265,0,0,1-.022-.068C26.312,38.084,26.24,38.1,26.327,38.1Z" transform="translate(-18.903 -25.258)" fill="#202020"/>
          <path id="Path_21359" data-name="Path 21359" d="M22.64,37.782l.019,0a.048.048,0,0,0,.01-.027C22.658,37.775,22.65,37.782,22.64,37.782Z" transform="translate(-17.993 -25.19)" fill="#202020"/>
          <path id="Path_21360" data-name="Path 21360" d="M25.044,30.859a.133.133,0,0,0,.043.052.079.079,0,0,0,.009-.02Z" transform="translate(-18.594 -23.465)" fill="#202020"/>
          <path id="Path_21361" data-name="Path 21361" d="M23.065,37.733c.019,0,0,.051-.019.066.017-.01.041-.014.05-.032Z" transform="translate(-18.094 -25.183)" fill="#202020"/>
          <path id="Path_21362" data-name="Path 21362" d="M23.041,37.821c-.005,0-.008.007-.014.008s.006,0,.01,0Z" transform="translate(-18.089 -25.205)" fill="#202020"/>
          <path id="Path_21363" data-name="Path 21363" d="M30.066,35.821h-.019l.017.013Z" transform="translate(-19.844 -24.705)" fill="#202020"/>
          <path id="Path_21364" data-name="Path 21364" d="M21.711,36.8l.032-.007h0Z" transform="translate(-17.76 -24.947)" fill="#202020"/>
          <path id="Path_21365" data-name="Path 21365" d="M22.632,31.164l.01-.008C22.662,31.13,22.646,31.144,22.632,31.164Z" transform="translate(-17.991 -23.535)" fill="#202020"/>
          <path id="Path_21366" data-name="Path 21366" d="M21.669,32.752a.24.24,0,0,1-.029-.049C21.632,32.726,21.627,32.745,21.669,32.752Z" transform="translate(-17.741 -23.926)" fill="#202020"/>
          <path id="Path_21367" data-name="Path 21367" d="M24.625,30.858h0Z" transform="translate(-18.489 -23.464)" fill="#202020"/>
          <path id="Path_21368" data-name="Path 21368" d="M21.642,32.682c.007-.02.022-.041.016-.063A.055.055,0,0,0,21.642,32.682Z" transform="translate(-17.742 -23.905)" fill="#202020"/>
          <path id="Path_21369" data-name="Path 21369" d="M23.018,37.939l-.019,0,.014.007A.02.02,0,0,1,23.018,37.939Z" transform="translate(-18.082 -25.235)" fill="#202020"/>
          <path id="Path_21370" data-name="Path 21370" d="M23.086,37.919l-.037.011C23.06,37.932,23.073,37.938,23.086,37.919Z" transform="translate(-18.095 -25.23)" fill="#202020"/>
          <path id="Path_21371" data-name="Path 21371" d="M22.371,37.615c.019.024.031.089.076.1l.014-.016C22.423,37.72,22.418,37.6,22.371,37.615Z" transform="translate(-17.925 -25.153)" fill="#202020"/>
          <path id="Path_21372" data-name="Path 21372" d="M21.55,33.513l-.043.036.063.017Z" transform="translate(-17.709 -24.128)" fill="#202020"/>
          <path id="Path_21373" data-name="Path 21373" d="M51.458,33.084a.133.133,0,0,1,0-.059.315.315,0,0,0-.019.2c.014-.086.022-.051.039-.153.019-.011.035.026.032.059.006-.023.029.018.038-.038C51.52,33.027,51.487,33.026,51.458,33.084Z" transform="translate(-25.19 -24.006)" fill="#202020"/>
          <path id="Path_21374" data-name="Path 21374" d="M51.173,33.338a.058.058,0,0,0,.011-.026l-.013.012Z" transform="translate(-25.125 -24.078)" fill="#202020"/>
          <path id="Path_21375" data-name="Path 21375" d="M53.229,33.915c-.031.043-.074.029-.033.061A.533.533,0,0,1,53.229,33.915Z" transform="translate(-25.627 -24.229)" fill="#202020"/>
          <path id="Path_21376" data-name="Path 21376" d="M51.158,33.324l.01-.005a.079.079,0,0,0-.007-.028C51.163,33.31,51.162,33.319,51.158,33.324Z" transform="translate(-25.122 -24.073)" fill="#202020"/>
          <path id="Path_21377" data-name="Path 21377" d="M50.107,37.612a.144.144,0,0,0-.015.057.081.081,0,0,0,.017-.011Z" transform="translate(-24.856 -25.153)" fill="#202020"/>
          <path id="Path_21378" data-name="Path 21378" d="M51.361,33.2l0,.005,0,0Z" transform="translate(-25.172 -24.05)" fill="#202020"/>
          <path id="Path_21379" data-name="Path 21379" d="M51.355,33.1c.014,0,.013.056.005.073a.118.118,0,0,0,.022-.048Z" transform="translate(-25.171 -24.025)" fill="#202020"/>
          <path id="Path_21380" data-name="Path 21380" d="M53.962,36.377l.019,0-.014-.011Z" transform="translate(-25.823 -24.842)" fill="#202020"/>
          <path id="Path_21381" data-name="Path 21381" d="M50.437,33.552l-.012-.03h0Z" transform="translate(-24.939 -24.13)" fill="#202020"/>
          <path id="Path_21382" data-name="Path 21382" d="M49.286,36.559l0,.005C49.309,36.573,49.3,36.566,49.286,36.559Z" transform="translate(-24.654 -24.89)" fill="#202020"/>
          <path id="Path_21383" data-name="Path 21383" d="M48.964,35.531a.2.2,0,0,1,.031.03C49,35.548,49.006,35.537,48.964,35.531Z" transform="translate(-24.574 -24.633)" fill="#202020"/>
          <path id="Path_21384" data-name="Path 21384" d="M49.938,37.443h0l0,0Z" transform="translate(-24.817 -25.111)" fill="#202020"/>
          <path id="Path_21385" data-name="Path 21385" d="M51.368,33.322l.008,0v-.012Z" transform="translate(-25.175 -24.078)" fill="#202020"/>
          <path id="Path_21386" data-name="Path 21386" d="M51.407,33.273l-.016.02C51.4,33.292,51.4,33.295,51.407,33.273Z" transform="translate(-25.18 -24.068)" fill="#202020"/>
          <path id="Path_21387" data-name="Path 21387" d="M50.987,33.357c.017,0,.052.047.07.024l0-.022C51.054,33.4,50.991,33.308,50.987,33.357Z" transform="translate(-25.079 -24.086)" fill="#202020"/>
          <path id="Path_21388" data-name="Path 21388" d="M49.146,35.075l.047-.009-.056-.029Z" transform="translate(-24.617 -24.509)" fill="#202020"/>
          <path id="Path_21389" data-name="Path 21389" d="M51.354,39.429c.035-.083.04-.048.075-.148.024-.009.04.031.035.063.009-.022.037.022.051-.034-.029-.07-.066-.074-.11-.02a.108.108,0,0,1,.005-.058A.278.278,0,0,0,51.354,39.429Z" transform="translate(-25.171 -25.558)" fill="#202020"/>
          <path id="Path_21390" data-name="Path 21390" d="M50.964,39.457a.06.06,0,0,0,.026-.02l-.022.006Z" transform="translate(-25.074 -25.609)" fill="#202020"/>
          <path id="Path_21391" data-name="Path 21391" d="M54.075,38.73a.3.3,0,0,1-.059-.038C54.056,38.728,54.018,38.788,54.075,38.73Z" transform="translate(-25.837 -25.423)" fill="#202020"/>
          <path id="Path_21392" data-name="Path 21392" d="M50.949,39.437h.015a.068.068,0,0,0,0-.028C50.962,39.426,50.956,39.434,50.949,39.437Z" transform="translate(-25.07 -25.602)" fill="#202020"/>
          <path id="Path_21393" data-name="Path 21393" d="M49.1,32.9a.133.133,0,0,0,.064.012.067.067,0,0,0-.007-.021Z" transform="translate(-24.608 -23.973)" fill="#202020"/>
          <path id="Path_21394" data-name="Path 21394" d="M47.958,34.877c0,.056.076.1.046.149l-.043-.039.025.1.035-.06c.054.051.126-.014.1.058-.01-.014,0,.052-.052.086h0c.035.022.073.044.054.086-.03.015-.111.008-.131.018.087.013.041.124.137.138a.182.182,0,0,0-.085.009l.072.008c-.015.028-.024.034-.066.04.007.077.118-.052.086.047-.007-.006-.016,0-.029-.011-.005.095.082.155.082.241-.086.056-.048-.06-.119-.007.059.113.2.192.23.3V36.02c.134-.05-.027.109.06.13-.016-.007-.078.021-.063.017.022.08.115.125.216.2l-.039.009c0,.055.058.109.075.16.038-.01.051.016.082-.031-.058.256.269.146.249.356-.013-.01-.051,0-.041.006l.109.055c.034-.053.013-.039.027-.092a.094.094,0,0,1,.1,0c-.063,0-.065.077-.068.118.009-.016.028-.028.039-.044-.02.122.086-.091.1.014l-.023.023c.035.005.082-.013.1.013-.031.067-.045.008-.082.055.041.025.149-.056.145.023-.028.007-.052-.007-.079,0-.01.1.008.08.03.11v0l.049.075-.006-.031c.148-.131.118.038.247-.038-.121.07-.042.053-.085.123.007.029.025.065.007.082.064-.042.037.075.126.012-.008.025.036.02,0,.076.054,0,.007-.047.025-.075.1-.05.13.166.275.09.1-.021.144-.1.226-.121l.007,0c.007.044-.043.079-.043.079a.086.086,0,0,0,.121.031c-.014.021-.008.041,0,.072.037,0,.04-.09.079-.045a.45.45,0,0,1-.053.1c.047-.017.1-.059.141-.076.006.047-.035.065-.055.092a.34.34,0,0,0,.107-.044c-.04.031-.049-.04-.048-.064l.032-.012c-.011-.156-.121.007-.184-.012l.038-.089a2.51,2.51,0,0,0,.448.046H50.7c0,.044-.007.089-.007.131,0-.012-.009-.022-.019-.019l-.019.088.039-.022v-.009a.189.189,0,0,0,.072.144l.07-.08.027.059-.062.007c.037.055.058,0,.08-.032a.112.112,0,0,0,.036.065l.06-.123c.014.048-.022.1.029.121.027-.06-.043-.1.007-.148.04.051.037.1.07.044a.064.064,0,0,1-.01.069c.032-.044.095-.031.1-.1.049.064.116-.038.137.076a.222.222,0,0,1,.072-.119c-.024.152.123-.023.15.126.008-.131.141-.109.192-.2,0,.011,0,.033-.011.03.046-.006.073.025.111.037-.035-.1.018-.152.022-.226.093.067.023.125.08.206-.038-.076.051-.119,0-.174.066.038.046.011.107.079-.055-.119.026-.036.016-.126.084.025.075.1.113.029.049.017.019.089.019.089.062-.035-.022-.1-.038-.157.055-.066.071.042.122.07.032-.05.013-.146.045-.167.012.011.022.012.026.034,0-.1.128-.1.114-.215a.084.084,0,0,1,.022.014.559.559,0,0,1-.094-.1c.021-.021,0-.083.049-.042-.015.01,0,.031.008.052l0-.042c.081.052-.01.052.035.1.026-.064.026-.168.077-.179.071.059-.059.1.042.112l-.077.023c.137.07-.04.023.1.1.092-.049.053-.106.14-.16-.021-.052-.058-.047-.08-.1.023-.16.243.074.222-.084-.03-.059-.115-.139-.024-.158l.066.083c.066-.071-.085-.132.029-.169.022.037-.017.079,0,.074.1,0-.02-.07.008-.109l.081.043c.041-.1.047-.222.079-.326.022.017.038.048.074.038a.923.923,0,0,1,.233-.384l-.057-.073c.005-.011.04-.011.052.006.042-.044-.047-.017-.07-.051,0-.03.053-.026.071,0-.039-.112-.073-.287.02-.37l.02.022c.043-.073-.147-.106-.064-.166l.011.015c.048-.162-.017-.338.091-.47-.113-.016.041-.17-.122-.163.064-.1.1-.08.127-.223,0-.038-.107-.034-.134-.072l.08-.02-.1-.037.087-.056-.031-.035a.066.066,0,0,1-.05.047c-.05-.051.013-.167.05-.182l-.119-.121c.032-.009.052.011.079.023-.107-.047.076-.046-.023-.09-.014.017-.047.014-.063.019.035-.055-.006-.133-.052-.181l.056-.014a1.641,1.641,0,0,0-.208-.315c0,.054-.086.1-.113.072l.065-.061c-.058.01-.007.051-.088.047-.019-.043.063-.083.1-.076l-.06-.029c.02-.018.039-.015.068-.031-.059.012.008-.135-.088-.107l.018-.019c-.076-.108-.146-.127-.219-.2-.056.05-.071.008-.135.029a.651.651,0,0,0-.135-.226c-.073-.013-.055.038-.106.054.04-.055-.037-.106.031-.116a.563.563,0,0,0-.268-.1c0,.032,0,.05-.015.065-.027,0-.032-.053-.012-.079l.009,0c-.173.007-.227-.352-.406-.271l.009,0-.148.025c-.052-.031.051-.036.023-.091-.166.056-.211-.078-.341-.036-.05-.217-.314-.046-.422-.174l0,.048c-.035.045-.037-.029-.06-.041,0,.038.032.045.012.07-.262.041-.549-.059-.84-.033-.105.014.007.252-.144.175l.009-.094c-.161.159-.4.141-.532.316,0-.024-.012-.048.005-.056-.068-.037-.136.078-.108.121-.029.011-.031-.037-.062-.05-.057-.009-.046.123-.1.084-.009-.007,0-.025,0-.033,0,.042-.108.07-.043.115-.08.016-.093.109-.165.113.026.088-.121.055-.05.149-.077-.092-.166.016-.152.092-.016-.037-.055,0-.079-.044-.035.041-.052.093,0,.127-.18-.023-.031.223-.212.153l-.118.447c-.108-.063.063-.139-.048-.2-.032.142.037.26-.047.362-.03.024-.041-.038-.054-.057-.009.14-.107.238-.08.371-.01,0-.019-.019-.025-.034,0,.023-.031.047.023.06l-.008-.026c.085-.011.137.133.178.146-.143-.076-.066.1-.244-.007a.076.076,0,0,0,.063.047c-.016.02-.038.022-.074-.01.008.088.076.07.062.143-.026,0-.034-.022-.064-.035.045.047.091.091.059.149-.015-.006-.037,0-.034-.019-.012.109.121.193.063.3-.113-.038-.04.038-.14.043a.627.627,0,0,0,.031.064Zm4.533-.865c-.018,0-.022.029-.035.051a.146.146,0,0,0-.015-.037C52.463,34.011,52.488,34,52.491,34.012Zm-.076-.032h0l-.014-.018ZM50.7,32.734c0,.044-.006.088-.006.13,0-.011-.007-.021-.015-.016l-.011.09.027-.026V32.9a.28.28,0,0,0,.046.148l.051-.073.012.062h-.04c.02.058.036.008.055-.026a.142.142,0,0,0,.015.068l.057-.116c0,.05-.03.094,0,.125.028-.051-.01-.112.032-.142.016.06,0,.1.037.061a.091.091,0,0,1-.022.064c.029-.035.064-.007.087-.07.011.071.085,0,.057.112.013-.026.061-.08.085-.079-.074.127.077.028.025.171.064-.116.113-.02.187-.069-.006.009-.019.025-.021.018.024.02.017.058.025.086.043-.1.1-.1.146-.144-.01.108-.073.1-.1.195.034-.078.091-.049.112-.118a.227.227,0,0,1-.02.121c.066-.114.034-.01.092-.068,0,.077-.052.112,0,.1,0,.045-.059.066-.059.066.035.023.067-.073.1-.117.061,0-.017.075-.03.127.041-.008.113-.068.131-.05-.008.015-.007.022-.024.036.074-.043.084.057.179.007a.106.106,0,0,1-.011.023.816.816,0,0,1,.082-.109c.017.013.071-.02.035.035-.009-.011-.027.008-.044.02l.035-.006c-.046.084-.044,0-.088.056.05.005.14-.017.148.025-.059.07-.078-.029-.1.059l-.013-.059c-.068.132-.015-.027-.092.11.026.062.084.011.108.075.046-.025.05-.056.1-.08.131.01-.122.206.013.174.057-.026.152-.091.134-.014l-.091.05c.028.054.139-.061.124.033-.04.014-.058-.019-.061,0-.041.08.065-.011.085.016l-.072.057c.044.047.142.073.19.134-.025.008-.056.011-.073.039.083.06.073.183.047.279l.087.007c0,.007-.031.025-.047.021-.021.041.048-.013.081-.006.011.018-.037.037-.062.032.078.037.185.138.108.218l-.026-.009c-.024.053.169.034.1.092l-.016-.008c-.025.113.053.239-.074.317.112.025-.055.1.1.126-.087.053-.113.031-.177.106-.009.02.09.053.1.085l-.081-.018.074.058-.1,0,.014.031a.079.079,0,0,1,.064,0c.026.053-.083.084-.124.07l.032.116c-.031-.014-.035-.034-.051-.053.061.079-.084-.023-.028.049.019,0,.044.022.059.029a.086.086,0,0,0-.077.1l-.048-.032c-.04.058-.047.143-.089.212.037-.01.117.048.112.076l-.078-.04c.037.043.04,0,.079.061-.028.021-.095-.039-.107-.069l0,.047a.574.574,0,0,1-.055-.049c.035.043-.107,0-.045.07l-.022-.014c-.044.065-.052.105-.091.158.054.053.024.061.054.119-.055.017-.136.01-.175.055-.008.056.032.057.044.1-.046-.051-.09-.01-.1-.068a.5.5,0,0,0-.109.162c.023.019.04.023.048.046-.009.019-.049,0-.064-.034v-.008c-.042.151-.3-.065-.307.094v-.008l-.053.1c-.041,0,.005-.056-.036-.086-.048.143-.139.022-.191.117-.094-.188-.2.053-.289-.077l.007.047c-.016.047-.025-.026-.04-.036,0,.037.023.041.013.068-.172.069-.349-.078-.49-.158-.052-.027-.1.229-.145.1l.048-.08c-.154.065-.234-.088-.383-.067.017-.014.029-.037.04-.031.008-.068-.079-.052-.109-.008-.014-.015.021-.043.025-.071,0-.046-.1.036-.076-.026,0-.011.017-.013.024-.014-.032.016-.058-.054-.089.017-.015-.057-.094-.027-.095-.086-.072.047-.032-.084-.117,0,.085-.088.005-.124-.054-.109.033-.018.01-.045.055-.071-.023-.023-.06-.03-.1.015.068-.137-.173-.027-.046-.168A.679.679,0,0,1,49,35.744c.1-.052.061.085.169.017-.089-.043-.2-.049-.213-.141.005-.027.054-.009.077-.011-.082-.06-.052-.158-.137-.212a.055.055,0,0,1,.035.007c-.007-.013.008-.039-.044-.022l.018.011c-.07.048-.176-.017-.217-.011.159-.012.017-.089.222-.093a.1.1,0,0,0-.077,0c.007-.017.026-.026.071-.02-.043-.047-.094-.017-.1-.068a.46.46,0,0,1,.069,0c-.055-.016-.11-.034-.095-.081.017,0,.036-.007.038.005-.022-.07-.149-.115-.1-.2.116.021.036-.03.136-.035a.481.481,0,0,1-.029-.043l-.049.017c0-.038-.068-.076-.033-.109l.04.031-.015-.074-.041.04c-.049-.044-.126,0-.1-.057.01.012,0-.043.065-.057h0c-.028-.023-.058-.049-.029-.076.032,0,.108.022.13.021-.079-.032-.01-.095-.091-.137a.21.21,0,0,0,.08.023l-.062-.03c.026-.014.037-.014.077,0,.026-.05-.128-.012-.058-.064,0,.006.015.007.022.02.043-.056-.011-.138.045-.186.1.017,0,.058.092.066.01-.083-.052-.211.01-.278L48.893,34c-.122-.073.09-.027.05-.094,0,.014.062.05.049.039.05-.037.029-.116.041-.218l.023.029c.048-.009.07-.061.1-.08-.022-.031,0-.044-.054-.067.23.048.064-.248.266-.194-.009.008,0,.043.007.037l.041-.082c-.045-.043-.032-.021-.078-.045a.085.085,0,0,1,0-.09c0,.06.064.075.1.093-.014-.014-.023-.033-.037-.047.107.058-.071-.1.027-.082l.017.028c.009-.028,0-.076.028-.084.05.052,0,.043.032.091.025-.023-.021-.156.049-.112,0,.025-.022.036-.023.062.076.048.068.031.1.028h0l.07,0-.025-.012c-.057-.181.057-.079.056-.211,0,.128.022.063.055.137.024.014.056.026.06.049,0-.07.062.028.055-.076.012.023.027-.011.048.053.022-.035-.026-.038-.036-.07.017-.107.157.056.189-.087.047-.062.047-.137.089-.2l.012,0a.124.124,0,0,1,0,.083c.044.029.068.013.1-.021a.113.113,0,0,0,.024.068c.025-.011,0-.1.043-.064a.737.737,0,0,1-.008.107c.025-.028.048-.081.078-.109.014.044-.01.072-.017.1a.291.291,0,0,0,.068-.073c-.024.052-.046-.021-.051-.046l.022-.02c-.044-.148-.094.04-.139.037v-.089a2.168,2.168,0,0,1,.378-.038Zm-.436.044c.014,0,.03,0,.044-.005l-.024.074A.17.17,0,0,1,50.268,32.777Zm-.226.07a.153.153,0,0,1,0,.059l-.03-.049Zm-.857.518a.084.084,0,0,1,.025.067.468.468,0,0,1-.045-.043C49.172,33.382,49.178,33.374,49.185,33.366Zm-.356,3.3a.561.561,0,0,1,.047-.047c.008.009.015.02.024.029A.073.073,0,0,1,48.829,36.669Zm1.039.659.007-.074.047.014A.13.13,0,0,1,49.868,37.328Zm.311.095a.136.136,0,0,1,.007-.072c.018,0,.037,0,.056.006Zm2.939-1.268.009-.031h0Zm.037-.1c-.025-.007-.047-.023-.04-.034.013.014.04-.007.068-.015A.3.3,0,0,0,53.156,36.055Z" transform="translate(-24.303 -23.735)" fill="#202020"/>
          <path id="Path_21395" data-name="Path 21395" d="M51.267,39.384s-.007.009-.011.012,0,0,.007,0Z" transform="translate(-25.147 -25.596)" fill="#202020"/>
          <path id="Path_21396" data-name="Path 21396" d="M51.279,39.3c.016,0,0,.048-.008.066.013-.011.03-.018.036-.039Z" transform="translate(-25.15 -25.574)" fill="#202020"/>
          <path id="Path_21397" data-name="Path 21397" d="M55.37,34.979l-.019,0,.019.008Z" transform="translate(-26.17 -24.495)" fill="#202020"/>
          <path id="Path_21398" data-name="Path 21398" d="M49.942,39.062l.02-.027h0Z" transform="translate(-24.818 -25.508)" fill="#202020"/>
          <path id="Path_21399" data-name="Path 21399" d="M48.034,34.737v-.01C48.026,34.7,48.026,34.717,48.034,34.737Z" transform="translate(-24.34 -24.428)" fill="#202020"/>
          <path id="Path_21400" data-name="Path 21400" d="M48.118,36.24a.179.179,0,0,1-.041-.031C48.075,36.229,48.075,36.244,48.118,36.24Z" transform="translate(-24.352 -24.802)" fill="#202020"/>
          <path id="Path_21401" data-name="Path 21401" d="M48.812,33.179h0l.006-.006Z" transform="translate(-24.536 -24.043)" fill="#202020"/>
          <path id="Path_21402" data-name="Path 21402" d="M51.259,39.506l-.014.007.011.005Z" transform="translate(-25.144 -25.626)" fill="#202020"/>
          <path id="Path_21403" data-name="Path 21403" d="M51.311,39.472l-.028.017C51.291,39.49,51.3,39.493,51.311,39.472Z" transform="translate(-25.153 -25.618)" fill="#202020"/>
          <path id="Path_21404" data-name="Path 21404" d="M50.71,39.374c.02.012.042.071.077.063l.008-.021C50.771,39.452,50.742,39.335,50.71,39.374Z" transform="translate(-25.01 -25.592)" fill="#202020"/>
          <path id="Path_21405" data-name="Path 21405" d="M48.16,36.894l-.031.043.065,0A.4.4,0,0,1,48.16,36.894Z" transform="translate(-24.365 -24.973)" fill="#202020"/>
          <path id="Path_21406" data-name="Path 21406" d="M52.066,42.454c-.059.083-.07.046-.132.145a.058.058,0,0,1-.07-.065c-.017.023-.071-.022-.1.032a.144.144,0,0,0,.212.026c.016.02,0,.042-.006.059C52.028,42.609,52.1,42.537,52.066,42.454Z" transform="translate(-25.274 -26.363)" fill="#202020"/>
          <path id="Path_21407" data-name="Path 21407" d="M52.877,42.515a.094.094,0,0,0-.044.016l.04,0Z" transform="translate(-25.541 -26.379)" fill="#202020"/>
          <path id="Path_21408" data-name="Path 21408" d="M47.132,43.994a.216.216,0,0,1,.074.023C47.16,43.987,47.238,43.888,47.132,43.994Z" transform="translate(-24.116 -26.737)" fill="#202020"/>
          <path id="Path_21409" data-name="Path 21409" d="M52.912,42.533h-.028a.035.035,0,0,0,0,.028C52.891,42.543,52.9,42.535,52.912,42.533Z" transform="translate(-25.553 -26.383)" fill="#202020"/>
          <path id="Path_21410" data-name="Path 21410" d="M55.583,45.34a.174.174,0,0,0,0-.085.066.066,0,0,0-.023,0Z" transform="translate(-26.222 -27.064)" fill="#202020"/>
          <path id="Path_21411" data-name="Path 21411" d="M55.043,47.519c0-.1-.079-.191-.049-.281l.044.074a1.83,1.83,0,0,0-.032-.192c-.009.037-.016.074-.028.112-.059-.1-.124.02-.11-.116.014.026-.01-.1.042-.159h0a.192.192,0,0,1-.062-.169c.029-.024.113,0,.131-.017-.092-.036-.069-.233-.168-.277a.1.1,0,0,0,.086,0l-.075-.027c.013-.05.021-.06.064-.062-.018-.142-.11.072-.1-.1.009.011.017,0,.035.027-.02-.17-.123-.305-.143-.461.081-.076.068.122.132.046-.1-.211-.264-.4-.34-.607l.007.041c-.142.032,0-.176-.11-.248.02.02.086,0,.068,0a1.5,1.5,0,0,0-.328-.425l.045,0a1.8,1.8,0,0,0-.158-.29c-.046,0-.072-.05-.1.008.005-.185-.12-.272-.23-.355s-.225-.152-.264-.3c.023.021.077.028.059.011l-.187-.129c-.029.058,0,.048,0,.116a.192.192,0,0,1-.148-.049c.1.035.065-.076.055-.132-.007.02-.031.026-.041.043-.021-.156-.094.084-.171-.066L53,43.509c-.057-.022-.125-.019-.17-.064.021-.074.069.01.107-.035-.076-.05-.217.006-.242-.1.043,0,.085.037.127.042-.023-.12-.042-.114-.092-.156l0,0-.113-.109.022.039c-.193.105-.217-.086-.4-.05.178-.032.051-.048.1-.115-.022-.041-.068-.083-.042-.1-.094.031-.092-.1-.225-.047.006-.026-.071-.033-.03-.087-.1-.018,0,.051-.017.078-.161.02-.281-.23-.521-.165a1.788,1.788,0,0,0-.369.079l-.036-.006c-.018-.043.067-.073.067-.073a.292.292,0,0,0-.235-.041c.02-.02.007-.041-.014-.074-.068,0-.059.086-.141.034a.329.329,0,0,1,.082-.092c-.083.011-.167.045-.25.057-.017-.048.056-.063.089-.086-.1,0-.245.024-.279.091l.057.029c-.034,0-.012-.063.014-.074a.069.069,0,0,1,.113.057l-.059.014c.043.148.232.007.349.034l-.053.083a5.671,5.671,0,0,0-.876-.073h-.011a1,1,0,0,0,.013-.13.034.034,0,0,0,.037.019l.034-.087-.072.02v.009c-.01-.055-.041-.1-.133-.14l-.131.084-.046-.058.113-.01c-.066-.053-.106,0-.149.036a.105.105,0,0,0-.061-.063l-.122.126c-.021-.047.05-.1-.041-.122-.056.059.07.106-.028.148-.069-.051-.057-.1-.125-.037-.014-.03,0-.053.026-.072-.061.049-.175.046-.2.118-.078-.058-.218.056-.236-.061a.453.453,0,0,1-.155.135c.074-.169-.224.058-.238-.1-.044.148-.281.134-.391.268,0-.012.011-.038.026-.037a.437.437,0,0,1-.178,0c.031.1-.079.175-.113.26-.138-.05,0-.135-.068-.21.039.071-.126.154-.061.2-.1-.016-.072.007-.149-.049.052.121-.054.056-.07.159-.131,0-.089-.091-.178.008-.074,0,0-.1,0-.1-.115.065,0,.113.006.174-.111.106-.1-.02-.17-.033-.064.08-.068.2-.128.235-.013-.01-.028-.006-.028-.032-.036.118-.235.187-.251.343a.055.055,0,0,1-.028-.008.306.306,0,0,1,.1.089c-.039.039-.031.115-.091.082.026-.021.01-.042.008-.068l-.023.059c-.1-.031.036-.077-.011-.128-.063.1-.109.242-.181.291-.081-.05.118-.169-.023-.142l.125-.069c-.177-.031.069-.05-.109-.094-.157.105-.109.181-.252.3.011.064.065.04.076.1-.1.246-.312.007-.328.236.019.077.1.158-.025.23l-.058-.1c-.11.139.059.16-.091.278-.018-.049.04-.136.017-.12-.129.058.006.1-.04.181l-.088-.031a4.432,4.432,0,0,0-.194.568c-.02-.021-.031-.065-.076-.034a3.814,3.814,0,0,1-.353.73l.048.115c-.007.021-.046.029-.054,0-.056.086.047.019.063.072-.01.054-.064.058-.077.018a1.252,1.252,0,0,1-.082.67l-.019-.039c-.049.137.14.178.05.3l-.011-.026a2.441,2.441,0,0,0-.037.462l0,.059a.477.477,0,0,0,.014.113.492.492,0,0,0,.1.2.564.564,0,0,0,.379.187c.044-.058.211-.089.314-.221s.1-.322.025-.3c.086-.156.112-.111.173-.322.015-.056-.087-.1-.094-.17l.082.008-.073-.109.1-.037c0-.023-.009-.046-.01-.07-.011.026-.045.05-.068.043-.02-.113.11-.245.15-.238a2,2,0,0,1-.008-.259c.031.014.03.058.041.095-.044-.15.091,0,.05-.137-.022.01-.044-.023-.06-.03a.489.489,0,0,0,.122-.28l.047.037c.074-.168.115-.371.212-.556a.07.07,0,0,1-.118-.064l.088.018c-.03-.061-.057.043-.08-.061.044-.068.111,0,.117.052a.789.789,0,0,1,.019-.1c.026.008.026.033.053.054-.028-.06.157-.095.1-.19l.025.009c.1-.179.143-.26.233-.4-.057-.047-.009-.094-.02-.168a2.269,2.269,0,0,0,.333-.256c.051-.1-.023-.067-.019-.13.054.043.159-.063.136.026.121-.133.156-.164.307-.343-.036-.007-.066,0-.068-.028.027-.034.094-.034.107,0l0,.012c.159-.242.594-.137.713-.334l-.008.011.165-.153c.1-.02-.037.067.045.083.181-.167.34-.1.505-.2.092.087.213.062.343.026a.528.528,0,0,1,.37,0l-.013-.046c.049-.05.062.023.1.032-.006-.037-.055-.04-.025-.067a1.825,1.825,0,0,1,.66.039c.215.068.431.128.627.21.145.055.154-.212.315-.047l-.082.068c.342-.005.6.241.905.325-.027.008-.042.03-.068.015.026.08.2.138.23.1.035.035-.019.045-.011.085.029.068.182.033.171.1,0,.012-.029.005-.041,0,.059,0,.142.139.163.053.061.107.188.13.224.226.1-.009.1.179.2.118-.1.073.062.215.146.248-.044,0,.007.076-.052.082.05.068.113.119.157.072-.029.2.262.217.149.383a2.51,2.51,0,0,1,.416.61c-.116.033-.1-.239-.214-.182.116.185.272.271.3.495,0,.059-.059-.017-.084-.03.113.2.09.413.191.595-.011,0-.027-.017-.041-.035.014.037,0,.091.05.079l-.019-.035c.071-.076.183.13.226.134-.164-.048-.017.2-.227.117a.076.076,0,0,0,.079.044c-.006.039-.026.053-.072.018.041.134.093.083.1.209-.027,0-.038-.025-.07-.036a.425.425,0,0,1,.072.1.2.2,0,0,1,.02.061.175.175,0,0,1,0,.035c0,.022,0,.05,0,.077-.01-.007-.021,0-.03-.008a.367.367,0,0,0,.347.294.451.451,0,0,0,.395-.227c.06.161.091-.114.165-.138l-.035-.12Zm-1.484-3.481a.261.261,0,0,1-.046.045c-.016-.018-.031-.037-.048-.056A.081.081,0,0,1,53.559,44.037Zm-2-1.261.011.07c-.029-.01-.06-.017-.089-.026A.142.142,0,0,1,51.559,42.776Zm-.607-.152a.076.076,0,0,1,0,.073l-.1-.017Zm-5.441,2.6-.02.056h0Zm-.077.182c.028,0,.048.022.036.043-.011-.019-.047.028-.079.053Z" transform="translate(-23.56 -26.321)" fill="#202020"/>
          <path id="Path_21412" data-name="Path 21412" d="M57.317,49.438A.4.4,0,0,1,57.3,49.4C57.307,49.422,57.312,49.433,57.317,49.438Z" transform="translate(-26.659 -28.099)" fill="#202020"/>
          <path id="Path_21413" data-name="Path 21413" d="M46.267,48.7l-.019,0,.014.021Z" transform="translate(-23.895 -27.925)" fill="#202020"/>
          <path id="Path_21414" data-name="Path 21414" d="M54.831,43.163a.107.107,0,0,0-.023.024h0Z" transform="translate(-26.035 -26.541)" fill="#202020"/>
          <path id="Path_21415" data-name="Path 21415" d="M57.139,48.384l-.006-.015C57.111,48.336,57.122,48.359,57.139,48.384Z" transform="translate(-26.613 -27.838)" fill="#202020"/>
          <path id="Path_21416" data-name="Path 21416" d="M58.243,48.514a.374.374,0,0,1,.043.062C58.287,48.539,58.286,48.509,58.243,48.514Z" transform="translate(-26.893 -27.878)" fill="#202020"/>
          <path id="Path_21417" data-name="Path 21417" d="M55.979,45.849h0l-.007-.01Z" transform="translate(-26.326 -27.209)" fill="#202020"/>
          <path id="Path_21418" data-name="Path 21418" d="M52.358,42.436l-.021,0a.021.021,0,0,1,0,.012Z" transform="translate(-25.416 -26.358)" fill="#202020"/>
          <path id="Path_21419" data-name="Path 21419" d="M52.232,42.473l.052-.016C52.267,42.456,52.245,42.453,52.232,42.473Z" transform="translate(-25.391 -26.364)" fill="#202020"/>
          <path id="Path_21420" data-name="Path 21420" d="M53.156,42.552c.036-.034.117.084.166.05-.04-.018-.094-.076-.156-.071Z" transform="translate(-25.622 -26.383)" fill="#202020"/>
          <path id="Path_21421" data-name="Path 21421" d="M58.075,47.288l.025-.07-.068-.009Z" transform="translate(-26.841 -27.552)" fill="#202020"/>
          <path id="Path_21422" data-name="Path 21422" d="M38.685,42.763c-.031-.035-.032-.087,0-.1-.026,0-.065-.077-.118-.037a.352.352,0,0,0,.15.185c-.014.023-.04.012-.057.015.058.023.127.12.211.071C38.78,42.815,38.8,42.783,38.685,42.763Z" transform="translate(-21.973 -26.402)" fill="#202020"/>
          <path id="Path_21423" data-name="Path 21423" d="M38.249,43.544a.086.086,0,0,0,.032-.023l-.031.01Z" transform="translate(-21.895 -26.63)" fill="#202020"/>
          <path id="Path_21424" data-name="Path 21424" d="M34.571,42.289a.249.249,0,0,1,.03.068C34.591,42.3,34.687,42.284,34.571,42.289Z" transform="translate(-20.975 -26.322)" fill="#202020"/>
          <path id="Path_21425" data-name="Path 21425" d="M38.222,43.528l.022,0a.039.039,0,0,0,0-.029C38.238,43.515,38.232,43.524,38.222,43.528Z" transform="translate(-21.888 -26.624)" fill="#202020"/>
          <path id="Path_21426" data-name="Path 21426" d="M25.944,43.736a.155.155,0,0,0-.059-.052.074.074,0,0,0-.012.019Z" transform="translate(-18.801 -26.671)" fill="#202020"/>
          <path id="Path_21427" data-name="Path 21427" d="M21.421,43.139c.017-.034-.039-.136.022-.087a.548.548,0,0,0,.3.207.57.57,0,0,0,.158.019l.073,0a2.844,2.844,0,0,1,.3.032c.2.03.4.072.593.094.143.013.081-.247.262-.133l-.052.089c.289-.106.59,0,.873-.086-.017.02-.017.047-.045.047.06.064.221,0,.222-.05.044.006.01.047.037.074.059.038.15-.082.181-.018.006.01-.016.021-.028.026.039-.031.182.008.145-.066.106.035.2-.033.287.011.056-.083.182.04.2-.078-.008.121.186.1.253.041-.023.037.058.038.032.089.076,0,.146-.024.133-.086.141.145.284-.117.363.069a4.63,4.63,0,0,1,.642-.138c-.007.121-.226.012-.217.139.194-.05.306-.154.5-.124.05.016-.028.052-.045.073.193-.05.375.011.547-.055,0,.011-.02.024-.037.033.034,0,.079.017.075-.038l-.033.015c-.055-.08.135-.166.141-.208-.058.158.17.04.079.239a.073.073,0,0,0,.045-.073c.034.011.044.032.01.074.121-.03.078-.089.188-.087,0,.026-.023.037-.034.068a.212.212,0,0,1,.205-.082c-.006.017.005.037-.023.037.161-.008.273-.138.448-.088-.052.115.06.038.069.138l.094-.03-.037-.049c.082,0,.156-.07.226-.038l-.062.041.155-.019-.088-.038c.084-.051-.009-.126.1-.1-.022.01.083,0,.126.06h0c.041-.032.083-.065.144-.041.016.032-.013.111,0,.132.041-.083.194-.023.245-.113a.116.116,0,0,0-.012.085l.034-.068c.038.022.044.032.038.074.116.012-.037-.127.1-.072-.011.005-.006.015-.028.026.138.028.265-.043.392-.01.037.1-.111.025-.068.11a2.616,2.616,0,0,1,.554-.1l-.033-.011c.025-.142.131.07.22,0-.022.01-.029.079-.023.063a1.152,1.152,0,0,0,.43-.08l-.022.037a1.39,1.39,0,0,0,.264.035c.023-.036.067-.03.04-.083.237.208.452-.112.662.062-.026,0-.06.032-.041.032l.179-.034c-.014-.062-.023-.037-.061-.086a.148.148,0,0,1,.117-.065c-.08.041,0,.1.036.134-.006-.02.006-.04,0-.059.093.109.016-.125.143-.051l-.007.033c.048-.017.091-.06.143-.05.021.071-.051.033-.054.092.072,0,.143-.136.208-.065-.031.02-.074.02-.1.041.071.084.079.062.132.076l-.005,0,.123.038-.031-.023c.091-.187.185-.035.307-.157-.119.116-.02.068-.029.149.031.022.079.048.065.071.058-.065.1.052.178-.044,0,.026.062,0,.049.068.075-.02-.018-.046-.012-.078.116-.089.271.108.438-.014.133-.047.169-.125.278-.171h.029c.022.04-.041.083-.041.083a.2.2,0,0,0,.2,0c-.014.023,0,.042.021.072.055-.008.037-.1.109-.057a.353.353,0,0,1-.055.1,1.1,1.1,0,0,0,.1-.049.419.419,0,0,0,.144-.088c.05.025-.026.1-.073.131.166-.036.28-.265.2-.316a.27.27,0,0,1-.05.051c.013-.033.067.009.059.047-.023.133-.134.092-.143.07a.293.293,0,0,0,.043-.054c-.078-.032-.1-.005-.16.029a.392.392,0,0,1-.164.064l.032-.091h.1a.2.2,0,0,0,0-.4h-.01a1.13,1.13,0,0,0,.011-.131.047.047,0,0,0,.048.023.388.388,0,0,1,.065-.076.383.383,0,0,0-.114.007V42.4a.19.19,0,0,0-.105-.147l-.106.077-.034-.061.088,0c-.05-.057-.082-.007-.118.028a.1.1,0,0,0-.044-.067l-.1.119c-.013-.049.046-.1-.023-.124-.049.056.047.11-.034.146-.051-.057-.036-.1-.1-.055a.054.054,0,0,1,.028-.067c-.053.038-.14.017-.167.083-.053-.07-.179.018-.173-.1a.272.272,0,0,1-.142.1c.089-.141-.182-.008-.159-.16-.065.127-.237.056-.353.127.007-.01.019-.03.029-.024-.065-.01-.084-.049-.126-.073-.009.1-.111.129-.166.194-.08-.1.049-.123.024-.221,0,.086-.14.086-.113.156-.062-.063-.053-.031-.085-.118-.011.131-.057.022-.108.1-.089-.065-.023-.123-.12-.083-.046-.04.04-.087.04-.087-.1,0-.046.1-.068.154-.119.028-.055-.073-.1-.124-.074.026-.13.118-.186.113,0-.016-.015-.022,0-.042-.078.078-.232,0-.324.1a.053.053,0,0,1-.011-.024.392.392,0,0,1,.014.136c-.044,0-.083.062-.1,0,.027,0,.029-.024.042-.044l-.046.028c-.042-.093.064-.032.064-.1-.091.031-.2.107-.267.081-.014-.091.163-.03.07-.111l.108.035c-.083-.143.066.01-.01-.143-.142-.026-.159.047-.3.02-.031.051.011.075-.021.125-.2.091-.159-.229-.307-.107-.038.061-.053.176-.159.115l.036-.1c-.137-.011-.078.148-.222.079.025-.041.108-.035.087-.047-.093-.081-.066.059-.138.059l-.014-.092c-.147.014-.308.08-.47.1.009-.027.037-.055,0-.083a1.372,1.372,0,0,1-.634-.065l-.076.079a.031.031,0,0,1-.013-.051c-.076-.029,0,.05-.04.081a.039.039,0,0,1-.03-.069.654.654,0,0,1-.529.059l.028-.023c-.111-.031-.125.161-.229.088l.019-.014c-.241-.034-.509.038-.692-.081-.035.113-.239-.05-.255.107-.138-.078-.1-.106-.292-.159-.052-.007-.077.1-.142.116v-.083l-.087.086-.046-.1-.061.022a.065.065,0,0,1,.047.061.21.21,0,0,1-.231-.1l-.223.07c.005-.033.043-.045.072-.066-.118.085-.022-.087-.13-.01.015.019-.008.049-.01.066a.337.337,0,0,0-.268-.029l.017-.057c-.165-.014-.347.027-.532.026a.073.073,0,0,1,0,.135l-.022-.088c-.035.054.057.033-.015.1-.07-.01-.046-.1-.007-.127l-.084.03c-.005-.026.014-.04.02-.073-.035.054-.145-.088-.2.007l0-.026c-.185,0-.269.029-.419.034,0,.075-.062.059-.107.119a1.348,1.348,0,0,0-.367-.077c-.094.037-.028.064-.07.109-.007-.069-.14-.062-.071-.112a1.548,1.548,0,0,0-.407.069c.022.028.047.041.034.064a.066.066,0,0,1-.079-.062l.01-.007c-.227.1-.524-.2-.706-.057l.01-.008-.188.075c-.086-.012.052-.052-.012-.095-.2.115-.319-.017-.487.06a.186.186,0,0,0-.128-.085.372.372,0,0,0-.083-.006l-.044,0a.58.58,0,0,0-.117.016.667.667,0,0,0-.463.728l.038-.04C21.423,43,21.371,43.049,21.421,43.139Zm10.049-.1a.358.358,0,0,1,0-.064h.062A.08.08,0,0,1,31.47,43.036Zm1.963,0-.027-.064h.078A.132.132,0,0,1,33.433,43.035Zm.513.008a.091.091,0,0,1-.011-.072h.088Zm-4.3-.676.048,0-.048.006Zm-.11.005c.007.026,0,.053-.02.052.01-.017-.035-.032-.065-.055A.6.6,0,0,0,29.54,42.373Z" transform="translate(-17.658 -26.285)" fill="#2d82f7"/>
          <path id="Path_21428" data-name="Path 21428" d="M28.582,42.254v.019l.017-.017Z" transform="translate(-19.478 -26.314)" fill="#202020"/>
          <path id="Path_21429" data-name="Path 21429" d="M36.611,43.5a.13.13,0,0,0,.007-.032h0Z" transform="translate(-21.485 -26.618)" fill="#202020"/>
          <path id="Path_21430" data-name="Path 21430" d="M29.038,43.634l-.014,0C28.991,43.652,29.014,43.646,29.038,43.634Z" transform="translate(-19.585 -26.658)" fill="#202020"/>
          <path id="Path_21431" data-name="Path 21431" d="M31.281,43.4a.343.343,0,0,1-.055.036C31.256,43.44,31.279,43.442,31.281,43.4Z" transform="translate(-20.139 -26.6)" fill="#202020"/>
          <path id="Path_21432" data-name="Path 21432" d="M26.531,43.754h0Z" transform="translate(-18.962 -26.688)" fill="#202020"/>
          <path id="Path_21433" data-name="Path 21433" d="M38.915,43.269a.015.015,0,0,1-.008-.01l-.014.04Z" transform="translate(-22.056 -26.565)" fill="#202020"/>
          <path id="Path_21434" data-name="Path 21434" d="M38.924,43.178c.012-.026.025-.062.007-.084A.4.4,0,0,1,38.924,43.178Z" transform="translate(-22.064 -26.523)" fill="#202020"/>
          <path id="Path_21435" data-name="Path 21435" d="M37.852,43.522c.034.006.085.058.133.04l0-.022C37.968,43.582,37.884,43.476,37.852,43.522Z" transform="translate(-21.796 -26.627)" fill="#202020"/>
          <path id="Path_21436" data-name="Path 21436" d="M32.347,43.464l-.072.02.048.043Z" transform="translate(-20.402 -26.616)" fill="#202020"/>
          <path id="Path_21437" data-name="Path 21437" d="M38.685,48.478c-.031-.035-.032-.087,0-.1-.026,0-.065-.077-.118-.037a.352.352,0,0,0,.15.184c-.014.023-.04.012-.057.015.058.023.127.12.211.071C38.78,48.53,38.8,48.5,38.685,48.478Z" transform="translate(-21.973 -27.831)" fill="#202020"/>
          <path id="Path_21438" data-name="Path 21438" d="M38.249,49.259a.086.086,0,0,0,.032-.023l-.031.01Z" transform="translate(-21.895 -28.059)" fill="#202020"/>
          <path id="Path_21439" data-name="Path 21439" d="M34.6,48.072c-.01-.054.086-.073-.03-.068A.249.249,0,0,1,34.6,48.072Z" transform="translate(-20.975 -27.751)" fill="#202020"/>
          <path id="Path_21440" data-name="Path 21440" d="M38.222,49.243l.022,0a.039.039,0,0,0,0-.029C38.238,49.23,38.232,49.24,38.222,49.243Z" transform="translate(-21.888 -28.053)" fill="#202020"/>
          <path id="Path_21441" data-name="Path 21441" d="M25.944,49.45a.165.165,0,0,0-.059-.052.1.1,0,0,0-.012.019Z" transform="translate(-18.801 -28.099)" fill="#202020"/>
          <path id="Path_21442" data-name="Path 21442" d="M34.369,48.621c.013-.033.067.009.059.047-.023.133-.134.092-.143.07a.292.292,0,0,0,.043-.054c-.078-.033-.1-.005-.16.029a.392.392,0,0,1-.164.064l.032-.091h.1a.2.2,0,0,0,0-.4h-.01a1.13,1.13,0,0,0,.011-.131.046.046,0,0,0,.048.022.389.389,0,0,1,.065-.076.383.383,0,0,0-.114.007v.009a.19.19,0,0,0-.105-.147l-.106.076-.034-.061.088,0c-.05-.057-.082-.007-.118.028a.1.1,0,0,0-.044-.067l-.1.119c-.013-.049.046-.1-.023-.124-.049.055.047.109-.034.145-.051-.056-.036-.1-.1-.054a.054.054,0,0,1,.028-.067c-.053.038-.14.016-.167.082-.053-.07-.179.018-.173-.1a.272.272,0,0,1-.142.1c.089-.141-.182-.008-.159-.16-.065.127-.237.056-.353.127.007-.01.019-.031.029-.024-.065-.01-.084-.049-.126-.073-.009.105-.111.129-.166.194-.08-.1.049-.123.024-.221,0,.086-.14.085-.113.156-.062-.063-.053-.031-.085-.118-.011.131-.057.023-.108.1-.089-.064-.023-.122-.12-.083-.046-.041.04-.087.04-.087-.1,0-.046.1-.068.154-.119.029-.055-.073-.1-.124-.074.026-.13.117-.186.113,0-.016-.015-.022,0-.043-.078.079-.232,0-.324.1a.053.053,0,0,1-.011-.024.392.392,0,0,1,.014.136c-.044,0-.083.062-.1,0,.027,0,.029-.024.042-.044l-.046.028c-.042-.093.064-.032.064-.1-.091.031-.2.107-.267.081-.014-.091.163-.03.07-.111l.108.035c-.083-.143.066.01-.01-.143-.142-.026-.159.046-.3.02-.031.05.011.075-.021.125-.2.091-.159-.229-.307-.107-.038.061-.053.176-.159.115l.036-.1c-.137-.01-.078.148-.222.079.025-.041.108-.035.087-.046-.093-.081-.066.058-.138.058l-.014-.091c-.147.014-.308.08-.47.1.009-.027.037-.056,0-.083a1.372,1.372,0,0,1-.634-.065l-.076.079a.031.031,0,0,1-.013-.051c-.076-.03,0,.05-.04.081a.039.039,0,0,1-.03-.069.654.654,0,0,1-.529.059l.028-.023c-.111-.031-.125.161-.229.088l.019-.014c-.241-.034-.509.038-.692-.081-.035.113-.239-.05-.255.107-.138-.078-.1-.107-.292-.159-.052-.007-.077.1-.142.115V47.96l-.087.086-.046-.1-.061.022a.065.065,0,0,1,.047.061.21.21,0,0,1-.231-.1l-.223.07c.005-.033.043-.045.072-.066-.118.084-.022-.087-.13-.01.015.019-.008.05-.01.066a.337.337,0,0,0-.268-.029l.017-.057c-.165-.014-.347.027-.532.026a.072.072,0,0,1,0,.134l-.022-.087c-.035.054.057.033-.015.1-.07-.01-.046-.1-.007-.128l-.084.03c-.005-.025.014-.04.02-.073-.035.054-.145-.088-.2.007l0-.026c-.185,0-.269.029-.419.034,0,.075-.062.058-.107.119a1.347,1.347,0,0,0-.367-.077c-.094.037-.028.064-.07.108-.007-.068-.14-.062-.071-.111a1.548,1.548,0,0,0-.407.069c.022.028.047.04.034.064a.066.066,0,0,1-.079-.062l.01-.007c-.227.1-.524-.2-.706-.057l.01-.007-.188.075c-.086-.012.052-.052-.012-.094-.2.115-.319-.016-.487.06a.186.186,0,0,0-.128-.085.372.372,0,0,0-.083-.006l-.044,0a.631.631,0,0,0-.117.015.668.668,0,0,0-.463.728l.038-.04c.078.1.026.149.076.239.017-.034-.039-.137.022-.087a.548.548,0,0,0,.3.207.57.57,0,0,0,.158.019l.073,0a2.842,2.842,0,0,1,.3.032c.2.03.4.072.593.094.143.013.081-.247.262-.133l-.052.089c.289-.106.59,0,.873-.086-.017.02-.017.046-.045.046.06.064.221,0,.222-.049.044.006.01.047.037.074.059.038.15-.082.181-.018.006.01-.016.021-.028.025.039-.031.182.008.145-.066.106.035.2-.033.287.011.056-.083.182.041.2-.077-.008.122.186.1.253.041-.023.036.058.037.032.088.076,0,.146-.024.133-.086.141.145.284-.117.363.069a4.631,4.631,0,0,1,.642-.138c-.007.121-.226.012-.217.14.194-.05.306-.154.5-.125.05.017-.028.053-.045.073.193-.049.375.011.547-.055,0,.011-.02.023-.037.033.034,0,.079.017.075-.038l-.033.015c-.055-.079.135-.167.141-.208-.058.157.17.04.079.239a.073.073,0,0,0,.045-.074c.034.011.044.032.01.074.121-.03.078-.089.188-.087,0,.026-.023.037-.034.068a.212.212,0,0,1,.205-.082c-.006.016.005.037-.023.037.161-.008.273-.138.448-.088-.052.116.06.037.069.138l.094-.03-.037-.049c.082,0,.156-.071.226-.038l-.062.041.155-.019-.088-.038c.084-.052-.009-.127.1-.1-.022.01.083,0,.126.06h0c.041-.031.083-.065.144-.04.016.032-.013.111,0,.132.041-.083.194-.023.245-.113a.115.115,0,0,0-.012.085l.034-.068c.038.022.044.032.038.074.116.012-.037-.127.1-.073-.011.006-.006.016-.028.026.138.028.265-.043.392-.01.037.1-.111.025-.068.11a2.615,2.615,0,0,1,.554-.1l-.033-.011c.025-.142.131.07.22,0-.022.01-.029.079-.023.063a1.152,1.152,0,0,0,.43-.08l-.022.037a1.454,1.454,0,0,0,.264.035c.023-.036.067-.03.04-.083.237.208.452-.112.662.061-.026,0-.06.032-.041.032l.179-.034c-.014-.062-.023-.037-.061-.085a.148.148,0,0,1,.117-.065c-.08.041,0,.1.036.134-.006-.02.006-.041,0-.059.093.11.016-.125.143-.051l-.007.033c.048-.016.091-.06.143-.05.021.071-.051.033-.054.092.072,0,.143-.136.208-.064-.031.02-.074.02-.1.041.071.084.079.062.132.076l-.005,0,.123.038-.031-.023c.091-.187.185-.035.307-.157-.119.116-.02.068-.029.149.031.022.079.047.065.07.058-.065.1.052.178-.044,0,.026.062,0,.049.068.075-.02-.018-.046-.012-.078.116-.089.271.108.438-.014.133-.047.169-.125.278-.171h.029c.022.04-.041.083-.041.083a.2.2,0,0,0,.2,0c-.014.023,0,.042.021.072.055-.007.037-.1.109-.057a.353.353,0,0,1-.055.105,1.1,1.1,0,0,0,.1-.049.419.419,0,0,0,.144-.088c.05.024-.026.1-.073.131.166-.036.28-.265.2-.316A.27.27,0,0,1,34.369,48.621Zm-4.718-.538.048,0-.048.006Zm-.11.005c.007.026,0,.053-.02.052.01-.017-.035-.032-.065-.055A.6.6,0,0,0,29.54,48.088Zm1.93.662a.347.347,0,0,1,0-.064h.062A.078.078,0,0,1,31.47,48.75Zm1.963,0-.027-.064h.078A.136.136,0,0,1,33.433,48.75Zm.513.008a.091.091,0,0,1-.011-.072h.088Z" transform="translate(-17.658 -27.714)" fill="#2d82f7"/>
          <path id="Path_21443" data-name="Path 21443" d="M28.582,47.969v.019l.017-.017Z" transform="translate(-19.478 -27.742)" fill="#202020"/>
          <path id="Path_21444" data-name="Path 21444" d="M36.611,49.22a.13.13,0,0,0,.007-.032h0Z" transform="translate(-21.485 -28.047)" fill="#202020"/>
          <path id="Path_21445" data-name="Path 21445" d="M29.038,49.349l-.014,0C28.991,49.367,29.014,49.361,29.038,49.349Z" transform="translate(-19.585 -28.087)" fill="#202020"/>
          <path id="Path_21446" data-name="Path 21446" d="M31.281,49.114a.344.344,0,0,1-.055.036C31.256,49.155,31.279,49.157,31.281,49.114Z" transform="translate(-20.139 -28.028)" fill="#202020"/>
          <path id="Path_21447" data-name="Path 21447" d="M26.531,49.469h0Z" transform="translate(-18.962 -28.117)" fill="#202020"/>
          <path id="Path_21448" data-name="Path 21448" d="M38.892,49.014l.023-.03a.015.015,0,0,1-.008-.01Z" transform="translate(-22.056 -27.993)" fill="#202020"/>
          <path id="Path_21449" data-name="Path 21449" d="M38.924,48.893c.012-.026.025-.062.007-.084A.4.4,0,0,1,38.924,48.893Z" transform="translate(-22.064 -27.952)" fill="#202020"/>
          <path id="Path_21450" data-name="Path 21450" d="M37.852,49.236c.034.007.085.058.133.041l0-.022C37.968,49.3,37.884,49.19,37.852,49.236Z" transform="translate(-21.796 -28.056)" fill="#202020"/>
          <path id="Path_21451" data-name="Path 21451" d="M32.324,49.242l.023-.063-.072.02Z" transform="translate(-20.402 -28.045)" fill="#202020"/>
          <rect id="Rectangle_7543" data-name="Rectangle 7543" width="5.328" height="3.996" rx="1.335" transform="translate(4.23 7.774)" fill="#ff7e94"/>
          <path id="Path_21452" data-name="Path 21452" d="M27.722,32.895c.106-.138-.179-.248,0-.353-.061-.037-.043.074-.114.042.014-.057.132-.144.131-.17.039-.113-.137-.082-.121-.189a.111.111,0,0,1-.151-.016c0-.064.1-.118.139-.08.007.017,0,.027-.01.029.017.02.037.047.062.01h-.032c.024-.044-.013-.143.042-.136-.048-.046-.055-.006-.057.038.011-.107-.051-.142-.07-.244-.008.022-.034.052-.04.038-.036-.144-.082-.026-.14-.1.008-.07.1-.048.015-.1-.01-.067.057-.061.093-.055-.1-.04-.084-.161-.115-.212l.053.02a.213.213,0,0,1-.068-.049l-.022.064c-.014-.028-.033-.045-.015-.063-.05.009-.054.089-.133.092-.006-.05-.1-.044-.066-.116.077.094.04-.074.13-.02a.108.108,0,0,1-.059-.048c0-.01.014-.01.023-.01-.055-.13-.1.038-.2-.025.037-.032.021-.09,0-.092.043.027-.02.078-.073.087-.05-.065-.085-.011-.117-.031l.032.034c-.034.037-.062.012-.112.01.009-.034.051-.008.041-.028-.08.058-.089-.127-.185-.092-.029-.04.018-.085-.011-.114-.1.037-.091-.082-.2-.048.023.066.027.049-.044.1a1.4,1.4,0,0,1,.161-.023l-.111.074c.044.007.1-.024.127-.009-.056.042-.046.028-.035.082-.046-.1-.123.035-.184-.029l.01-.154c-.121-.075-.175.077-.3.037l.039.027c-.016.061-.075.009-.115.034,0-.052-.021-.071-.038-.1,0,.038-.09,0-.1.1l-.054-.068c-.1-.028-.112.147-.208.129.028-.055-.014-.092.049-.132-.032,0-.061-.01-.061.026-.019-.032-.088.07-.117.021-.013.023-.018.076-.053.072a.053.053,0,0,1,0-.026c0,.026-.055.035-.025.092-.1-.161-.272.011-.357-.126a1.326,1.326,0,0,1-.215.037c0-.016,0-.025.012-.02-.087-.048-.053.147-.152.094-.05-.083.052-.045.021-.077-.014-.169-.119.023-.185-.076l.016-.01c-.05-.057-.124.065-.206.052a.06.06,0,0,0,0-.026A.413.413,0,0,1,24,31.21c.025-.066.036-.035.021-.1-.035.01.01.108-.061.127-.023-.036-.074-.068-.081-.139l.067,0c-.035-.093-.087,0-.122-.013l0-.041c-.1.014-.1.115-.215.109l.012.031c-.061.1-.051-.057-.111.018l-.019-.1a.972.972,0,0,1-.211.119c.04-.076.124-.115.175-.16a.236.236,0,0,0-.127.039.019.019,0,0,1,.024,0,.213.213,0,0,1-.191.119c.011-.2-.2-.052-.286-.2-.157.088-.342.023-.529.121.128.11-.051.029.031.166-.031.026-.046.032-.054.027h0a1.619,1.619,0,0,0-.163-.01c-.053-.019.016-.054-.007-.08-.092.049-.073-.031-.157-.023.047.038.019.085-.04.11a.933.933,0,0,1,.112,0c-.052.154-.188-.022-.233.148l0-.07c-.033.073-.191.225-.113.356-.022,0-.069-.005-.061-.04-.118.155-.04.409-.14.518l-.036-.021c.005.036.063.069.018.1-.016,0-.037-.019-.041,0s.057.095.034.135l-.042-.04c-.062.187.1.227.127.355-.114,0-.152.11-.17.164h-.016c-.014.163.094.276.139.427-.125.093-.052.317-.122.466.021-.023.089,0,.1.031-.023.035.08.1-.026.091l0-.013c-.1.027-.076.1-.079.156l.137.009c-.2.148.073.388-.1.469.035.036.033.077.068.117h-.073a.642.642,0,0,0,.03.342L21.407,35c.019.092.231.057.259.122l-.1.057c.046.135.042.326.212.388-.014.007-.042.023-.061.005.034.062.125.266.216.14-.07.07.1.117.192.122l-.053.051c.109-.035.122-.053.211-.031.012.019-.014.06-.028.029.041.069.079-.03.135.04l-.05.028c.063.037.07.012.125-.021.051-.012.115.062.109.128.022-.035.073-.077.107-.049a.048.048,0,0,1-.028.042c.11.077.186-.048.259.026a.068.068,0,0,0,.011.044.468.468,0,0,1-.166-.029c-.013.066.071.09-.01.171.079-.035.2-.14.269-.107a.118.118,0,0,1,.008.023l-.007.007a.037.037,0,0,0,.041-.01.126.126,0,0,0,.054.02c.007.055.076.029.109.032,0-.073.041-.062,0-.122.005.005-.006.008-.028.011a.052.052,0,0,0-.014.007l0-.006-.083,0c.026-.037.054-.068.091-.028l.046-.118c.046.1.134.157.146.22.1-.04.239-.027.3-.164.029-.018.033.04.044.061-.017.014-.036.012-.045.031.058-.035.171-.013.184-.109.073.043-.041.089.059.073l-.014.029c.2.154.32-.245.539-.048-.015-.012-.023-.018-.026-.034.249.087.513-.082.759.056.07.028.077-.034.12-.08l.015.079.073-.091c.1-.067.179.193.31.068l-.017-.053c.047.01.149-.032.141.03,0-.01.016-.056.034-.028v.041l.115-.07c.089.029-.014.163.116.171.049-.016.138-.119.12-.147a.068.068,0,0,1-.052-.067l.045-.022,0-.023h.007a1.224,1.224,0,0,0,.508-.113l0,.023.005-.028c.019-.009.037-.02.057-.03.006.015.011.031,0,.044.072.026.02-.055.089-.025.008.005.01.011.007.017l.026-.054c0,.025.049.06.014.063.116,0,.073-.152.151-.108l0,.011c.043-.069.019-.082-.007-.109a.073.073,0,0,0,.011-.046l.014-.014c.041.021.082.044.125.062l-.049-.063a.036.036,0,0,1,.053,0c-.009-.071-.032-.017-.053-.07.1,0,.071-.152.183-.1-.041-.05-.071.026-.072-.052.127.053.02-.075.1-.1.056.046,0,.082.08.056-.09-.082.073-.1.069-.156a.05.05,0,0,1-.038-.043c.026.017.036.031.038.043a.185.185,0,0,0,.051.011c.008-.013-.059-.04-.089-.055-.005-.041.029-.1.02-.161.031.012.076-.146.109-.228l.016,0c-.093-.02-.076-.089-.1-.144a.123.123,0,0,1,.106.041v-.051a.088.088,0,0,1-.058-.06l.071.013c0-.068-.084-.136-.036-.222-.046,0-.114.026-.168.019v-.044a.065.065,0,0,1,.05.019c0-.008-.03-.028-.015-.044l.061.037c.027-.04-.05-.021-.045-.052.052,0,.037-.023.077-.019.005.008-.021.028,0,.04a.141.141,0,0,1,.079-.093c-.029,0-.069,0-.076-.026,0-.067.061-.023.088-.062-.035-.017,0-.059-.075-.061,0-.02.036-.023.057-.031-.034-.035-.01-.163-.092-.124l-.005.009,0-.005c-.076-.114.044-.237.01-.35h.026c-.03-.067-.018-.15-.073-.2,0-.019.046-.047.077-.038-.019-.052-.048-.058-.006-.132.045.052.04-.018.033.053.023-.068.064-.083-.007-.154.066.025.083-.05.063-.083l-.047.047a.219.219,0,0,1,0-.1Zm-4.558,3.3,0-.009a.146.146,0,0,1-.009.037c-.022.011-.029,0-.032-.019A.208.208,0,0,0,23.164,36.191Zm3.707-1.882a1,1,0,0,1,.037.186c-.015,0-.025,0-.02-.01-.048.075.148.046.094.132-.083.043-.045-.046-.076-.018-.168.014.022.1-.08.136l-.009-.011c-.059.023.053.086.025.14a.073.073,0,0,0-.024-.008.209.209,0,0,1,.053.214c-.047-.051-.017-.04-.08-.066-.005.027.1.047.084.106a.245.245,0,0,1-.148-.034l.024-.038c-.089-.037-.03.047-.061.055l-.028-.029c-.032.054.035.133-.035.175l.025.02c.02.112-.062-.026-.061.062l-.062-.083a.342.342,0,0,1-.1.167c.01-.082.049-.139.056-.194a.142.142,0,0,0-.061.068c0-.007.008-.011.016-.006,0,.087-.04.142-.1.15-.022-.194-.146-.035-.214-.194-.121.073-.24-.032-.381-.02.05.155-.041,0-.032.163-.031.01-.043.007-.047,0h0l-.1-.1c-.023-.046.031-.035.028-.071-.072-.012-.031-.068-.078-.109.01.057-.025.081-.066.059l.058.074c-.1.085-.087-.133-.188-.049l.032-.05c-.052.03-.192,0-.242.127-.01-.018-.022-.062,0-.073-.124-.02-.277.136-.373.057l.009-.039c-.023.011-.04.074-.069.034,0-.016.009-.038,0-.041-.013.013-.062.068-.092.045l.026-.043c-.122-.051-.186.107-.287.134a.184.184,0,0,0-.143-.171l0-.016c-.141-.014-.24.094-.371.139-.081-.124-.274-.052-.4-.122.019.021,0,.089-.027.1-.03-.023-.084.08-.079-.025l.011,0c-.023-.1-.086-.076-.135-.079l-.008.138c-.142-.2-.305.068-.314-.127-.028.029-.051.018-.085.043l.03-.068a.279.279,0,0,0-.116-.081l.043-.035c-.021-.019-.171.133-.208.1l.071-.085c-.052-.056,0-.152-.115-.172.016,0,.045-.014.053-.007-.011-.032.039-.123-.107-.083.1-.02,0-.067-.045-.113l.073.005c-.094-.037-.118-.046-.144-.11.009-.016.058-.014.039.007.038-.052-.068-.041-.03-.1l.047.023c.005-.054-.02-.049-.074-.08-.029-.034.019-.1.084-.11-.04-.007-.094-.037-.074-.068a.055.055,0,0,1,.047.013c.049-.09-.084-.134-.013-.2a.087.087,0,0,0,.043-.011.4.4,0,0,1-.01.124c.067,0,.078-.058.171-.012-.051-.046-.161-.126-.129-.182a.106.106,0,0,1,.023-.007l.007.006c.007-.013,0-.025-.011-.036a.109.109,0,0,0,.02-.047c.055-.007.029-.067.032-.1-.073,0-.062-.035-.122,0,.005,0,.009.005.012.025a.04.04,0,0,0,.008.012l-.006,0,0,.072c-.037-.023-.068-.046-.028-.079l-.118-.04c.1-.04.157-.116.22-.127-.041-.088-.027-.208-.164-.263-.018-.025.039-.028.061-.037.014.014.012.032.031.039-.035-.05-.013-.148-.109-.161.043-.063.088.036.073-.051l.029.011c.154-.17-.245-.278-.048-.466a.056.056,0,0,1-.034.022.7.7,0,0,0,.015-.312.22.22,0,0,1,.126-.233c.048-.025,0-.062-.02-.115l.069.039a.7.7,0,0,1-.036-.1c.014-.113.216.054.216-.091l-.037-.039c.033-.012.088-.079.1-.022,0-.01-.01-.055.014-.034l.016.038a.56.56,0,0,1,.06-.093c.07.013.03.159.11.154.023-.019.083-.125.072-.153-.014,0-.039-.023-.043-.064L23,31.7l0-.023h.46l0,.02.013-.02h.054c0,.014,0,.029-.014.035.043.053.038-.038.075.021,0,.01,0,.015,0,.019l.041-.032c-.008.023.007.076-.019.061.075.063.121-.081.149,0l-.006.007c.077-.027.045-.058.056-.111h.049l.036.134.01-.079a.033.033,0,0,1,.029.041c.04-.055-.007-.035.016-.086.051.073.142-.034.154.093.018-.061-.05-.046.005-.088.016.136.064-.024.111.039-.014.07-.059.033-.012.1.029-.119.092.026.132,0a.052.052,0,0,1,.022-.05c-.006.029-.014.044-.022.05a.232.232,0,0,0,0,.052c.01,0,.014-.069.019-.1.03-.017.083,0,.13-.022,0,.032.125.052.188.086v.016c.012-.1.076-.077.122-.1a.129.129,0,0,1-.035.106H24.8a.083.083,0,0,1,.052-.058l-.011.072c.059,0,.118-.084.193-.037,0-.045-.023-.114-.016-.168h.038a.071.071,0,0,1-.016.05c.007,0,.024-.03.038-.014l-.031.061c.034.026.018-.051.045-.045,0,.051.02.037.017.077-.007.005-.024-.021-.035,0a.127.127,0,0,1,.08.078c0-.029,0-.069.022-.076.059,0,.02.062.054.089.014-.036.052,0,.053-.076.017,0,.02.036.027.057.03-.034.141-.01.107-.092l-.008-.005.005,0c.1-.076.205.043.3.01v.026c.059-.029.13-.017.172-.073.017,0,.041.047.034.078.045-.02.049-.049.115-.006-.045.045.015.04-.047.033.059.022.071.063.134-.007a.049.049,0,0,0,.071.064l-.041-.047a.134.134,0,0,1,.082,0l-.013.086c.059.1.191-.157.206.037.044-.048-.029-.056.013-.116.043.026.027.159.034.163.017.065.108-.087.14-.022.013-.028.053-.1.116-.09.032.045-.045.134-.081.135-.009,0-.007-.016,0-.023a.039.039,0,0,0-.048.035l.023-.02c0,.038.036.071-.01.1.039,0,.045-.025.041-.053,0,.068.053.061.057.121.01-.016.036-.043.04-.035.008.088.07,0,.109.048-.029.05-.106.035-.049.071-.019.042-.075.034-.1.034.072.02-.014.087-.021.106l-.029-.013a.026.026,0,0,1,.02.026l.059-.023c-.009.015-.007.026-.033.029.043.008.1-.027.16,0-.029.023.037.064-.044.072.024-.062-.082.007-.1-.037.01.007.01.018,0,.031a.031.031,0,0,1-.023,0c-.071.061.094.032.092.112-.047-.011-.088.02-.078.034,0-.035.077-.017.112.015-.036.055.027.059.023.088l.017-.032c.046.01.04.038.055.076-.036,0-.025-.035-.041-.021.082.042-.084.1-.029.154-.031.028-.086,0-.108.027.06.065-.063.071-.014.14.062-.02.046-.023.107.026l-.044-.114.09.073c0-.034-.039-.072-.028-.093.051.035.035.031.087.015-.093.047.054.093-.009.148l-.154,0c-.068.082.08.145.041.251l.027-.034c.061.014.008.065.033.1a.17.17,0,0,0-.1.032c.038,0,0,.078.1.088l-.067.047c-.028.086.146.1.129.18-.056-.025-.092.013-.132-.043,0,.028-.011.053.026.053-.032.016.069.076.02.1.022.012.076.016.072.046a.066.066,0,0,1-.025,0c.025,0,.035.048.091.021C26.837,34.083,27.009,34.234,26.871,34.309Zm-4.438-.462a.151.151,0,0,1,.037.007c.011.019,0,.026-.019.028a.158.158,0,0,0-.009-.033ZM23.6,31.69h0Zm3.278,4.038c-.005,0,0-.008-.007-.011l.016-.009C26.882,35.715,26.881,35.722,26.877,35.728Z" transform="translate(-17.68 -23.491)" fill="#202020"/>
        </g>
      </g>
    </g>
  </g>
</svg>
