<svg width="186" height="210" viewBox="0 0 186 210" fill="none" xmlns="http://www.w3.org/2000/svg">
<path d="M51.724 28.8147C54.403 27.421 56.6086 25.2642 58.0619 22.617C59.5152 19.9698 60.1508 16.9511 59.8885 13.9427C59.6262 10.9342 58.4777 8.07109 56.5882 5.71537C54.6987 3.35965 52.153 1.61712 49.2732 0.708127C46.3934 -0.200863 43.3087 -0.235489 40.4092 0.608627C37.5097 1.45274 34.9256 3.13769 32.9837 5.4504C31.0418 7.76311 29.8293 10.5997 29.4995 13.6015C29.1698 16.6033 29.7375 19.6355 31.1309 22.3147C33.0011 25.9062 36.2206 28.6083 40.0821 29.8271C43.9435 31.0459 48.1309 30.6818 51.724 28.8147Z" fill="#006738"/>
<path d="M180.977 54.4596C187.832 54.2816 184.102 59.5186 181.84 60.2726C154.565 69.4548 125.895 73.7988 97.1246 73.1086C96.9456 85.2406 96.7086 98.2756 96.3906 111.37C126.061 130.882 156.445 150.147 173.954 159.243C175.611 160.096 188.775 165.224 175.412 151.932C115.338 92.1646 177.148 64.9546 182.941 60.9076C184.885 59.5486 188 54.2606 180.977 54.4596Z" fill="#4B6BAB"/>
<path d="M180.977 54.4589C179.952 54.5049 178.932 54.6174 177.922 54.7959C117.203 65.3109 108.702 25.5529 100.329 4.45289C99.7936 3.11389 98.1066 -0.160113 96.1426 0.0528872C97.7596 -0.185113 97.8426 4.51689 97.8426 4.51689L97.6426 11.1169C97.6426 11.1169 97.6326 38.3959 97.1266 73.1169C126.035 73.7842 154.855 69.6787 182.427 60.9659C185.086 60.1329 188.052 54.1309 180.979 54.4659" fill="#3BA9C8"/>
<path d="M5.70004 152.618C3.80004 154.046 -2.63291 154.136 1.41409 148.6C-2.74191 154.274 3.36806 154.711 5.60006 153.887C12.2261 151.417 69.8001 116.043 84.7111 199.498C88.0241 218.048 91.3111 204.298 91.5451 202.454C94.0451 182.872 95.5231 146.893 96.3861 111.371C85.4441 104.179 74.6021 96.9569 64.5341 90.1919C48.7102 114.27 28.7991 135.397 5.70004 152.618Z" fill="#E74E58"/>
<path d="M75.584 71.6187C72.37 77.6107 68.71 83.8397 64.543 90.1887C74.602 96.9547 85.454 104.176 96.396 111.378C96.713 98.2777 96.951 85.2387 97.13 73.1067C89.541 72.9187 82.34 72.3927 75.584 71.6187Z" fill="#553F93"/>
<path d="M75.582 71.6175C82.337 72.3915 89.539 72.9175 97.128 73.1055C97.634 38.3865 97.644 11.1055 97.644 11.1055C97.644 11.1055 93.785 37.6635 75.582 71.6175Z" fill="#457A85"/>
<path d="M5.37347 153.513C28.6079 135.987 48.6254 114.563 64.5355 90.1945C35.7185 70.8305 13.2895 55.2945 13.2895 55.2945L7.75445 51.7135C7.75445 51.7135 4.1635 49.1245 4.9765 47.8745C3.7765 49.4015 5.47647 52.5865 6.25647 53.7745C18.8345 72.6745 46.6695 102.293 3.4295 146.267C2.70383 146.995 2.03077 147.774 1.41546 148.598C-2.64154 154.133 3.46947 154.937 5.37347 153.509" fill="#F7943D"/>
<path d="M64.538 90.1929C68.704 83.8439 72.365 77.6149 75.579 71.6229C37.318 67.2579 13.293 55.2949 13.293 55.2949C13.293 55.2949 35.7219 70.8389 64.5389 90.1949" fill="#E8D43A"/>
<path d="M96.1405 0.048732C95.0985 0.157732 93.9775 1.23873 92.9165 4.11573C92.8865 4.20473 92.8475 4.29373 92.8075 4.39373C92.5495 4.91973 92.2815 5.50473 91.9845 6.14973C86.0625 19.4617 76.8175 34.6587 61.2635 43.3587C45.0545 51.6217 26.9704 50.5807 12.4384 47.8327C11.5054 47.6547 10.6825 47.5257 9.95846 47.4257C7.35846 46.8007 5.91146 47.0087 5.18746 47.6637C5.10361 47.721 5.03273 47.7953 4.97945 47.8817C4.16545 49.1317 7.75649 51.7107 7.75649 51.7107L13.2915 55.3017C13.2915 55.3017 37.3175 67.2547 75.5915 71.6197C93.7915 37.6637 97.6435 11.1087 97.6435 11.1087L97.8515 4.50873C97.8515 4.50873 97.7625 -0.191268 96.1455 0.044732" fill="#6DA253"/>
</svg>
