<svg xmlns="http://www.w3.org/2000/svg" xmlns:xlink="http://www.w3.org/1999/xlink" width="46.917" height="43" viewBox="0 0 46.917 43">
  <defs>
    <clipPath id="clip-path">
      <rect id="Rectangle_9935" data-name="Rectangle 9935" width="43" height="43" transform="translate(0 0.051)"/>
    </clipPath>
  </defs>
  <g id="Group_19270" data-name="Group 19270" transform="translate(-8.95 -9.584)">
    <g id="Group_24787" data-name="Group 24787" transform="translate(7.677 15.35)">
      <g id="ID" transform="translate(32.759 18.541) rotate(-19)">
        <g id="Group_18774" data-name="Group 18774" transform="translate(4.2 5.961)">
          <path id="Path_22709" data-name="Path 22709" d="M.606,7.171A.606.606,0,0,1,.2,6.115,5.314,5.314,0,0,0,1.781.763.606.606,0,1,1,2.952.449,6.521,6.521,0,0,1,1.011,7.016.6.6,0,0,1,.606,7.171Z" transform="translate(0 0)" fill="#2d82f7"/>
        </g>
        <g id="Group_18775" data-name="Group 18775" transform="translate(0 1.906)">
          <path id="Path_22710" data-name="Path 22710" d="M.8,6.758A.606.606,0,0,1,.212,6.3,6.53,6.53,0,0,1,1.756.194a.606.606,0,1,1,.887.825A5.327,5.327,0,0,0,1.385,6a.606.606,0,0,1-.435.739A.627.627,0,0,1,.8,6.758Z" transform="translate(0)" fill="#2d82f7"/>
        </g>
        <g id="Group_18776" data-name="Group 18776" transform="translate(3.222 0)">
          <path id="Path_22711" data-name="Path 22711" d="M9.509,8.664a.606.606,0,0,1-.606-.6C8.878,3.837,6.747,1.212,3.344,1.212a5.49,5.49,0,0,0-2.47.6A.606.606,0,1,1,.339.723,6.674,6.674,0,0,1,3.344,0c4.084,0,6.742,3.161,6.771,8.054a.606.606,0,0,1-.6.61Z" transform="translate(0 0)" fill="#2d82f7"/>
        </g>
        <g id="Group_18777" data-name="Group 18777" transform="translate(7.977 8.352)">
          <path id="Path_22712" data-name="Path 22712" d="M.606,4.78a.606.606,0,0,1-.526-.906A8.172,8.172,0,0,0,1.057,1.1c.03-.185.052-.367.069-.55A.606.606,0,0,1,2.334.661c-.019.21-.045.422-.079.633A9.4,9.4,0,0,1,1.133,4.474.605.605,0,0,1,.606,4.78Z" transform="translate(0 0)" fill="#2d82f7"/>
        </g>
        <g id="Group_18778" data-name="Group 18778" transform="translate(1.669 2.981)">
          <path id="Path_22713" data-name="Path 22713" d="M.607,8.328a.606.606,0,0,1-.3-1.134c1.332-.752,1.257-1.928,1.066-3.068a3.479,3.479,0,0,1-.065-.543A3.59,3.59,0,0,1,4.9,0c2,0,3.349,1.38,3.694,3.786a.607.607,0,0,1-1.2.172C7.212,2.705,6.633,1.212,4.9,1.212A2.376,2.376,0,0,0,2.522,3.583a2.647,2.647,0,0,0,.049.343A3.752,3.752,0,0,1,.9,8.25.606.606,0,0,1,.607,8.328Z" transform="translate(0 0)" fill="#2d82f7"/>
        </g>
      </g>
      <g id="Group_24922" data-name="Group 24922" transform="translate(7.002 -1.258)">
        <g id="Group_24922-2" data-name="Group 24922" transform="translate(1.123 3.308)">
          <rect id="Rectangle_9934" data-name="Rectangle 9934" width="29.29" height="29.29" rx="14" transform="translate(0 0)" fill="#0068f5" opacity="0.08"/>
        </g>
        <g id="Group_24924" data-name="Group 24924" transform="translate(0 0)">
          <path id="Path_105752" data-name="Path 105752" d="M11.3,36.739h3.76l8.39-8.749,1.038.177.74.3,1.38.189,1.975.033V30.8l1.405,1.18v1.667l-1.528,1.687.43.857,1.042,1.062-.164,1.5-1.247.94.123,2.7H31.8l2.818-2.887-.345-14.064-5.69-.642-.061-10.907s-2.451-.524-3.59.2-2.46,1.464-2.46,1.464l-2.317,2.9-.288,3.049.158,1.782-2.956,2.628L16.7,28.942l-2.708.152-.641.55-.184,2.707-2.1.089L9.05,34.36Z" transform="translate(-8.377 -8.596)" fill="#f9f9f9"/>
          <path id="Path_105753" data-name="Path 105753" d="M31.445,42.256H28.032l-.136-2.98,1.26-.951.145-1.33-1-1.02-.5-1,1.566-1.729V31.741l-1.406-1.179v-2.02l-1.8-.03-1.414-.194L24,28.02l-.921-.156L14.706,36.6h-3.92L8.35,34.028l2.206-2.1,2-.085.178-2.618.749-.642,2.616-.146.362-2.939L19.4,22.888l-.15-1.7.295-3.121,2.375-2.978.032-.018c.013-.007,1.329-.749,2.451-1.46a3.583,3.583,0,0,1,1.9-.412,9.808,9.808,0,0,1,1.834.187l.147.031.061,10.894,5.686.641.351,14.309Zm-3.056-.374h2.9L34,39.108l-.339-13.824-5.694-.643L27.9,13.72a9.613,9.613,0,0,0-1.61-.15,3.237,3.237,0,0,0-1.7.353c-1.033.655-2.227,1.333-2.436,1.451L19.9,18.209l-.281,2.976.165,1.858-2.973,2.643-.383,3.11-2.8.157-.533.457-.191,2.8-2.193.094L8.877,34.043l2.068,2.184h3.6l8.4-8.764,1.155.2.737.3,1.348.185,2.148.036v2.212l1.405,1.18v1.826l-1.49,1.647.359.716,1.083,1.1-.182,1.667-1.232.93Z" transform="translate(-7.939 -8.269)" fill="#f9f9f9"/>
          <path id="Path_105754" data-name="Path 105754" d="M45.631,12.675,43.682,14l-.612,1.825L41.99,17.07l.081,2.455.588,2.336.757,1.72.856.9.989.857s3.413,1.828,6.281.955,1.558-.74,1.558-.74l1.884-1.338,1-2.788.688-1.7-.49-3-.82-1.271L54.409,14l-2.645-1.649-2.528-.469-2.122.206Z" transform="translate(-25.298 -7.658)" fill="#fc6d86"/>
          <path id="Path_105755" data-name="Path 105755" d="M48.929,11.382l2.589.48,2.71,1.69.973,1.495.84,1.3.507,3.091-.709,1.741-1.015,2.839-1.591,1.131a.207.207,0,0,1,.036.091c.028.191-.177.289-.469.408-.312.126-.824.3-1.517.509a6,6,0,0,1-1.745.244,10.188,10.188,0,0,1-3.244-.6,10.993,10.993,0,0,1-1.433-.609l-.018-.01L43.823,24.3l-.88-.928-.779-1.763-.6-2.372-.084-2.549,1.1-1.269.62-1.849,2.018-1.376,1.528-.6Zm2.451.835-2.467-.458-2.069.2-1.44.566-1.879,1.281-.6,1.8-1.055,1.214.078,2.362.579,2.3.738,1.676.827.874.966.836a10.969,10.969,0,0,0,4.485,1.16,5.624,5.624,0,0,0,1.636-.228c.407-.124.721-.225.962-.307l-.035,0,2.411-1.714.978-2.739.67-1.647-.477-2.911-.8-1.238-.926-1.424Z" transform="translate(-24.982 -7.343)" fill="#fc6d86"/>
          <g id="Group_24923" data-name="Group 24923" transform="translate(0 0)">
            <path id="Path_105756" data-name="Path 105756" d="M39.264,41.62l.122.008-.22-.1C39.109,41.509,39.121,41.55,39.264,41.62Z" transform="translate(-23.831 -22.881)" fill="#0c3058"/>
            <path id="Path_105757" data-name="Path 105757" d="M40.924,42.558c.181.045.395.066.3-.015-.185-.013-.219-.046-.42-.065.05.016.093.037.145.052C41,42.562,40.941,42.554,40.924,42.558Z" transform="translate(-24.688 -23.373)" fill="#0c3058"/>
            <path id="Path_105758" data-name="Path 105758" d="M39.752,41.947a1.636,1.636,0,0,0,.5.256c-.143-.055-.236-.124-.2-.13A3.128,3.128,0,0,0,39.752,41.947Z" transform="translate(-24.149 -23.1)" fill="#0c3058"/>
            <path id="Path_105759" data-name="Path 105759" d="M40.795,42.476l-.007,0,0,0Z" transform="translate(-24.681 -23.37)" fill="#0c3058"/>
            <path id="Path_105760" data-name="Path 105760" d="M45.158,43.272a1.3,1.3,0,0,0-.136,0l.128,0Z" transform="translate(-26.856 -23.78)" fill="#0c3058"/>
            <path id="Path_105761" data-name="Path 105761" d="M33.436,46.873s.005.005.005.005C33.452,46.862,33.454,46.856,33.436,46.873Z" transform="translate(-20.904 -25.625)" fill="#0c3058"/>
            <path id="Path_105762" data-name="Path 105762" d="M21.417,59.006a.543.543,0,0,1,.117-.063C21.482,58.952,21.757,58.655,21.417,59.006Z" transform="translate(-14.73 -31.774)" fill="#0c3058"/>
            <path id="Path_105763" data-name="Path 105763" d="M45.368,43.294l-.09,0c-.008.006-.011.012.008.017a.15.15,0,0,1,.082-.013Z" transform="translate(-26.984 -23.791)" fill="#0c3058"/>
            <path id="Path_105764" data-name="Path 105764" d="M24.2,40.435a1.956,1.956,0,0,0,.03-.246.326.326,0,0,0-.011-.051Z" transform="translate(-16.16 -22.171)" fill="#0c3058"/>
            <path id="Path_105765" data-name="Path 105765" d="M26.49,27.969h-.125l-.223,0c.058-.011,0-.024-.086-.044-.226-.011-.156.047-.453,0a1.253,1.253,0,0,1,.231-.037,7.413,7.413,0,0,1-.808-.051c-.067-.04.172-.007.27-.012-.31-.028-.791-.136-.894-.128l.189.068c-.11-.028-.048-.048.036-.037a.729.729,0,0,1,.386.116l-.2-.031a.513.513,0,0,0,.182.072,6.014,6.014,0,0,1-1.738-.594l-.306-.165-.028.029c-.007-.089.04-.234-.412.159l-.28.348-.125.077.262-.268a1.519,1.519,0,0,0-.337.366.528.528,0,0,0-.158.106l-.256.359c-.057.018.1-.178-.119.019-.12.168.182-.1-.04.161-.172.128-.147.066-.3.262-.037.012-.009-.034.054-.11-.14.174-.4.426-.457.534-.184.13-.517.542-.551.478a4.458,4.458,0,0,1-.374.463c.2-.323-.538.541-.531.41-.141.247-.674.732-.987,1.109a.466.466,0,0,1,.077-.1c-.2.192-.268.233-.4.349.018.068-.271.383-.406.574-.278.2.092-.2-.021-.159.047.022-.374.451-.265.4-.206.159-.168.146-.3.206.022.085-.159.18-.275.365-.288.24-.118.019-.387.327-.153.123.083-.156.083-.156-.293.3-.1.179-.136.265-.337.366-.191.135-.331.235-.207.232-.337.439-.5.6-.019.006-.053.036-.024-.01-.2.265-.681.7-.909,1.011a.167.167,0,0,1-.045.026c.064-.024.091-.011.1.013-.13.134-.217.273-.293.3a.481.481,0,0,0,.106-.145l-.125.15c-.161.088.174-.2.146-.231-.055.061-.112.126-.168.191L14.1,36c-.044.007-.187.013-.282.016s-.2,0-.281,0c-.061-.052.684-.018.294-.064.1,0,.232.009.255.014l.062-.055c-.107.05-.06,0-.05,0,.053-.053.1-.1-.034-.027l-.011.008H13.97l-.145,0-.246.008c-.158.006-.321.012-.6,0-.134.029.044.043-.089.072-.844.052-.665-.132-1.286-.062a1.4,1.4,0,0,1-.658.066c.037-.02.1-.039.143-.059h-.138l-.029,0a1.466,1.466,0,0,1-.154-.107,1.973,1.973,0,0,1-.293-.31c.091.062.325.317.27.249-.234-.317-.214-.179-.42-.4l0-.082L9.251,34.208l.133-.153c-.014.037-.081.135.037.029.183-.21.379-.424.581-.636l.3-.32.153-.158.075-.079.021-.019.834.031.316-.045c.075,0,.136.021.057.029.322.017.016-.029.172-.047.183,0,.242.026.126.039l.309-.018.444-.017.286-.44.271-.4,0-.4.016-.309.013.117c.018-.467-.093-.527-.051-.959l.008.083.006-.656.812-.674.487.011c.17.006.331.016.48.029.147-.065,1,.029,1.068-.062l.356.025.124-.237.082-.146.1-.2.177-.366,0-.065c0-.244-.057-.332-.066-.607l.047-.006-.05-.365.057-.195-.012-.252c0,.1-.021.213-.035.2a4.722,4.722,0,0,1,0-.476,1.267,1.267,0,0,1,.033-.315c.02-.008.031-.007.036,0l.636-.678a1.458,1.458,0,0,1-.187.237c.323-.382.1-.027.4-.377-.051.035,0-.043,0-.057a9.619,9.619,0,0,0,.819-.774l-.03.075,1.418-1.4-.078-.289c-.016-.059-.031-.117-.044-.174.051.27-.021.225-.078.006l.029-.1c-.062-.133.034.231-.07-.048-.058-.279.013-.2.066-.043a3.1,3.1,0,0,1-.081-.333c.012-.022.032.056.054.073-.061-.134-.032-.587-.094-.784l.015-.02a6.715,6.715,0,0,1,.124-1.693c-.037-.021.024-.253.04-.44a8.35,8.35,0,0,1,.612-1.369c.165-.347.019-.118.086-.279.049,0,.337-.468.209-.213a8.4,8.4,0,0,1,1.042-1.3c-.075.05-.154.116-.126.07.1-.112.265-.221.262-.193l-.027.03a4.575,4.575,0,0,1,1.25-.852c.463-.225.923-.377,1.264-.521l-.037.016.267-.093.422-.118-.083-.327c-.044-.22-.019-.138,0-.085.027.077.071.225.035,0l-.1-.34c-.037-.168-.075-.325-.112-.475l-.514.122c-.112.029-.221.056-.329.09a4.347,4.347,0,0,0-.658.252,3.809,3.809,0,0,0-1.165.542c-.439.276-.854.623-1.156.849l.051-.009a1.638,1.638,0,0,1-.291.242c.03,0,.168-.128.092-.034a8.67,8.67,0,0,0-2.435,4.362c-.1.611.066.362-.055,1.126l-.036-.222a9.871,9.871,0,0,0,.122,1.882l.044.232c.005.026.01.035-.007.047l-.3.294c-.216.214-.428.428-.631.644a.641.641,0,0,1,.116-.15,3.727,3.727,0,0,0-.647.669c-.135.127-.05.01-.142.079-.2.159-.419.473-.54.54-.021.012.042-.058.073-.092-.1.127-.55.529-.407.449l-.19.177-.232.229.006.441c0,.117,0,.229-.009.337a8.056,8.056,0,0,0,.045.834c-.027-.012-.041.1-.047.251,0,.078,0,.166,0,.258l0,.137v.034h0a.32.32,0,0,0,0,.048h-.018c.027-.006.017-.01-.007-.014h0c-.059-.01-.206-.016-.127-.037-.321,0-.615.014-.559.05a3.619,3.619,0,0,0-.657-.021l-.3.015c-.1,0-.165.007-.333.005a1.061,1.061,0,0,1-.294.194l-1.286,1.143c.009.4.016.761.023,1.116-.07-.031-.007-.948-.08-.911.029.808.088,1.288.072,2.077H12.15a.187.187,0,0,1-.006-.037l-.016-.139.006.177c-.636.007-1.241-.008-1.819.022a.735.735,0,0,1,.154-.019c-.146,0-.322-.01-.331.021l.154-.008c.1.024,0,.049-.258.07a2.713,2.713,0,0,0-.24.331c.1-.239-.5.508-.325.15-.059.073-.128.169-.1.168-.1.1-.139.122-.06,0-.335.386-.187.276-.5.614-.01-.012.049-.084.069-.131a4.744,4.744,0,0,1-.551.662c.009-.023-.03,0,.049-.083-.124.135-.234.262-.339.389l-.369.436.355.356c.1.1.2.217.315.343-.2-.112.156.2.14.265l.284.277-.088-.135c.237.253.477.449.668.678l-.194-.171.452.469-.236-.283c.262.235.027-.077.332.27-.069-.065.237.253.337.408h0a3.521,3.521,0,0,1,.395.381l.084,0c.083.018-.079.064-.025.075.212-.048.824-.013,1.048-.065-.072.012-.075.042-.052.049l.143-.037c.161.012.184.018.158.042.483.007-.154-.073.42-.041-.045,0-.024.009-.118.015.576.016,1.113-.025,1.643-.006.156.058-.462.014-.284.063l1.129-.034.455-.491.424-.435-.1.094c.013-.13.414-.364.648-.658-.06.07-.052.117-.041.093.364-.352.711-.752,1.229-1.317l-.052.083c.222-.2.558-.553.79-.776.052-.083.183-.212.083-.154.781-.625,1.281-1.4,1.969-1.956-.075.075-.162.192-.1.132l.512-.549c-.067.018-.084.055-.215.15a2.865,2.865,0,0,1,.319-.378c-.22.257.043.037.159-.052-.025.01,0-.034-.015-.034.32-.235-.005-.1.4-.449l-.006.033c.133-.15.245-.3.4-.449.092-.035-.136.165-.121.2a5.99,5.99,0,0,1,.585-.649L21.6,29.9a2.952,2.952,0,0,0,.42-.368L22,29.548l.374-.352-.1.085a12.023,12.023,0,0,1,.831-.976c-.293.394-.025.08-.022.144.037-.012.06-.077.1-.037.033.023.049.037.034.037a1.376,1.376,0,0,1,.276.109,1.517,1.517,0,0,0,.4.122c.01.019.25.079.187.1.312.075-.066-.045-.034-.057a7.3,7.3,0,0,0,1.829.31c.152,0,.273,0,.378-.007.122-.016.255,0,.307-.044-.016-.192-.031-.334-.044-.539v-.156c.023-.091.048.189.048.189l.012-.22,0-.25C26.6,27.945,26.522,27.978,26.49,27.969Zm-.247.016c.048.009.083.024.082.037-.112,0-.222-.011-.332-.017C26.076,28,26.16,27.993,26.242,27.985ZM26,27.963,25.888,28c-.231-.017-.454-.044-.674-.079C25.464,27.947,25.768,27.951,26,27.963ZM9.269,34.157l.1-.112h0Zm.415-.455c-.031.011-.021-.022.036-.082-.023.039.115-.1.207-.177Zm9.447-1.364.187-.191c0,.024-.04.081-.155.21-.013,0-.029,0-.032-.018ZM25.44,28.89c.114.013.231.023.347.031a.619.619,0,0,1-.229.024Z" transform="translate(-7.668 -8.391)" fill="#0c3058"/>
            <path id="Path_105766" data-name="Path 105766" d="M26.949,42.651h-.011l.01.072Z" transform="translate(-17.566 -23.462)" fill="#0c3058"/>
            <path id="Path_105767" data-name="Path 105767" d="M37.172,46.47l.2-.185Z" transform="translate(-22.823 -25.328)" fill="#0c3058"/>
            <path id="Path_105768" data-name="Path 105768" d="M39.359,44.469c.009-.02.006-.025,0-.031h0A.117.117,0,0,1,39.359,44.469Z" transform="translate(-23.947 -24.379)" fill="#0c3058"/>
            <path id="Path_105769" data-name="Path 105769" d="M13.428,50.895l.057,0C13.621,50.885,13.53,50.888,13.428,50.895Z" transform="translate(-10.627 -27.693)" fill="#0c3058"/>
            <path id="Path_105770" data-name="Path 105770" d="M12.346,61.214l-.171-.152C12.259,61.156,12.325,61.226,12.346,61.214Z" transform="translate(-9.983 -32.919)" fill="#0c3058"/>
            <path id="Path_105771" data-name="Path 105771" d="M23.955,43.352Z" transform="translate(-16.034 -23.822)" fill="#0c3058"/>
            <path id="Path_105772" data-name="Path 105772" d="M42.483,42.833l.078.013-.068-.018A.018.018,0,0,1,42.483,42.833Z" transform="translate(-25.551 -23.552)" fill="#0c3058"/>
            <path id="Path_105773" data-name="Path 105773" d="M41.991,42.734l.162.035A.758.758,0,0,0,41.991,42.734Z" transform="translate(-25.299 -23.504)" fill="#0c3058"/>
            <path id="Path_105774" data-name="Path 105774" d="M46.67,43.679c.023.213-.037.482-.011.658,0-.094.01-.168.017-.27a3.391,3.391,0,0,0,.007-.365Z" transform="translate(-27.693 -23.989)" fill="#0c3058"/>
            <path id="Path_105775" data-name="Path 105775" d="M18.8,62.3l.1-.037-.3.012Z" transform="translate(-13.283 -33.537)" fill="#0c3058"/>
            <path id="Path_105776" data-name="Path 105776" d="M62.581,40.1l.011-.009-.046.02Z" transform="translate(-35.858 -22.149)" fill="#0c3058"/>
            <path id="Path_105777" data-name="Path 105777" d="M62.639,39.871a.952.952,0,0,0,.112-.05c.05-.009.01.022,0,.036.139-.085.288-.2.176-.2C62.81,39.76,62.764,39.762,62.639,39.871Z" transform="translate(-35.905 -21.924)" fill="#0c3058"/>
            <path id="Path_105778" data-name="Path 105778" d="M61.9,40.157c-.042.026-.2.05-.262.1a1.626,1.626,0,0,0,.442-.121C61.971,40.175,61.886,40.178,61.9,40.157Z" transform="translate(-35.392 -22.171)" fill="#0c3058"/>
            <path id="Path_105779" data-name="Path 105779" d="M65.884,38.027a.849.849,0,0,0-.086.078l.086-.068Z" transform="translate(-37.528 -21.086)" fill="#0c3058"/>
            <path id="Path_105780" data-name="Path 105780" d="M59.955,46.709s.008,0,.008,0C59.958,46.693,59.955,46.688,59.955,46.709Z" transform="translate(-34.526 -25.539)" fill="#0c3058"/>
            <path id="Path_105781" data-name="Path 105781" d="M60.036,61.289c-.031.037-.042-.314-.037.11A.449.449,0,0,1,60.036,61.289Z" transform="translate(-34.548 -32.984)" fill="#0c3058"/>
            <path id="Path_105782" data-name="Path 105782" d="M66.032,37.941a.632.632,0,0,1-.057.052c0,.009,0,.015.017.008a.152.152,0,0,1,.04-.06Z" transform="translate(-37.619 -21.042)" fill="#0c3058"/>
            <path id="Path_105783" data-name="Path 105783" d="M52,18.828a2.574,2.574,0,0,1,.258-.317,2.139,2.139,0,0,0-.258.317Z" transform="translate(-30.441 -11.061)" fill="#0c3058"/>
            <path id="Path_105784" data-name="Path 105784" d="M54.537,16.974l.225-.055a.3.3,0,0,0,.042-.025,2.124,2.124,0,0,0-.267.08Z" transform="translate(-31.743 -10.231)" fill="#0c3058"/>
            <path id="Path_105785" data-name="Path 105785" d="M62.429,23.478c0,.026,0,.048-.007.075C62.433,23.5,62.433,23.484,62.429,23.478Z" transform="translate(-35.793 -13.613)" fill="#0c3058"/>
            <path id="Path_105786" data-name="Path 105786" d="M58.795,17.238Z" transform="translate(-33.93 -10.408)" fill="#0c3058"/>
            <path id="Path_105787" data-name="Path 105787" d="M63.963,39.5c-.015.007-.031.011-.047.017A.084.084,0,0,0,63.963,39.5Z" transform="translate(-36.561 -21.842)" fill="#0c3058"/>
            <path id="Path_105788" data-name="Path 105788" d="M55.517,28.038c-.029-.005-.057-.005-.086-.011C55.448,28.03,55.481,28.034,55.517,28.038Z" transform="translate(-32.203 -15.95)" fill="#0c3058"/>
            <path id="Path_105789" data-name="Path 105789" d="M50.763,58.741h-.011c0,.015.006.012.01.018Z" transform="translate(-29.799 -31.726)" fill="#0c3058"/>
            <path id="Path_105790" data-name="Path 105790" d="M70.255,30.342a.066.066,0,0,0,.014.028v0Z" transform="translate(-39.817 -17.139)" fill="#0c3058"/>
            <path id="Path_105791" data-name="Path 105791" d="M59.278,27.6l-.047.025C59.121,27.685,59.2,27.645,59.278,27.6Z" transform="translate(-34.126 -15.731)" fill="#0c3058"/>
            <path id="Path_105792" data-name="Path 105792" d="M58.8,17.232l.2.059C58.891,17.245,58.81,17.21,58.8,17.232Z" transform="translate(-33.933 -10.401)" fill="#0c3058"/>
            <path id="Path_105793" data-name="Path 105793" d="M51.946,19.2h0l.025-.037Z" transform="translate(-30.412 -11.396)" fill="#0c3058"/>
            <path id="Path_105794" data-name="Path 105794" d="M59.2,17.361l.259.139A1.286,1.286,0,0,0,59.2,17.361Z" transform="translate(-34.139 -10.471)" fill="#0c3058"/>
            <path id="Path_105795" data-name="Path 105795" d="M63.907,39.3a.016.016,0,0,1,0,.01l.057-.037Z" transform="translate(-36.555 -21.726)" fill="#0c3058"/>
            <path id="Path_105796" data-name="Path 105796" d="M63.523,39.491l.127-.065a.492.492,0,0,0-.127.065Z" transform="translate(-36.359 -21.805)" fill="#0c3058"/>
            <path id="Path_105797" data-name="Path 105797" d="M67.174,36.514c-.084.088-.225.207-.333.337l0,.019C66.879,36.8,67.115,36.617,67.174,36.514Z" transform="translate(-38.062 -20.309)" fill="#0c3058"/>
            <path id="Path_105798" data-name="Path 105798" d="M58.205,13.3l.086-.028-.209-.009a1.065,1.065,0,0,0,.123.037Z" transform="translate(-33.564 -8.363)" fill="#0c3058"/>
            <path id="Path_105799" data-name="Path 105799" d="M58.066,19.884a.046.046,0,0,0-.013-.018l.005.017Z" transform="translate(-33.549 -11.757)" fill="#0c3058"/>
            <path id="Path_105800" data-name="Path 105800" d="M59.794,21.216c-.027.016-.054-.023-.031.029a.17.17,0,0,1,.031-.029Z" transform="translate(-34.423 -12.451)" fill="#0c3058"/>
            <path id="Path_105801" data-name="Path 105801" d="M58.05,19.911l0-.012a.026.026,0,0,0-.016,0C58.042,19.9,58.047,19.906,58.05,19.911Z" transform="translate(-33.538 -11.774)" fill="#0c3058"/>
            <path id="Path_105802" data-name="Path 105802" d="M54.267,20.737a.072.072,0,0,0-.041.007.054.054,0,0,0,.006.011Z" transform="translate(-31.584 -12.204)" fill="#0c3058"/>
            <path id="Path_105803" data-name="Path 105803" d="M57.973,19.535l0,0v0Z" transform="translate(-33.508 -11.587)" fill="#0c3058"/>
            <path id="Path_105804" data-name="Path 105804" d="M59.357,20.728c-.009,0-.018.008-.026,0A.1.1,0,0,0,59.357,20.728Z" transform="translate(-34.206 -12.198)" fill="#0c3058"/>
            <path id="Path_105805" data-name="Path 105805" d="M58.4,25.115l.006.009,0-.013Z" transform="translate(-33.727 -14.452)" fill="#0c3058"/>
            <path id="Path_105806" data-name="Path 105806" d="M58.029,21.269l-.018,0h0Z" transform="translate(-33.528 -12.476)" fill="#0c3058"/>
            <path id="Path_105807" data-name="Path 105807" d="M55.751,21.007a.178.178,0,0,1-.021-.029C55.727,20.994,55.726,21.007,55.751,21.007Z" transform="translate(-32.355 -12.329)" fill="#0c3058"/>
            <path id="Path_105808" data-name="Path 105808" d="M54.561,20.413h0l0,0Z" transform="translate(-31.754 -12.039)" fill="#0c3058"/>
            <path id="Path_105809" data-name="Path 105809" d="M58.088,19.53h-.007l.005.01Z" transform="translate(-33.564 -11.585)" fill="#0c3058"/>
            <path id="Path_105810" data-name="Path 105810" d="M58.05,20.156c0-.018.034-.047.023-.073l-.012,0C58.084,20.093,58.023,20.138,58.05,20.156Z" transform="translate(-33.544 -11.868)" fill="#0c3058"/>
            <path id="Path_105811" data-name="Path 105811" d="M55.678,21.9l-.012-.043-.024.026Z" transform="translate(-32.311 -12.78)" fill="#0c3058"/>
            <path id="Path_105812" data-name="Path 105812" d="M58.517,11.118c.187,0,.409,0,.3-.069-.192.018-.234-.009-.438.017-.157-.025-.274-.043-.245-.063a2.114,2.114,0,0,0-.334,0,4.615,4.615,0,0,0,.737.083C58.59,11.106,58.531,11.11,58.517,11.118Z" transform="translate(-33.418 -7.203)" fill="#0c3058"/>
            <path id="Path_105813" data-name="Path 105813" d="M63.436,12.172a.9.9,0,0,0-.133-.048l.122.052Z" transform="translate(-36.246 -7.781)" fill="#0c3058"/>
            <path id="Path_105814" data-name="Path 105814" d="M52.488,4.876s0,.007,0,.007C52.5,4.889,52.51,4.889,52.488,4.876Z" transform="translate(-30.689 -4.058)" fill="#0c3058"/>
            <path id="Path_105815" data-name="Path 105815" d="M36.657,8.282a.4.4,0,0,1,.107-.086C36.714,8.214,36.952,7.868,36.657,8.282Z" transform="translate(-22.559 -5.702)" fill="#0c3058"/>
            <path id="Path_105816" data-name="Path 105816" d="M63.63,12.271l-.085-.037c-.01,0-.014.007,0,.019A.165.165,0,0,1,63.63,12.271Z" transform="translate(-36.366 -7.838)" fill="#0c3058"/>
            <path id="Path_105817" data-name="Path 105817" d="M51.649,74.427l-.441-.006Z" transform="translate(-30.033 -39.781)" fill="#0c3058"/>
            <path id="Path_105818" data-name="Path 105818" d="M48.021,73.916l.048,0-.045,0c.013-.143.02-.279.025-.412a.279.279,0,0,0-.011-.073Z" transform="translate(-28.396 -39.272)" fill="#0c3058"/>
            <path id="Path_105819" data-name="Path 105819" d="M46.3,14.378c-.036.037-.075.075-.11.112C46.214,14.461,46.249,14.427,46.3,14.378Z" transform="translate(-27.453 -8.939)" fill="#0c3058"/>
            <path id="Path_105820" data-name="Path 105820" d="M37.212,15.323v0C37.184,15.32,37.177,15.321,37.212,15.323Z" transform="translate(-22.832 -9.422)" fill="#0c3058"/>
            <path id="Path_105821" data-name="Path 105821" d="M53.2,15.212a3.024,3.024,0,0,1-.023-.5c.011.34.066,0,.07-.15-.01.025-.024-.026-.034-.013.044-.4-.075-.064-.058-.606l.02.027c-.03-.2-.088-.381-.112-.6.027-.1.05.21.086.219-.024-.153-.064-.3-.1-.443a1.785,1.785,0,0,1-.107-.417c.039.13.091.3.13.431a2.918,2.918,0,0,0-.093-.558l0,.022a3.443,3.443,0,0,0-.133-.507l.033.13a2.24,2.24,0,0,1-.258-.548,4.979,4.979,0,0,0-.326-.62c.273.425.07.058.128.072-.039-.13-.133-.31-.093-.266-.163-.191-.176-.379-.422-.636,0-.021-.155-.214-.091-.191-.2-.253.024.077-.008.066a6.9,6.9,0,0,0-1.27-1.371,6.922,6.922,0,0,0-1.018-.6l-.12-.075c-.066-.067.187.058.187.058a2.774,2.774,0,0,0-.727-.4c.058.014.009-.022-.064-.077-.213-.1-.159-.025-.439-.15a1.256,1.256,0,0,1,.242.026c-.266-.08-.527-.161-.8-.23-.065-.048.177.007.276.033a4.071,4.071,0,0,0-.912-.192l.195.067c-.112-.028-.05-.05.036-.036a.685.685,0,0,1,.39.134l-.2-.043c.179.124.778.228,1.149.4l-.143-.012a7.845,7.845,0,0,0-3-.636c0-.013-.011-.025-.016-.037.049.018.109.059.112-.022.013,0,.021,0,.037,0l.115-.044h-.155a2.021,2.021,0,0,0-.1-.385c-.084-.13-.161-.262-.25-.389L45.281,6a3.2,3.2,0,0,1,.19.337A1.225,1.225,0,0,0,45.2,5.9a.434.434,0,0,0-.075-.183c-.109-.109-.206-.225-.323-.322-.013-.06.173.122-.009-.122-.159-.143.08.2-.158-.059-.12-.185-.062-.154-.259-.322-.012-.039.034-.008.112.06a3.041,3.041,0,0,0-.569-.454c-.15-.183-.639-.436-.584-.481-.075-.018-.377-.161-.572-.236.192.044.013-.04-.2-.139-.219-.083-.471-.179-.412-.2a9.017,9.017,0,0,0-1.531-.194.492.492,0,0,1,.129-.009c-.285-.018-.367-.046-.552-.046-.036.06-.477.093-.7.18-.353,0,.2-.1.082-.141.022.037-.592.152-.465.177a1.211,1.211,0,0,1-.374.027c-.024.079-.232.1-.425.213-.372.109-.121-.029-.5.172-.194.068.138-.122.138-.122-.4.19-.159.139-.228.208-.436.274-.225.086-.393.15a7.853,7.853,0,0,0-.618.532c-.019,0-.057.034-.023-.012a5.528,5.528,0,0,0-.9,1.074.167.167,0,0,1-.042.033c.062-.035.091-.025.1,0-.12.15-.161.316-.234.355a.505.505,0,0,0,.073-.168l-.091.179c-.14.127.127-.244.093-.265a10.85,10.85,0,0,0-.5,1.036c-.089.031.285-.643.065-.3a3.758,3.758,0,0,1,.233-.405c-.258.266.153-.241-.095,0a5.448,5.448,0,0,0-.5,1.215c-.007.143.053-.033.046.109a4.832,4.832,0,0,1-.187.728,1.059,1.059,0,0,0-.067.217c-.005.043-.009.092-.011.15,0,.073,0,.158,0,.267.005.069.013.122.021.174s-.008.123.1.088a2.981,2.981,0,0,1,.556-.007l-.152.059a2.665,2.665,0,0,0,.306-.01l.218-.025.1-.011c.025-.016.109.026.089-.052,0-.055.006-.118.01-.2l.021-.228a.822.822,0,0,1,.007.112l-.005.233v.021c.085-.428-.031-.284.012-.574l.061-.053a4.445,4.445,0,0,1,.6-1.8c-.006.04-.051.145.043.022a4.01,4.01,0,0,1,1.936-1.623,2.41,2.41,0,0,1,.265-.155c.068-.024.131-.026.062.008.3-.091.006-.033.141-.1.173-.048.235-.034.13.007a3.64,3.64,0,0,1,1.043-.21,3.131,3.131,0,0,1,1.086.109l-.114-.008c.435.11.527.026.909.221l-.078-.025a4.185,4.185,0,0,1,2.105,1.821.7.7,0,0,1,.128.172.66.66,0,0,1,.052.094l.027.062c-.013.052-.143.031-.2.1a4.829,4.829,0,0,0-.538.052,4.2,4.2,0,0,0-.708.157,5.033,5.033,0,0,0-.549.274l-.025-.041-.322.2-.207.032-.221.139c.091-.049.2-.091.194-.07a5.71,5.71,0,0,1-.567.311,1.569,1.569,0,0,1-.315.162,7.479,7.479,0,0,0-.73.626.487.487,0,0,1,.1-.118c-.192.18-.044-.051-.316.26.052-.037,0,.045-.005.059a4.894,4.894,0,0,0-.382.356c-.137.162-.282.344-.4.5l.022-.079a7.945,7.945,0,0,0-1.113,2.018c.124-.262.147-.178.068.04l-.077.071c-.018.154.1-.225.033.082-.1.279-.118.172-.079,0l-.1.35c-.021.016,0-.067-.013-.094a4.824,4.824,0,0,0-.206.819l-.019.018a7.936,7.936,0,0,0-.12,1.815c.049.011.037.27.1.457A6.139,6.139,0,0,0,38,16.972c.17.368.078.1.17.255-.032.045.208.566.058.308a8.516,8.516,0,0,0,.9,1.5c-.042-.086-.091-.179-.051-.14.092.127.19.3.161.3l-.027-.031a12.989,12.989,0,0,0,1.96,2.286l-.034-.026c.1.082.065.018.082.207l.021.4c-.007.365-.03-.219-.055.051.066.855-.009,1.352.034,2.056a4.067,4.067,0,0,0-.052.737c0,.331.006.7.01,1.061l.489.387c.127.105.243.2.337.3l-.016-.048c.166.1.171.155.277.247,0-.029-.146-.147-.045-.086l.435.334v.591l-1.49,1.623q-.014.786-.028,1.559l.067.065c.132.127.13.123.184.169a1.182,1.182,0,0,0,.1.08,1.546,1.546,0,0,0,.154.088,1.63,1.63,0,0,1,.454.409l-.192-.112.4.349.331.3v.542l-.655.519-.773.636,0,.1-.013-.109a1.283,1.283,0,0,1,.165-.147l-.19.135c0,.107,0,.229,0,.355l.008.262a1.036,1.036,0,0,0,.036.292c0,.187-.027.043-.043.158-.021.253.048.636.011.769-.006.023-.012-.071-.015-.118.018.165,0,.769.037.61-.021.457.019.836-.006,1.235a3.489,3.489,0,0,1,.018.371,2.829,2.829,0,0,0,.79-.027,3.332,3.332,0,0,0,1.069.024c-.095.021.247.022.135.051.323,0,.62-.014.562-.05a4.492,4.492,0,0,0,.864.011c.133-.007.259-.013.372-.011a1.479,1.479,0,0,1,.159.011l.234.025,1.763-2.185c.033.069-.615.73-.535.749.511-.642.772-1.04,1.313-1.647.144-.154-.055.11-.091.172l.419-.508v-.936c0-.286,0-.565-.019-.839a.7.7,0,0,1,.019.155c0-.143.01-.334-.021-.317l.009.14c-.046.229-.1-.571-.12-.6.091.244.023-.719.137-.332-.006-.095-.021-.213-.042-.192.006-.14.018-.185.042-.042-.017-.514-.051-.332-.05-.8.016,0,.021.1.039.144a4.829,4.829,0,0,1-.047-.867c.009.024.021-.022.021.1,0-.676-.08-1.153-.051-1.895.066.219.022-.252.079-.292l-.017-.4-.028.16c0-.349-.041-.658-.022-.959l.024.26-.011-.655-.022.371c-.03-.353-.073.037-.057-.427.006.094,0-.35.035-.532h0a3.429,3.429,0,0,1-.023-.609c.018-.067.064.054.075.011-.048-.171-.013-.818-.065-1.034.012.072.042.075.049.052l-.039-.143c.013-.162.019-.185.043-.159.007-.487-.073.155-.041-.423,0,.045.009.023.015.118.008-.29,0-.571,0-.845l-.005-.357.337-.109c.085,0-.026.043-.134.082-.125.045-.128.047-.086.059.116-.045.355-.122.522-.2s.366-.167.541-.262c.311-.17.6-.361.878-.548.037-.126.483-.291.728-.59-.064.068-.059.117-.047.093a5.343,5.343,0,0,0,1.134-1.44l-.033.094a6.235,6.235,0,0,0,.548-.988c.018-.1.091-.271.02-.177a8.424,8.424,0,0,0,.651-2.731c-.01.107-.005.256,0,.171.024-.254.021-.509.022-.763C53.217,15.014,53.229,15.054,53.2,15.212ZM44.961,11.95c-.018.009-.064-.007-.075,0,.048.022.013.105.065.133a.069.069,0,0,0-.049-.006l.037.018c-.012.021-.018.024-.042.021-.007.063.073-.019.041.055,0-.006-.009,0-.015-.015-.016.077.025.134.006.232-.058.044-.014-.08-.063-.04a2.639,2.639,0,0,0,.053.285.482.482,0,0,1,.112,0l-.019-.006c.069-.082.067.04.155,0-.017.006-.036.045-.028.037a.627.627,0,0,0,.268-.046l-.013.021a.734.734,0,0,0,.143.021c.012-.021.037-.018.022-.048.063.06.121.044.207.025a.305.305,0,0,1,.243.01c-.018,0-.03.018-.014.018l.039-.006-.013-.1c-.036-.016-.021,0-.049,0a.225.225,0,0,1-.037-.1c.024.062.057.039.077.022-.011,0-.023-.016-.034-.021.063-.034-.072-.041-.029-.1l.019.008c-.01-.033-.034-.06-.029-.087.041-.011.019.026.054.032,0-.044-.078-.079-.037-.116.012.016.012.041.023.057.048-.037.037-.043.044-.072v0l.022-.067-.015.014c-.107-.049-.02-.1-.09-.166.067.065.037.011.085.016.013-.016.027-.042.04-.035-.037-.031.03-.052-.025-.1.015,0,0-.034.039-.027-.012-.04-.026.01-.045.006-.051-.063.062-.147-.008-.237-.027-.073-.072-.093-.1-.154v-.011c.022-.011.048.02.048.02a.1.1,0,0,0,0-.106c.013.008.024,0,.041-.011,0-.03-.055-.02-.033-.059a.234.234,0,0,1,.061.03c-.014-.035-.042-.07-.055-.106.026-.01.039.022.057.034a.352.352,0,0,0-.037-.086c.027.033-.015.048-.03.05l-.01-.026c-.088.027.014.1.009.156l-.052-.018V11.1l.056-.022h.007l0,.034L45.95,11.1c.006.018.015.021.024.019l-.01.018c0-.014.03-.008.04,0a.064.064,0,0,0-.02-.022l.026-.013a.061.061,0,0,0,.006.044l.075-.043c-.006.028-.043.042-.018.07.035-.02,0-.067.05-.07.01.039-.009.061.03.049a.033.033,0,0,1-.029.028c.033-.008.065.023.095,0,0,.045.082.037.044.093a.127.127,0,0,1,.089-.01c-.081.041.07.057.008.12.071-.041.107.047.177.054-.006,0-.018.006-.019,0,.018.027.009.05.013.075.045-.039.092-.015.138-.018-.018.07-.069.029-.1.075.035-.034.08.019.1-.017-.008.046,0,.031-.026.075.063-.043.028.013.079.006,0,.058-.051.051,0,.075,0,.014-.015.016-.026.016a.548.548,0,0,0,.066-.028c.046.04-.021.046-.035.077.031.022.09.019.1.044-.007.006-.008.013-.021.013.056.013.055.1.121.118a.034.034,0,0,1-.011.011.25.25,0,0,1,.07-.037c.009.021.05.027.018.049,0-.013-.018-.009-.032-.011l.024.016c-.042.037-.03-.023-.066-.009.034.034.094.072.089.112-.048.022-.041-.075-.072-.014a.453.453,0,0,0,0-.057c-.063.066-.006-.031-.075.033.009.068.048.064.055.133.031.008.041-.016.072-.008.071.089-.11.1-.031.159.037.013.1.013.075.07l-.061-.012c0,.066.088.031.053.106-.024-.012-.022-.052-.029-.042-.045.048.035.031.037.067l-.052.008a1.488,1.488,0,0,1,.041.234c-.015-.007-.029-.022-.048-.006a.407.407,0,0,1-.107.286l.03.05c0,.008-.024.007-.03,0-.028.028.026.012.037.036,0,.021-.034.016-.042,0,.012.075-.005.211-.087.244l0-.019c-.044.035.048.105-.019.122v-.01c-.085.085-.145.217-.262.225.031.061-.105.055-.057.129-.083,0-.075-.016-.17.008-.023.009,0,.067-.025.092l-.024-.041-.012.066-.047-.04-.021.023a.04.04,0,0,1,.037.021.1.1,0,0,1-.126,0l-.086.075c0-.019.011-.031.02-.048-.037.065-.026-.044-.06.016.01.008.005.028.007.037a.15.15,0,0,0-.131.018V14a2.448,2.448,0,0,1-.248.051c.033.013.03.07,0,.077l-.013-.05c-.016.031.029.018,0,.057-.036,0-.025-.056-.007-.075l-.04.019c0-.015.006-.023.008-.042-.016.034-.068-.049-.092,0l0-.015c-.087,0-.128.008-.2,0-.009.042-.036.029-.064.059a.815.815,0,0,0-.162-.091c-.05,0-.024.03-.052.047.01-.037-.052-.057-.011-.072a1.1,1.1,0,0,0-.2-.046c0,.019.01.031,0,.04s-.029-.036-.018-.051h.006c-.133-.009-.15-.231-.262-.228h.006l-.1-.031c-.023-.037.037,0,.034-.043-.115-.027-.1-.12-.177-.159.057-.112-.127-.184-.1-.3l-.023.016c-.034-.008,0-.03,0-.046-.019.01-.012.031-.032.025a.838.838,0,0,1-.054-.557c0-.066-.144-.037-.075-.125l.05.027c-.057-.143.029-.277.024-.419.009.012.023.016.019.029a.072.072,0,0,0,.009-.11c.011-.018.027.005.046,0s-.016-.085.025-.083c.006,0,.007.013.008.018-.008-.024.042-.075,0-.078.04-.037.034-.095.075-.117-.025-.049.07-.058.019-.105.053.043.1-.037.1-.083.009.022.034-.007.048.022.023-.028.037-.059.008-.08.1.01.057-.145.155-.09a1.11,1.11,0,0,1,.2-.228c.008.035,0,.037-.012.05s-.042.031-.021.062a.187.187,0,0,0,.048-.089c.011-.025.032-.047.052-.045s-.013.039-.016.054a.12.12,0,0,1,.092-.042.105.105,0,0,1-.018.016s-.01.026.021-.011l-.009,0a.155.155,0,0,1,.12-.08c-.091.063-.023.082-.137.138a.112.112,0,0,0,.042-.019c-.006.013-.018.021-.042.029.017.012.051-.009.05.022a.172.172,0,0,1-.039,0c.03.005.06.008.047.066-.009,0-.021,0-.021-.012,0,.087.079.148.051.243-.067-.028-.022.033-.079.037l.017.052.028-.021c0,.045.041.085.022.124l-.024-.034.011.084.022-.048c.03.045.073,0,.057.055-.006-.012,0,.045-.034.068h0c.018.022.036.047.022.079Zm-.683,24.633h.307c.025.015,0,.031-.075.03.041-.01-.128-.018-.232-.031Zm.581-.048.112-.133-.11.134Zm2.206-23.708c-.009-.007-.021.015-.036.027l.008-.042C47.053,12.812,47.067,12.817,47.065,12.828Zm-.022-.071v0Zm-1.114-1.151a.08.08,0,0,1,.037.028l-.037.014Zm0-.292.041.041a.055.055,0,0,1-.041.006Zm0-.4,0,0,0,.011Zm1.6,10.5-.033.008a.15.15,0,0,0,.021-.083.268.268,0,0,0,.106-.021l.078-.077-.2.075s0,0,0,0a.174.174,0,0,0-.09-.018,2.307,2.307,0,0,0-.415.06l0,.034.022.319.022.192L47,22.03l0-.323a1.144,1.144,0,0,0,.016.43.412.412,0,0,0-.037.161l.069.377c-.028.046-.056-.169-.072.084.032.177.063-.17.084.123-.033.184-.059.13-.031.346-.018.03-.03-.016-.037-.1a5.256,5.256,0,0,0,.048.608c-.04.192.011.649-.057.63a3.4,3.4,0,0,1,.056.514c-.081-.322,0,.661-.092.575a12.709,12.709,0,0,1,.073,1.284A.342.342,0,0,1,47,26.63a4.606,4.606,0,0,1-.042.46c.06.031.075.4.112.6-.058.291-.071-.177-.127-.086.049-.015.049.507.089.408a.844.844,0,0,1-.068.307c.075.037.013.208.059.392-.037.322-.071.083-.048.438-.023.168-.05-.147-.05-.147,0,.361.056.17.088.246.016.431-.042.2-.071.346.015.27.067.476.065.676-.009.015-.013.054-.025.008.045.285,0,.844.059,1.175a.133.133,0,0,1-.014.043c.029-.054.057-.062.078-.051,0,.162.037.3,0,.361a.364.364,0,0,0-.026-.154l.016.169c-.054.153-.018-.231-.058-.231.018.331.062.716.047.969-.052.053-.018-.592-.064-.254l.02-.392c-.083.3.006-.238-.083.037-.015.516.027.577.012,1.092.029.116.043-.037.072.077a1.876,1.876,0,0,1-.021.562l-.037.15-.013.078a.051.051,0,0,0-.006.016l-.088.127a1.068,1.068,0,0,1-.324.481l.04-.138c-.329.374-.121.273-.491.644.043-.086.24-.311.187-.258-.256.227-.13.2-.3.4l-.075.007-1.066,1.333c.01-.036.06-.119-.037-.03l-.018.027-.055,0-.136,0h-.277l-.562-.008-1.086-.037c-.041.007-.1.015-.127.022a.221.221,0,0,1-.045.023c-.022,0-.015-.021.008-.029l-.007,0c.007-.046-.033.037-.049.011,0-.061.026-.082.039-.049a13.482,13.482,0,0,1-.034-1.889l.013.1v-.141a.239.239,0,0,0-.009-.039.285.285,0,0,1,.029-.049l.083-.092a1.2,1.2,0,0,1,.247-.2l-.051.051,1.11-.871c0-.238.006-.469.008-.688.006-.2.016-.381.034-.547a.427.427,0,0,1-.023-.153V31.63c-.162-.157-.209-.206-.293-.281s-.134-.107-.163-.1c-.332-.377-.217-.291-.708-.8a.87.87,0,0,0-.16-.124l-.083-.052a.225.225,0,0,1-.045-.018.18.18,0,0,1-.009-.044l.048-.006-.05-.316c.019-.061.037-.12.057-.112v-.005l.013-.023.061-.077c-.075.081-.1.085-.112.075a1.941,1.941,0,0,1,.152-.177l.191-.193a1.091,1.091,0,0,1,.229-.191l.5-.632a1.1,1.1,0,0,1-.144.22c.249-.355.089-.026.317-.351-.043.033,0-.04,0-.053a2.39,2.39,0,0,0,.236-.237l0-.424-.008-.362.033.064q0-.477,0-1l-.907-.7c.18.161.1.172-.057.054l-.031-.088c-.119-.055.15.143-.079.01-.194-.161-.1-.15.026-.073l-.25-.176c0-.023.057.015.083.012a.649.649,0,0,1-.134-.1l-.083-.075,0-.013a.518.518,0,0,0-.015-.2l.015-.017c-.009-.671-.013-.977-.019-1.524-.043-.011-.034-.225-.069-.387.014-.4.048-.849.044-1.333-.021-.34-.037-.1-.062-.252.039-.025.037-.509.064-.258,0-.174,0-.317,0-.407l-.443-.379-.479-.428c.043.069.1.135.06.112-.1-.089-.2-.226-.172-.225l.027.022a13.735,13.735,0,0,1-1.541-2l.022.029c-.125-.184-.259-.365-.371-.559-.137-.276.112.15.028-.063a5.835,5.835,0,0,1-.641-1.593c.007-.235-.06-.626-.077-1.043a4.208,4.208,0,0,1,.112-1.165l-.031.031a.622.622,0,0,1,.075-.3c-.025.012-.064.163-.056.064a6.184,6.184,0,0,1,2.048-3.519c.394-.3.112-.313.679-.623l-.12.143a6.425,6.425,0,0,1,2.808-1.189.548.548,0,0,1-.153.048,2.658,2.658,0,0,0,.435-.046.075.075,0,0,1,.07-.009c.006.055-.026.007-.033.061a3.112,3.112,0,0,1,.062.628c-.006.018-.013-.058-.017-.1.022.128,0,.656.04.517,0,.1,0,.191-.006.283a1.517,1.517,0,0,0,0,.195c.006.057-.075.033-.259.095-.19.1-.65.278-.665.381-.007-.037-.167.052-.328.2a1.925,1.925,0,0,0-.38.462c.031-.085-.143.176-.112.075-.168.252-.252.517-.2.482a3.277,3.277,0,0,0-.236,1.377,2.875,2.875,0,0,0,1.322,2.005c-.031.024-.215-.1-.371-.238s-.286-.3-.307-.257a2.605,2.605,0,0,0,.769.581,3.682,3.682,0,0,0,.893.317c.139.029.011.023-.092.013a2.729,2.729,0,0,0,1.954-.3.435.435,0,0,1-.117.08c.12-.053.27-.143.242-.159l-.1.075c-.1.034,0-.055.12-.153a1.506,1.506,0,0,0,.245-.249c-.05.107.07,0,.184-.086s.2-.189.125-.019c.054-.069.115-.158.085-.156.082-.1.116-.122.057,0a1.3,1.3,0,0,0,.19-.331l.144-.312c.013.008-.018.086-.021.135.072-.206.122-.412.206-.755,0,.011.009.008.012.013a3.029,3.029,0,0,0-.217-1.582c.14.153-.069-.216-.044-.271a2.649,2.649,0,0,0-.21-.3,1.333,1.333,0,0,1,.059.135,3.407,3.407,0,0,0-.59-.618,2.172,2.172,0,0,1,.19.135,2.729,2.729,0,0,0-.472-.348,2.315,2.315,0,0,1,.259.208c-.268-.163-.01.068-.34-.166.075.031-.265-.147-.405-.231l-.234-.051-.118-.023c-.032-.016-.11,0-.085-.065s.064-.007.075-.041a.181.181,0,0,1-.023-.1c0-.077,0-.165-.008-.255a2.463,2.463,0,0,0-.034-.46c.012.062.042.065.048.045l-.037-.123c0-.14,0-.161.032-.139-.032-.425-.06.137-.075-.366a1.024,1.024,0,0,1,.024.1L45.944,8.2l-.014-.122,0-.031c.006,0,.019,0,.028,0l.06,0,.3.023a1.707,1.707,0,0,1,.337.053c.122.075-.392-.051-.248.024a6.378,6.378,0,0,1,1.909.489l-.107-.05c.121-.052.407.242.706.356-.07-.034-.112-.009-.089-.008L49.4,9.3a7.343,7.343,0,0,1,.678.517L50,9.777c.085.1.205.212.326.332l.309.367c.073.046.164.175.13.08a6.886,6.886,0,0,1,1.064,2.11c-.03-.085-.088-.2-.065-.129a4.512,4.512,0,0,1,.194.61c.022-.058,0-.086,0-.225a2.135,2.135,0,0,1,.137.4c-.095-.278-.049.013-.052.14.008-.023.026.018.035,0-.015.343.079.045.1.509l-.022-.022a3.148,3.148,0,0,1,.062.515c-.037.078-.028-.183-.062-.193a2.812,2.812,0,0,1,.052.751c-.011-.112,0-.271-.021-.382a2.717,2.717,0,0,0-.048.472l0,.024c-.007.055-.015.122-.027.216l.027-.216-.044.4.02-.112a4.553,4.553,0,0,1-.054,1.107c.009-.434-.025-.075-.064-.117-.031.108-.086.27-.087.22-.006.211-.1.328-.132.621-.018.008-.063.212-.086.155-.081.254.048-.051.054-.025a7.743,7.743,0,0,1-.642,1.423,6.339,6.339,0,0,1-.527.852c-.025.027-.047.055-.073.082-.068.043.064-.145.064-.145-.182.187-.333.31-.5.49.028-.044-.017-.018-.083.019-.147.128-.07.122-.292.259a.905.905,0,0,1,.122-.163,4.662,4.662,0,0,1-.548.433c-.069.008.107-.1.168-.161-.227.138-.587.371-.652.429.039-.013.078-.028.117-.043-.018,0,0-.037.046-.067.185-.141.3-.15.316-.143l-.145.092a.942.942,0,0,0,.407-.2c.15-.126.311-.269.449-.369l-.063.112a6.278,6.278,0,0,1-2.382,1.125Zm4.141-9.458c-.021-.009-.057-.056-.127-.187.006-.012.016-.025.03-.024Q51.62,11.85,51.666,11.956Zm-1.46,8.077c-.089.08-.177.161-.274.237a3.005,3.005,0,0,0,.2-.228c.04-.022.074-.03.07-.008Zm1.023-1.241a.587.587,0,0,1,.062-.181c.029-.024.056-.051.085-.075-.047.088-.1.173-.148.257Zm-5.421-6.245a.027.027,0,0,1-.018.037.256.256,0,0,1-.016-.037Zm4.927-3.526.057.1c-.078-.075-.156-.15-.238-.219a1.242,1.242,0,0,1,.182.117ZM48.95,7.79c.044.033.069.064.044.068-.115-.058-.229-.117-.347-.169Zm-12.432-1.1.1-.17h0Zm.361-.542c-.029.013-.023-.021.027-.085-.023.037.112-.1.2-.177a2.654,2.654,0,0,0-.228.262Zm16.151,10.5c-.012.008-.027.013-.037,0,.016-.088.029-.177.043-.266a.684.684,0,0,1-.006.263Z" transform="translate(-21.542 -3.193)" fill="#0c3058"/>
            <path id="Path_105822" data-name="Path 105822" d="M37.244,15.174c.037,0,.019-.073.024-.136-.008.041-.016.083-.028.136Z" transform="translate(-22.858 -9.277)" fill="#0c3058"/>
            <path id="Path_105823" data-name="Path 105823" d="M66.766,40.243c-.037.025-.08.048-.117.073l0,0A1.111,1.111,0,0,0,66.766,40.243Z" transform="translate(-37.964 -22.225)" fill="#0c3058"/>
            <path id="Path_105824" data-name="Path 105824" d="M50.422,11.917l.005.01.064-.039Z" transform="translate(-29.63 -7.659)" fill="#0c3058"/>
            <path id="Path_105825" data-name="Path 105825" d="M72.235,22.255c-.018-.069-.026-.158-.059-.275A2.639,2.639,0,0,1,72.235,22.255Z" transform="translate(-40.804 -12.844)" fill="#0c3058"/>
            <path id="Path_105826" data-name="Path 105826" d="M71.193,19.58a.063.063,0,0,0-.029-.018v0Z" transform="translate(-40.284 -11.601)" fill="#0c3058"/>
            <path id="Path_105827" data-name="Path 105827" d="M62.618,64.042l0,.058C62.629,64.237,62.625,64.144,62.618,64.042Z" transform="translate(-35.894 -34.45)" fill="#0c3058"/>
            <path id="Path_105828" data-name="Path 105828" d="M62.41,49.379l.021.229C62.434,49.481,62.435,49.382,62.41,49.379Z" transform="translate(-35.787 -26.918)" fill="#0c3058"/>
            <path id="Path_105829" data-name="Path 105829" d="M52.161,74.436Z" transform="translate(-30.498 -39.789)" fill="#0c3058"/>
            <path id="Path_105830" data-name="Path 105830" d="M60.768,11.262s0,0-.01,0l.081.016Z" transform="translate(-34.939 -7.338)" fill="#0c3058"/>
            <path id="Path_105831" data-name="Path 105831" d="M60.243,11.18a1.554,1.554,0,0,1,.17.029A.487.487,0,0,0,60.243,11.18Z" transform="translate(-34.674 -7.296)" fill="#0c3058"/>
            <path id="Path_105832" data-name="Path 105832" d="M64.862,12.85H64.84c.094.03.367.269.5.32C65.216,13.091,65.042,12.949,64.862,12.85Z" transform="translate(-37.036 -8.154)" fill="#0c3058"/>
            <path id="Path_105833" data-name="Path 105833" d="M62.5,42.564a.383.383,0,0,1-.037-.067l.012.251C62.485,42.689,62.493,42.59,62.5,42.564Z" transform="translate(-35.815 -23.382)" fill="#0c3058"/>
          </g>
          <path id="Path_105834" data-name="Path 105834" d="M21.185,49.014l.019.026.03-.01c0,.022.048.04.028.059l-.027-.015.014.041.023-.025c.034.019.08-.007.064.021-.007,0,0,.02-.036.035h0c.022.008.044.015.031.033s-.07.007-.083.012c.055,0,.022.049.081.05a.2.2,0,0,0-.054.008h.045c-.011.013-.017.016-.044.02,0,.031.077-.028.052.015,0,0-.01,0-.018,0-.009.04.043.059.035.1-.057.031-.025-.022-.073.006.028.045.106.067.112.112l0-.011c.084-.034-.026.051.023.052a.112.112,0,0,0-.037.014c0,.035.054.047.1.069l-.025.01c-.006.027.019.046.023.069.022-.009.026,0,.048-.024-.061.135.127.037.088.15-.005,0-.026,0-.022.008l.05.016c.023-.032.011-.022.024-.052s.04-.019.048-.013c-.031.007-.041.049-.048.072.007-.01.018-.019.025-.029-.025.07.052-.06.048,0l-.013.016c.016,0,.04-.017.047,0-.022.04-.022.01-.045.04.017.009.077-.049.066,0-.013.007-.023,0-.037.007-.016.055-.005.044,0,.059v0l.015.037v-.016c.082-.091.052.008.116-.049-.06.053-.024.036-.05.081,0,.016,0,.037,0,.048.033-.031.01.042.056,0-.006.016.014.009-.006.046.024,0,.007-.029.017-.047.048-.04.044.091.112.033.043-.019.066-.067.1-.088h0a.092.092,0,0,1-.021.051c.012.028.027.028.048.012a.083.083,0,0,0,0,.046c.015,0,.02-.058.034-.031a.4.4,0,0,1-.025.064c.02-.012.041-.041.06-.053,0,.03-.016.042-.025.06a.131.131,0,0,0,.045-.031c-.017.021-.019-.023-.018-.037l.013-.009c0-.1-.048.008-.073,0l.018-.057a.967.967,0,0,0,.173.018h0c0,.028,0,.057,0,.083,0-.007,0-.014-.008-.012l-.008.057.021-.016v-.006a.15.15,0,0,0,.03.092l.028-.05.012.037-.025,0c.016.036.024,0,.033-.019a.089.089,0,0,0,.016.041l.022-.077c.007.031-.007.063.015.078.01-.037-.021-.068,0-.094.018.034.018.064.03.031a.06.06,0,0,1,0,.043c.012-.027.037-.016.037-.059.023.042.046-.02.061.054a.124.124,0,0,1,.024-.07c0,.094.051-.008.072.086,0-.082.055-.057.07-.11,0,.006,0,.02,0,.017.02,0,.034.021.052.03-.024-.063,0-.089-.009-.133.048.049.021.077.054.13-.024-.049.013-.067-.014-.1a.187.187,0,0,1,.056.057c-.037-.075.008-.019,0-.073.042.023.045.065.056.028.025.015.018.054.018.054.027-.015-.02-.061-.034-.095.019-.033.037.031.066.052.01-.026-.009-.083,0-.09s.012.009.016.022c-.012-.054.052-.042.033-.107l.012.01a.592.592,0,0,1-.058-.064c.008-.009-.01-.045.02-.016-.006,0,0,.016.01.029l0-.022c.047.037,0,.027.029.06.007-.031-.006-.086.018-.086.043.037-.019.044.035.064l-.037,0c.078.053-.018.008.063.067.042-.016.016-.052.055-.07-.016-.029-.037-.031-.053-.06-.007-.079.139.065.109-.018-.023-.034-.078-.082-.03-.081l.046.048c.029-.028-.062-.075,0-.08.017.021,0,.037.01.037.058.009-.019-.037-.008-.052l.051.029c.014-.042,0-.1.013-.145.015.01.027.026.048.024,0-.065.059-.108.11-.154l-.04-.037s.024,0,.032.006c.024-.016-.03-.01-.046-.026,0-.013.032-.008.044,0-.03-.051-.061-.125,0-.156l.013.01c.025-.029-.1-.049-.046-.07l.008.006c.028-.066-.016-.137.055-.192-.072,0,.029-.072-.075-.064.044-.044.064-.036.088-.1,0-.016-.067-.009-.081-.024l.051-.013-.06-.011.058-.029-.018-.013c0,.008-.019.021-.034.023-.029-.018.018-.072.042-.082l-.064-.045a.073.073,0,0,1,.046,0c-.062-.013.05-.026-.007-.037a.128.128,0,0,1-.04.013A.052.052,0,0,0,23.4,48.5l.035-.011c-.012-.05-.064-.083-.092-.129,0,.026-.059.056-.072.047l.043-.037c-.034.011-.009.025-.055.031-.005-.018.045-.046.067-.047l-.03-.008a.346.346,0,0,1,.041-.022c-.034.013.019-.068-.037-.044l.013-.011c-.033-.046-.066-.049-.1-.081-.036.033-.039.013-.075.031-.011-.031-.012-.083-.043-.106-.037,0-.032.027-.059.041.026-.035-.006-.054.029-.068a.187.187,0,0,0-.12-.03c0,.018,0,.029-.014.039s-.01-.027,0-.045l0,0c-.081.025-.073-.185-.161-.123l0,0-.067.026c-.02-.016.025-.026.017-.058-.077.048-.086-.037-.145,0-.012-.135-.13-.016-.172-.1v.031c-.015.029-.015-.018-.024-.026,0,.024.013.028,0,.044-.107.03-.227-.04-.353-.037-.045,0,.018.158-.052.1l0-.058c-.06.088-.167.058-.213.15,0-.013-.011-.029,0-.032-.036-.028-.057.031-.039.06-.013,0-.018-.024-.034-.034s-.009.067-.039.037c0,0,0-.013,0-.018,0,.023-.046.028-.01.059-.037,0-.034.051-.07.045.023.051-.056.016-.009.075-.051-.058-.083-.009-.069.031-.013-.021-.029,0-.047-.032-.015.018-.018.042.015.066-.1-.03.008.108-.1.054-.007.077-.011.143-.022.2-.069-.037.023-.058-.048-.1,0,.065.046.123.006.162-.016.008-.027-.021-.037-.03.007.062-.047.1-.021.156a.037.037,0,0,1-.018-.016c0,.01-.016.018.018.027l-.007-.011c.052,0,.093.064.119.071-.093-.039-.036.037-.153-.016a.064.064,0,0,0,.042.023c-.009.007-.023.007-.047-.008.01.037.051.033.045.062a.267.267,0,0,1-.041-.017c.03.022.061.041.043.064-.01,0-.024,0-.022-.009,0,.045.081.081.046.124C21.2,48.981,21.249,49.012,21.185,49.014Zm1.724-.258c-.011,0-.016.014-.027.023a.022.022,0,0,0,0-.012c.015-.008.031-.014.031-.011Zm-.04,0h0l-.005,0Zm-.524-.449v.083c0-.008,0-.015-.005-.011l0,.057.008-.016v-.008a.365.365,0,0,0,.013.1l.016-.048,0,.037-.011,0c0,.037.01,0,.016-.017a.2.2,0,0,0,0,.042l.021-.075a.262.262,0,0,0-.005.079c.01-.034,0-.07.015-.091,0,.037,0,.066.009.037a.112.112,0,0,1-.009.042c.01-.023.019-.008.03-.049,0,.045.027-.007.01.067.005-.017.024-.055.032-.056-.034.085.022.011-.008.1.031-.075.037-.024.068-.062,0,.005-.01.017-.009.013s0,.033,0,.049a.369.369,0,0,1,.07-.1c-.018.063-.039.069-.062.127.022-.05.037-.042.055-.083a.241.241,0,0,1-.024.072c.04-.075.013-.01.044-.051-.011.042-.037.07-.013.054a.127.127,0,0,1-.032.045c.008.007.037-.051.057-.08.023-.007-.018.043-.031.073.016-.01.055-.054.059-.047a.134.134,0,0,1-.016.022c.037-.034.024.015.075-.026L22.7,48.6l.054-.068c.006,0,.037-.021.011.012,0,0-.013.009-.023.017l.017-.009c-.034.049-.021.009-.049.043.021-.007.067-.031.063-.012-.037.043-.031,0-.057.045l0-.026c-.053.075,0-.011-.06.07,0,.024.035-.01.035.016.026-.019.033-.034.059-.054.063-.017-.094.112-.024.075.033-.021.091-.065.07-.029l-.055.037c0,.018.082-.048.058-.006-.023.012-.026,0-.031.008-.035.04.036-.015.042-.006l-.047.034c.016.011.065.006.085.022a.15.15,0,0,0-.047.025c.037.01.018.055-.008.087l.051-.007a.062.062,0,0,1-.03.011c-.016.015.031-.009.051-.01s-.026.015-.041.016c.045,0,.1.03.051.058h-.015c-.018.016.1,0,.06.023l-.009,0c-.019.034.029.075-.05.094.072.01-.034.028.066.041a.475.475,0,0,0-.106.022c-.005.005.059.022.068.033l-.052-.012.051.024-.063-.01.011.011a.1.1,0,0,1,.037,0c.021.02-.043.019-.069.01l.033.041a.153.153,0,0,1-.037-.023c.045.033-.052-.018-.011.012a.285.285,0,0,1,.037.018c-.031-.005-.039.007-.031.023l-.032-.018c-.015.013,0,.044-.016.063a.157.157,0,0,1,.072.048l-.048-.028c.026.023.021,0,.051.037-.011,0-.056-.031-.068-.045l.01.019-.037-.029c.025.024-.055-.02-.011.021l-.013-.01c-.012.017-.006.035-.015.051.034.034.022.031.045.064-.022,0-.059-.018-.069,0,.006.026.023.034.037.059-.029-.033-.04-.02-.052-.05-.013.017-.013.024-.018.067a.137.137,0,0,1,.026.031c0,.009-.021-.009-.031-.028v0c0,.075-.117-.081-.1.01v0l-.006.053c-.013,0,0-.034-.021-.057,0,.08-.041,0-.049.054-.04-.124-.057.02-.086-.062l0,.03c0,.03-.008-.017-.012-.024,0,.024.007.027,0,.044-.05.04-.1-.047-.13-.083-.012-.012-.05.15-.053.075l.023-.052c-.055.054-.063-.025-.119.01.008-.01.016-.025.019-.023.013-.039-.021-.016-.039.013,0-.006.015-.026.021-.043s-.045.035-.025,0a.044.044,0,0,1,.012-.012c-.015.013-.013-.017-.037.024,0-.026-.034,0-.025-.027-.039.036,0-.034-.052.019.053-.057.025-.06-.006-.042.019-.014.013-.022.037-.042-.006-.006-.023,0-.052.025.058-.072-.082.017.006-.063a.2.2,0,0,1-.119-.024c.068-.034.022.023.091-.018-.04,0-.1.011-.1-.021.007-.01.033-.01.045-.013-.04-.011-.011-.046-.058-.055a.064.064,0,0,1,.021,0s.008-.013-.025,0h.01a.383.383,0,0,1-.134.015c.1-.017.018-.031.145-.048a.119.119,0,0,0-.047,0c.005-.006.018-.01.046-.012-.023-.011-.057,0-.059-.014.016,0,.024,0,.043,0-.034,0-.068,0-.055-.02.01,0,.023,0,.024,0-.01-.019-.091-.031-.061-.06.075.005.024-.01.088-.012l-.019-.013-.031,0c0-.011-.044-.024-.022-.034l.026.01-.011-.023-.025.011c-.032-.015-.081,0-.062-.021.006,0,0-.014.04-.016h0c-.019-.009-.037-.018-.022-.026s.07.013.083.013c-.052-.015-.011-.031-.065-.05a.279.279,0,0,0,.052.013l-.041-.014a.088.088,0,0,1,.048,0c.012-.015-.08-.013-.041-.026l.015.008c.022-.015-.017-.048.011-.06.063.016.009.021.063.032,0-.026-.053-.08-.026-.1h-.009c-.079-.044.049,0,.017-.03a.158.158,0,0,0,.034.022c.022-.007,0-.041-.009-.082l.017.016c.023,0,.027-.016.042-.018-.016-.017-.009-.02-.037-.037.123.059,0-.1.1-.048,0,0,.007.021.01.019l.005-.034a.187.187,0,0,0-.043-.034c-.013-.021-.018-.04-.012-.045.007.03.041.048.059.062l-.023-.029c.056.046-.048-.064,0-.04l.012.018c0-.013-.01-.04,0-.04.029.035.005.022.027.053.007-.008-.031-.086,0-.053,0,.013,0,.017,0,.031.039.037.033.027.044.029h0l.028.011-.012-.01c-.049-.109.012-.034-.006-.112.016.075.017.037.039.086a.107.107,0,0,1,.029.037c-.011-.041.026.024.011-.037.007.015.008,0,.024.037,0-.016-.014-.025-.022-.045,0-.061.061.051.057-.031.01-.034,0-.082.015-.115h0a.141.141,0,0,1,.006.052c.017.021.024.013.031-.007a.143.143,0,0,0,.012.044c.007-.005-.005-.06.011-.037v.061a.675.675,0,0,1,.02-.066.2.2,0,0,1,0,.064.17.17,0,0,0,.018-.043c-.006.033-.016-.015-.018-.031l.006-.012c-.021-.1-.03.021-.045.017l0-.057a.739.739,0,0,1,.127-.013Zm-.223.037a.152.152,0,0,1,0,.037l-.017-.034Zm-.291.176a.08.08,0,0,1,.022.037l-.029-.028Zm.366-.2h.015l0,.046a.2.2,0,0,1-.01-.048Zm-.587,1.411.03-.03.009.012a.058.058,0,0,1-.038.018Zm.407.258.008-.043.018.005a.112.112,0,0,1-.025.037Zm.122.039a.147.147,0,0,1,.006-.046.058.058,0,0,1,.021,0Zm1.182-.482,0-.013h0Zm.024-.061a.075.075,0,0,0-.011.02c-.016-.006-.031-.015-.027-.019s.023,0,.039,0Z" transform="translate(-14.611 -26.1)" fill="#2d82f7"/>
          <path id="Path_105835" data-name="Path 105835" d="M29.219,40.672l.019.026.031-.011c0,.023.047.04.027.06l-.027-.015.014.041.023-.025c.034.019.081-.008.064.021-.006,0,0,.02-.035.036h0c.022.008.045.016.031.033s-.07.008-.083.012c.055,0,.022.049.081.05a.193.193,0,0,0-.054.008h.045a.059.059,0,0,1-.044.02c0,.031.075-.028.051.015,0,0-.01,0-.018,0-.009.04.043.059.034.1-.057.031-.025-.022-.073.006.028.045.107.067.112.112l0-.011c.084-.035-.026.051.023.052a.107.107,0,0,0-.037.015c0,.034.054.046.1.069l-.022.008c-.006.027.019.047.023.07.022-.01.026,0,.048-.025-.061.135.126.037.088.152,0,0-.025,0-.021.008l.049.016c.023-.033.011-.022.024-.052.02-.013.041-.019.049-.012-.031.007-.041.049-.048.072.006-.01.018-.019.025-.029-.025.069.052-.06.048,0l-.014.016c.016,0,.041-.017.047,0-.022.04-.022.01-.045.04.017.009.077-.05.066,0-.013.007-.023,0-.037.007-.016.055-.005.044,0,.059v0l.015.037v-.017c.082-.091.052.008.117-.049-.061.053-.024.037-.05.081,0,.016,0,.037,0,.048.032-.031.01.041.055,0-.006.016.015.008-.005.045.024,0,.007-.029.017-.047.048-.04.044.091.112.033.044-.019.066-.067.1-.088h0a.09.09,0,0,1-.021.051c.012.028.027.029.047.013a.086.086,0,0,0,0,.046c.016,0,.021-.058.034-.031a.422.422,0,0,1-.026.064c.02-.013.041-.041.06-.054,0,.03-.016.042-.025.06a.139.139,0,0,0,.045-.031c-.017.021-.019-.024-.018-.039l.017-.007c0-.1-.048.009-.073,0l.019-.057a.958.958,0,0,0,.173.018h0c0,.029,0,.057,0,.083,0-.007,0-.014-.007-.011l-.008.057.016-.015V41.77a.157.157,0,0,0,.03.092l.028-.05.012.037-.025,0c.016.036.024,0,.032-.019a.088.088,0,0,0,.016.042l.022-.078c.007.031-.007.063.015.078.01-.037-.02-.068,0-.094.018.034.018.064.03.031a.055.055,0,0,1,0,.043c.012-.026.037-.016.037-.059.023.042.046-.019.06.054a.124.124,0,0,1,.025-.07c0,.094.051-.008.072.087,0-.082.055-.057.07-.112,0,.007,0,.021,0,.018.02,0,.034.021.052.03-.023-.063,0-.089-.008-.133.048.049.021.077.054.13-.023-.049.013-.067-.014-.1a.178.178,0,0,1,.056.056c-.037-.075.009-.019,0-.073.041.023.044.065.056.028.025.015.018.054.018.054.026-.015-.02-.06-.034-.094.019-.033.037.031.065.052.011-.025-.009-.082,0-.09.007.008.012.009.016.022-.012-.054.053-.042.033-.107l.013.01a.549.549,0,0,1-.06-.062c.008-.009-.01-.044.02-.016-.006,0,0,.017.01.029l0-.021c.047.037,0,.027.029.06.006-.032-.006-.086.018-.086.043.037-.019.044.035.065l-.037,0c.078.053-.018.008.063.067.042-.016.015-.052.055-.07-.017-.03-.037-.031-.054-.06-.006-.079.139.065.109-.018-.023-.034-.078-.083-.031-.081l.046.048c.029-.028-.063-.075,0-.08.017.021,0,.037.009.037.058.009-.019-.037-.007-.052l.051.029c.014-.042,0-.1.013-.145.014.01.027.026.047.024,0-.065.059-.109.11-.154l-.04-.037s.024,0,.032.006c.024-.016-.03-.011-.046-.027,0-.013.031-.008.044,0-.03-.052-.062-.125,0-.156l.013.01c.025-.029-.1-.049-.046-.07l.008.006c.027-.065-.016-.137.055-.192-.073,0,.028-.071-.075-.064.044-.043.063-.035.088-.1,0-.016-.066-.009-.081-.024l.052-.012-.058-.012.057-.029-.017-.013c0,.008-.019.021-.034.023-.029-.018.018-.072.042-.082l-.064-.045a.071.071,0,0,1,.047,0c-.062-.013.05-.026-.008-.037-.009.009-.03.01-.04.013a.052.052,0,0,0-.015-.077l.035-.012c-.012-.05-.065-.082-.092-.128,0,.026-.06.055-.073.047l.043-.037c-.034.011-.009.025-.054.031-.006-.019.044-.047.067-.047l-.031-.009a.3.3,0,0,1,.042-.022c-.034.012.019-.068-.037-.044l.012-.012c-.032-.045-.066-.049-.1-.08-.036.033-.037.013-.075.031-.012-.031-.012-.083-.044-.106-.036,0-.031.026-.059.041.026-.035-.007-.055.028-.068a.187.187,0,0,0-.12-.03c0,.018,0,.028-.014.037s-.009-.027,0-.044l0,0c-.081.024-.073-.187-.161-.123l0,0-.067.026c-.021-.016.025-.026.016-.058-.075.048-.086-.037-.145,0-.012-.134-.13-.016-.172-.1v.03c-.015.029-.015-.018-.024-.025,0,.023.013.028,0,.044-.108.03-.227-.04-.353-.037-.045,0,.018.158-.052.1l0-.058c-.06.088-.167.058-.214.15,0-.014-.01-.029,0-.033-.035-.028-.057.031-.039.06-.013,0-.018-.024-.034-.034s-.009.067-.037.037c-.005,0,0-.014,0-.018,0,.023-.046.028-.009.06-.037,0-.034.051-.07.045.023.051-.056.016-.009.075-.05-.059-.083-.009-.069.031-.013-.021-.029,0-.048-.032-.015.018-.018.042.015.066-.1-.03.008.109-.1.054-.008.077-.011.143-.022.2-.069-.037.024-.058-.047-.1,0,.065.046.123.005.162-.016.009-.027-.02-.037-.03.007.062-.047.1-.021.157a.042.042,0,0,1-.018-.016c0,.01-.016.018.018.027l-.007-.012c.052,0,.093.064.119.072-.094-.04-.036.037-.153-.016a.061.061,0,0,0,.042.023c-.009.007-.023.008-.047-.007.01.037.051.033.045.062a.249.249,0,0,1-.041-.017c.03.021.06.041.043.064-.01,0-.024,0-.022-.009,0,.046.081.081.046.124C29.235,40.639,29.283,40.669,29.219,40.672Zm1.722-.258c-.011,0-.016.013-.027.023a.018.018,0,0,0,0-.012c.016-.008.032-.015.032-.011Zm-.04,0h0l0-.005Zm-.524-.449c0,.029,0,.057,0,.084,0-.008,0-.015,0-.012l0,.057.008-.016a.042.042,0,0,0,0-.008.358.358,0,0,0,.013.1l.016-.048,0,.037-.012,0c0,.037.01,0,.016-.017a.187.187,0,0,0,0,.043l.021-.075a.278.278,0,0,0,0,.079c.01-.034,0-.07.015-.092,0,.037,0,.066.009.037a.127.127,0,0,1-.009.042c.01-.023.019-.008.03-.049,0,.044.027-.008.01.067.006-.018.025-.055.032-.056-.034.085.022.011-.008.1.031-.075.037-.025.067-.062,0,.006-.009.018-.009.013a.1.1,0,0,1,0,.048.365.365,0,0,1,.073-.1c-.018.063-.04.068-.063.126.022-.05.037-.041.056-.083a.271.271,0,0,1-.024.071c.04-.075.013-.01.043-.051-.01.042-.037.07-.013.054a.127.127,0,0,1-.032.045c.008.007.037-.05.057-.08.023-.007-.018.043-.031.073.016-.01.055-.055.059-.048a.112.112,0,0,1-.016.022c.037-.034.025.015.075-.026l-.009.013.054-.068c.006,0,.037-.021.011.012,0,0-.013.008-.023.017l.017-.009c-.034.049-.021.009-.049.042.021-.006.067-.031.064-.012-.037.043-.031,0-.057.045l0-.027c-.053.075,0-.01-.06.07,0,.024.035-.009.034.016.026-.019.034-.034.06-.054.062-.018-.095.112-.024.075.033-.021.091-.065.07-.029l-.054.037c0,.018.082-.048.058-.006-.023.012-.027,0-.031.008-.035.039.036-.015.042-.007L30.8,40.4c.016.01.065.006.085.022a.148.148,0,0,0-.048.024c.037.011.018.055-.008.088l.051-.007a.075.075,0,0,1-.031.011c-.016.015.031-.009.051-.01s-.026.016-.041.016c.044,0,.1.029.051.057H30.9c-.018.016.1,0,.061.023l-.009,0c-.019.034.029.075-.05.094.072.01-.034.028.065.041a.481.481,0,0,0-.106.022s.06.022.068.033l-.052-.012.051.024-.062-.01.011.011a.1.1,0,0,1,.037,0c.021.019-.043.019-.069.01l.032.041a.135.135,0,0,1-.037-.023c.045.033-.053-.018-.011.013a.278.278,0,0,1,.037.017c-.031-.005-.037.007-.031.023l-.031-.018c-.015.013,0,.044-.016.063a.156.156,0,0,1,.072.048l-.048-.028c.026.023.021,0,.052.037-.011,0-.056-.031-.068-.045l.01.019-.037-.029c.025.024-.055-.02-.01.021l-.008-.012c-.012.018-.006.036-.016.052.035.033.022.031.046.063-.023,0-.06-.018-.069,0,.006.026.023.034.037.059-.029-.034-.04-.02-.052-.05-.013.017-.013.023-.018.067a.124.124,0,0,1,.026.032c0,.009-.02-.009-.03-.028v0c0,.075-.117-.081-.1.01v0l-.006.052c-.013,0,0-.034-.021-.056,0,.08-.04,0-.048.054-.04-.124-.057.021-.087-.062l0,.031c0,.03-.008-.017-.012-.024,0,.023.007.027,0,.043-.05.04-.1-.047-.13-.083-.012-.012-.05.15-.052.075l.022-.052c-.055.054-.062-.025-.119.01.008-.01.016-.025.019-.023.013-.039-.021-.016-.039.013,0-.006.015-.027.021-.043s-.045.035-.025,0a.029.029,0,0,1,.007-.014c-.015.013-.014-.018-.037.024,0-.026-.034,0-.024-.027-.04.035,0-.034-.052.019.053-.057.026-.06-.006-.042.018-.014.013-.022.037-.042-.007-.006-.023,0-.052.025.059-.072-.082.017.006-.063a.206.206,0,0,1-.119-.024c.068-.034.022.024.091-.018-.04,0-.1.011-.1-.021.007-.01.033-.01.046-.013-.04-.011-.011-.046-.058-.055a.065.065,0,0,1,.021,0s.008-.013-.025,0l.01,0a.393.393,0,0,1-.134.015c.1-.016.018-.031.145-.048a.145.145,0,0,0-.047,0c.005-.006.018-.01.046-.011-.023-.011-.057,0-.059-.015.017,0,.024,0,.044,0-.034,0-.068,0-.055-.02s.023,0,.023,0c-.009-.02-.091-.031-.061-.061.075.005.024-.01.088-.011l-.019-.013-.031.005c0-.012-.044-.024-.023-.034l.026.01-.011-.023-.025.011c-.032-.015-.081,0-.062-.021.006,0,0-.014.04-.016h0c-.019-.009-.039-.019-.022-.027s.07.013.083.013c-.052-.014-.011-.03-.065-.05a.337.337,0,0,0,.052.013l-.041-.014a.086.086,0,0,1,.048,0c.012-.015-.08-.013-.041-.025l.015.008c.023-.016-.016-.048.012-.06.062.016.009.021.063.031,0-.026-.054-.079-.026-.1H29.8c-.079-.044.049,0,.017-.03a.155.155,0,0,0,.034.022c.022-.007,0-.041-.009-.082l.017.016c.024,0,.027-.016.042-.018-.016-.016-.009-.02-.037-.037.123.059-.005-.1.1-.048,0,0,.007.021.009.019l.005-.034a.169.169,0,0,0-.043-.035c-.013-.02-.018-.04-.013-.045.007.03.041.048.059.063l-.024-.03c.056.046-.048-.064,0-.039l.012.017c0-.013-.011-.04,0-.04.029.035.006.023.027.054.007-.009-.031-.086,0-.054,0,.013,0,.017,0,.031.039.037.033.026.044.029h0l.029.011-.012-.01c-.049-.109.012-.034-.006-.112.016.075.017.039.039.086a.108.108,0,0,1,.029.037c-.011-.041.026.024.01-.037.007.015.009,0,.024.037,0-.017-.013-.026-.021-.045-.005-.061.061.051.057-.031.01-.034,0-.082.015-.115h0a.138.138,0,0,1,.006.052c.017.021.023.014.031-.006a.15.15,0,0,0,.012.044c.007-.005-.005-.061.01-.037l0,.067c.006-.016.011-.049.019-.065a.194.194,0,0,1,0,.064.174.174,0,0,0,.018-.043c-.005.033-.015-.016-.018-.031l.006-.012c-.021-.1-.03.021-.045.017l0-.057a.686.686,0,0,1,.127-.013ZM30.152,40a.171.171,0,0,1,0,.037L30.14,40Zm-.29.175a.08.08,0,0,1,.022.037l-.029-.028Zm.366-.2h.016l0,.046a.231.231,0,0,1-.008-.045Zm-.587,1.411.03-.029.009.011a.058.058,0,0,1-.036.019Zm.407.258.008-.044.018.005a.123.123,0,0,1-.023.04Zm.122.037a.131.131,0,0,1,.007-.045l.021,0Zm1.183-.482,0-.013h0Zm.024-.061a.075.075,0,0,0-.012.019c-.016-.005-.03-.015-.027-.019s.026,0,.042,0Z" transform="translate(-18.738 -21.818)" fill="#2d82f7"/>
        </g>
      </g>
    </g>
  </g>
</svg>
