<svg width="393" height="210" viewBox="0 0 393 210" fill="none" xmlns="http://www.w3.org/2000/svg">
<path d="M258.599 28.8147C261.278 27.421 263.484 25.2642 264.937 22.617C266.39 19.9698 267.026 16.9511 266.764 13.9427C266.501 10.9342 265.353 8.07109 263.463 5.71537C261.574 3.35965 259.028 1.61712 256.148 0.708127C253.268 -0.200863 250.184 -0.235489 247.284 0.608627C244.385 1.45274 241.801 3.13769 239.859 5.4504C237.917 7.76311 236.704 10.5997 236.375 13.6015C236.045 16.6033 236.612 19.6355 238.006 22.3147C239.876 25.9062 243.096 28.6083 246.957 29.8271C250.818 31.0459 255.006 30.6818 258.599 28.8147Z" fill="#006738"/>
<path d="M387.852 54.4596C394.707 54.2816 390.977 59.5186 388.715 60.2726C361.44 69.4548 332.77 73.7988 304 73.1086C303.821 85.2406 303.584 98.2756 303.266 111.37C332.936 130.882 363.32 150.147 380.829 159.243C382.486 160.096 395.65 165.224 382.287 151.932C322.213 92.1646 384.023 64.9546 389.816 60.9076C391.76 59.5486 394.875 54.2606 387.852 54.4596Z" fill="#4B6BAB"/>
<path d="M387.852 54.4589C386.827 54.5049 385.807 54.6174 384.797 54.7959C324.078 65.3109 315.577 25.5529 307.204 4.45289C306.669 3.11389 304.982 -0.160113 303.018 0.0528872C304.635 -0.185113 304.718 4.51689 304.718 4.51689L304.518 11.1169C304.518 11.1169 304.508 38.3959 304.002 73.1169C332.91 73.7842 361.73 69.6787 389.302 60.9659C391.961 60.1329 394.927 54.1309 387.854 54.4659" fill="#3BA9C8"/>
<path d="M212.575 152.618C210.675 154.046 204.242 154.136 208.289 148.6C204.133 154.274 210.243 154.711 212.475 153.887C219.101 151.417 276.675 116.043 291.586 199.498C294.899 218.048 298.186 204.298 298.42 202.454C300.92 182.872 302.398 146.893 303.261 111.371C292.319 104.179 281.477 96.9569 271.409 90.1919C255.585 114.27 235.674 135.397 212.575 152.618Z" fill="#E74E58"/>
<path d="M282.459 71.6187C279.245 77.6107 275.585 83.8397 271.418 90.1887C281.477 96.9547 292.329 104.176 303.271 111.378C303.588 98.2777 303.826 85.2387 304.005 73.1067C296.416 72.9187 289.215 72.3927 282.459 71.6187Z" fill="#553F93"/>
<path d="M282.457 71.6175C289.212 72.3915 296.414 72.9175 304.003 73.1055C304.509 38.3865 304.519 11.1055 304.519 11.1055C304.519 11.1055 300.66 37.6635 282.457 71.6175Z" fill="#457A85"/>
<path d="M212.248 153.513C235.483 135.987 255.5 114.563 271.41 90.1945C242.593 70.8305 220.164 55.2945 220.164 55.2945L214.629 51.7135C214.629 51.7135 211.039 49.1245 211.852 47.8745C210.651 49.4015 212.351 52.5865 213.131 53.7745C225.709 72.6745 253.545 102.293 210.305 146.267C209.579 146.995 208.906 147.774 208.29 148.598C204.233 154.133 210.344 154.937 212.248 153.509" fill="#F7943D"/>
<path d="M271.413 90.1929C275.579 83.8439 279.24 77.6149 282.454 71.6229C244.193 67.2579 220.168 55.2949 220.168 55.2949C220.168 55.2949 242.597 70.8389 271.414 90.1949" fill="#E8D43A"/>
<path d="M303.015 0.048732C301.973 0.157732 300.852 1.23873 299.791 4.11573C299.761 4.20473 299.722 4.29373 299.682 4.39373C299.424 4.91973 299.156 5.50473 298.859 6.14973C292.937 19.4617 283.692 34.6587 268.138 43.3587C251.929 51.6217 233.845 50.5807 219.313 47.8327C218.38 47.6547 217.557 47.5257 216.833 47.4257C214.233 46.8007 212.786 47.0087 212.062 47.6637C211.979 47.721 211.908 47.7953 211.854 47.8817C211.04 49.1317 214.631 51.7107 214.631 51.7107L220.166 55.3017C220.166 55.3017 244.192 67.2547 282.466 71.6197C300.666 37.6637 304.518 11.1087 304.518 11.1087L304.726 4.50873C304.726 4.50873 304.637 -0.191268 303.02 0.044732" fill="#6DA253"/>
<mask id="mask0_157_65" style="mask-type:luminance" maskUnits="userSpaceOnUse" x="0" y="39" width="195" height="124">
<path d="M0 162.729H194.18V39.0576H0V162.729Z" fill="white"/>
</mask>
<g mask="url(#mask0_157_65)">
<path d="M193.703 137.371V129.882H182.797L181.954 136.965H186.997L186.868 162.727L193.95 160.713L193.703 137.371ZM157.238 143.293L150.78 145.247V162.567L157.892 160.712L157.238 143.293ZM177.921 129.882H149.957L149.114 136.905H169.955V162.567L177.038 160.643L176.195 136.706L178.338 135.734L177.921 129.882ZM136.327 149.374C136.049 151.764 134.577 153.431 131.913 154.374C131.059 154.662 130.178 154.863 129.284 154.974C128.111 155.144 126.928 155.227 125.743 155.222H123.977L122.31 136.771H137.735L136.327 149.371V149.374ZM144.699 129.882H113.492L112.639 136.647L115.539 136.835L118.317 162.25H121.025C121.967 162.25 122.979 162.23 124.06 162.19C125.141 162.14 126.173 162.061 127.16 161.932C127.934 161.813 128.628 161.723 129.253 161.684C129.878 161.645 130.483 161.575 131.078 161.495C131.689 161.404 132.295 161.282 132.893 161.128C133.552 160.961 134.201 160.756 134.837 160.513C135.751 160.177 136.607 159.702 137.376 159.104C138.156 158.5 138.877 157.822 139.529 157.081C140.373 155.986 141.03 154.759 141.473 153.45C142.027 151.915 142.413 150.325 142.624 148.708L144.697 134.314L144.699 129.882ZM108.452 129.882H80.8657L80.1417 136.647L83.1077 136.905L82.1257 146.666C81.9788 147.403 82.1057 148.168 82.4827 148.818C83.18 149.292 84.0286 149.49 84.8637 149.374H87.2247C88.0468 149.369 88.868 149.319 89.6847 149.225C90.5874 149.135 91.4901 149.026 92.3927 148.898L93.2457 143.164H89.1187C88.8407 143.164 88.7017 143.124 88.6727 143.035C88.6465 142.869 88.6365 142.702 88.6427 142.535L88.9897 136.702H101.69L102.414 150.183C102.566 151.434 102.236 152.697 101.491 153.714C101.017 154.18 100.449 154.54 99.8243 154.767C99.1997 154.995 98.5334 155.085 97.8707 155.033L81.7507 155.222L80.6507 162.434L99.0417 161.928C101.412 161.848 103.605 160.641 105.619 158.307C106.623 157.213 107.39 155.923 107.871 154.518C108.291 153.027 108.489 151.483 108.456 149.935V129.882H108.452ZM75.9837 137.371V129.882H65.0837L64.2407 136.965H69.2797L69.1497 162.728L76.2327 160.714L75.9837 137.371ZM59.8537 142.787V135.297C59.8537 133.154 59.4277 131.716 58.5637 130.982C57.447 130.165 56.0744 129.774 54.6947 129.882H37.1487L36.3057 136.905H51.3237C51.6096 136.876 51.8982 136.908 52.1713 136.996C52.4445 137.085 52.6962 137.23 52.9107 137.421C53.2955 137.943 53.4735 138.59 53.4107 139.236V162.121L60.4337 160.772L59.8537 142.787ZM32.4267 129.882H15.9897V136.905H25.2147L23.6077 149.434C23.4776 150.527 23.09 151.574 22.4767 152.489C21.6817 153.465 20.5868 154.152 19.3617 154.443C17.6526 154.884 15.8984 155.127 14.1337 155.167L11.7337 155.226L10.1967 136.776L9.66073 129.882H0.460734L-0.322266 136.588L3.01073 136.836L6.12573 162.191L7.99073 162.251H10.9267C11.5117 162.251 12.0777 162.231 12.6327 162.191C13.1877 162.151 13.6837 162.102 14.1327 162.062C15.3727 161.933 16.4837 161.824 17.4657 161.715C18.4729 161.607 19.4666 161.397 20.4317 161.09C21.7042 160.724 22.937 160.232 24.1117 159.622C25.2306 158.993 26.2337 158.178 27.0777 157.211C27.926 156.224 28.5819 155.086 29.0117 153.858C29.5295 152.467 29.9018 151.026 30.1227 149.558L32.4227 134.787V129.877L32.4267 129.882Z" fill="black"/>
<path d="M173.077 97.9467L166.619 99.9008V117.221L173.742 115.366L173.077 97.9467ZM193.77 84.5358H165.805L164.952 91.5588H185.794V117.222L192.887 115.297L192.034 91.3598L194.177 90.3878L193.77 84.5358ZM159.378 97.2528V89.3168C159.446 88.0529 159.043 86.8087 158.247 85.8248C157.778 85.3624 157.214 85.0076 156.594 84.7849C155.974 84.5621 155.313 84.4768 154.656 84.5348H130.471L129.588 91.3598L133.179 91.5598V109.753L127.979 109.942L127.255 117.382L139.824 116.34L140.161 109.446L139.626 91.5598H151.381C152.403 91.5598 152.919 92.1258 152.919 93.2598V117.226L159.942 115.426L159.376 97.2528H159.378ZM123.726 97.4418V89.9528C123.726 87.8098 123.3 86.3718 122.436 85.6378C121.318 84.8251 119.947 84.4353 118.568 84.5378H101.019L100.176 91.5608H115.195C115.481 91.5333 115.769 91.565 116.043 91.6537C116.316 91.7425 116.567 91.8865 116.782 92.0768C117.162 92.6015 117.335 93.2476 117.268 93.8918V116.777L124.291 115.428L123.725 97.4438L123.726 97.4418ZM94.0664 109.504L94.6914 88.5338C94.7567 87.9875 94.7017 87.4337 94.5303 86.9109C94.359 86.3882 94.0754 85.9093 93.6994 85.5078C92.857 84.8141 91.7824 84.4666 90.6934 84.5358H71.8654L71.0424 91.5588H86.3784C86.7214 91.5287 87.0658 91.5982 87.3704 91.7588C87.5704 91.8978 87.6704 92.2158 87.6704 92.7208L87.9884 109.753L71.3624 110.071L70.3204 117.223L96.5874 116.34L97.4014 109.505L94.0664 109.504ZM66.4394 92.0248V84.5358H55.5474L54.6944 91.6188H59.7334L59.6144 117.381L66.6974 115.367L66.4394 92.0248ZM50.1904 97.2528V89.3168C50.2584 88.0529 49.8554 86.8087 49.0594 85.8248C48.5905 85.3616 48.0264 85.0063 47.4062 84.7835C46.786 84.5607 46.1247 84.4758 45.4684 84.5348H21.2844L20.4014 91.3598L23.9924 91.5598V109.753L18.7924 109.942L18.0684 117.382L30.6364 116.34L30.9834 109.446L30.4474 91.5598H42.1954C43.2174 91.5598 43.7334 92.1258 43.7334 93.2598V117.226L50.7564 115.426L50.1904 97.2528Z" fill="black"/>
<path d="M193.672 63.5608L193.483 44.1677C193.554 42.773 193.105 41.4014 192.223 40.3187C191.69 39.8556 191.069 39.5052 190.398 39.2886C189.726 39.072 189.017 38.9939 188.315 39.0588H180.508C180.13 39.0569 179.754 39.1002 179.387 39.1877C179.02 39.2667 178.732 39.3367 178.524 39.3757L173.862 42.4017L173.743 39.1877H163.883L163.03 45.9527L167.157 46.3397L164.32 71.8737L171.343 70.4548L173.426 46.9947C173.871 46.6534 174.386 46.4144 174.934 46.2948C175.812 46.0944 176.711 46.0043 177.612 46.0267H184.824C186.252 46.0267 186.967 46.8197 186.967 48.4177L187.155 64.4177H177.672L176.572 71.5607L193.672 71.1237V63.5608ZM159.379 39.1877H152.29L151.853 43.6877L149.393 56.0977C149.275 56.7912 149.102 57.4744 148.877 58.1407C148.664 58.7786 148.374 59.3881 148.014 59.9557C147.624 60.5402 147.134 61.0508 146.566 61.4638C145.853 61.969 145.09 62.4002 144.29 62.7507C143.688 62.9895 143.067 63.1788 142.435 63.3167C141.701 63.4857 140.907 63.6347 140.074 63.7727C139.241 63.9107 138.374 64.0208 137.524 64.0998C136.674 64.1788 135.838 64.2487 135.064 64.2887L133.586 64.3477L133.08 60.2207L138.119 58.2067L143.535 45.8368L146.302 44.9837L145.767 39.1907H137.267L137.019 43.7907L133.269 57.3907L132.604 57.5198L130.561 39.1877H122L121.206 45.9527L124.48 46.2108L128.299 71.7447H129.999C130.336 71.7447 130.773 71.7251 131.309 71.6857C131.845 71.6457 132.38 71.6067 132.916 71.5567C133.452 71.5067 133.958 71.4767 134.454 71.4377C134.95 71.3987 135.327 71.3487 135.605 71.3087C137.539 71.0607 139.484 70.7628 141.458 70.4458C143.182 70.1869 144.872 69.7378 146.497 69.1067C147.788 68.6007 149.011 67.9342 150.137 67.1228C151.078 66.4578 151.911 65.6513 152.607 64.7317C153.225 63.8977 153.769 63.0113 154.234 62.0827C154.797 60.8613 155.233 59.5848 155.534 58.2737L158.634 46.1517L159.388 42.9377V39.1887L159.379 39.1877ZM116.89 52.1037V44.6037C116.89 42.4607 116.464 41.0227 115.6 40.2887C114.481 39.4759 113.11 39.0861 111.732 39.1887H94.1896L93.3466 46.2118H108.366C108.651 46.1843 108.94 46.2159 109.213 46.3047C109.486 46.3934 109.738 46.5374 109.953 46.7277C110.332 47.2525 110.505 47.8986 110.439 48.5427V71.4377L117.462 70.0787L116.896 52.1037H116.89ZM89.6206 39.1887H64.4956L63.6426 46.2118H79.0426V71.8737L86.2836 70.2068L85.4406 46.2067L89.6266 45.1947L89.6206 39.1887Z" fill="black"/>
</g>
</svg>
